<?xml version="1.0" encoding="utf-8"?>
<!-- Generator: Adobe Illustrator 25.2.3, SVG Export Plug-In . SVG Version: 6.00 Build 0)  -->
<svg version="1.1" xmlns="http://www.w3.org/2000/svg" xmlns:xlink="http://www.w3.org/1999/xlink" x="0px" y="0px"
	 viewBox="0 0 1010 404.5" style="enable-background:new 0 0 1010 404.5;" xml:space="preserve">
<style type="text/css">
	.st0{fill:#1A1A19;}
	.st1{clip-path:url(#SVGID_2_);}
</style>
<g id="Layer_1">
</g>
<g id="Layer_3">
	<path class="st0" d="M967.3,347.2c0.5-7.9,3.9-15.4,12.9-15.2c7.2-0.2,11.6,5.4,11.6,15.2H967.3 M991.8,365.6
		c-1,3.8-4.9,9.1-11.5,9.1c-10.5,0-13-10.4-13-17.7h39.2v-5.5c0-16.1-8.6-29.9-25.8-29.9c-18,0-28.1,12.9-28.1,31.5
		c0,19.9,10.8,32,28,32c13.9,0,20.4-7.4,23.7-15.4L991.8,365.6L991.8,365.6z M934.2,383.8h14.7v-44.3c0-9-3-18-14.9-18
		c-8.9,0-15.5,5.6-20.4,10.3v-9.1h-14.7v61h14.7v-42.2c5.3-5,8.3-7.7,13-7.7c4.8,0,7.6,3,7.6,8.7V383.8L934.2,383.8z M878.5,315.4
		h14.7v-10.9h-14.7V315.4L878.5,315.4z M878.5,383.8h14.7v-61h-14.7V383.8L878.5,383.8z M826.4,383.8h48.3v-10.4h-30.9l29.8-40.7
		v-9.9h-46v10.4h28.5L826.4,374V383.8L826.4,383.8z M807.8,366.7c-6.6,5.7-8.4,7.1-14,7.1c-4.7,0-7.6-3.3-7.6-8.5
		c0-7.3,4.9-11,17.2-11h4.4V366.7L807.8,366.7z M808.3,383.8h14.1c-0.2-2.6-0.5-8.1-0.5-10.4v-29.8c0-16.1-10-22.1-23.4-22.1
		c-14.9,0-20.6,7-24.2,15.5l12.9,3.6c2.2-5.5,3.9-9.3,10.8-9.3c7.1,0,9.8,4.4,9.8,9.5v4.7h-6.4c-16.5,0-29.2,5.4-29.2,21
		c0,11,6.2,18.5,16.8,18.5c7.9,0,14.2-4.7,18.8-10.4L808.3,383.8L808.3,383.8z M751,381.3c4.1,1,7,2.6,7,6.2c0,4.5-3.7,7.5-13.6,7.5
		c-7.9,0-14.9-2.2-14.9-8.1c0-4.5,3-7.2,6.4-9.6L751,381.3L751,381.3z M742.5,350.6c-6.3,0-10.9-3.8-10.9-9.7
		c0-5.7,3.6-9.6,11.1-9.6c4.8,0,10.5,2.6,10.5,9.6C753.2,346.8,748.9,350.6,742.5,350.6L742.5,350.6z M773.7,322.8h-22
		c-3.3-0.5-7.2-1.2-11-1.2c-13.3,0-22.4,8.6-22.4,19.4c0,8.2,2.9,12.9,12.2,17.4c-3.4,1.5-5.9,5.5-5.9,8.8c0,2.1,0.9,5,3.6,6.4
		c-4.3,2.2-11.5,5.8-11.5,15.2c0,9.4,10.1,15.7,27.3,15.7c13.9,0,28.2-4.4,28.2-18.3c0-8.8-6.1-13.1-13.4-15l-18.4-5
		c-2.6-0.7-3.5-1.2-3.5-2.6c0-1.7,0.7-2.7,1.5-3.5c0.9,0.2,2.4,0.4,3.9,0.4c18.6,0,24.2-10.3,24.2-18.2c0-6.6-3-9.7-4.7-11.4h11.9
		V322.8L773.7,322.8z M698.9,366.7c-6.6,5.7-8.4,7.1-14,7.1c-4.7,0-7.5-3.3-7.5-8.5c0-7.3,4.9-11,17.2-11h4.4V366.7L698.9,366.7z
		 M699.4,383.8h14.1c-0.2-2.6-0.5-8.1-0.5-10.4v-29.8c0-16.1-10-22.1-23.4-22.1c-14.9,0-20.6,7-24.2,15.5l12.9,3.6
		c2.2-5.5,3.9-9.3,10.8-9.3c7.1,0,9.8,4.4,9.8,9.5v4.7h-6.4c-16.5,0-29.2,5.4-29.2,21c0,11,6.2,18.5,16.8,18.5
		c7.9,0,14.2-4.7,18.8-10.4L699.4,383.8L699.4,383.8z M576.2,383.8h14.7v-42.3c5.9-6.3,8.1-7.5,11.9-7.5c4.5,0,7.2,3.4,7.2,9.1v40.7
		h14.7v-42.3c5.9-6.3,8.1-7.5,11.8-7.5c4.5,0,7.2,3.4,7.2,9.1v40.7h14.7v-44.2c0-10.4-4.3-18.1-15.3-18.1c-7.9,0-14.4,4.7-19.4,10.2
		c-2.2-5.8-6.3-10.2-14.2-10.2c-8.2,0-12.9,4.7-18.5,10.2v-9h-14.7V383.8L576.2,383.8z"/>
	<path class="st0" d="M524.4,349.5c-5.1,4.7-9.7,9.3-18,9.3c-17,0-18.2-22.9-18.2-34c0-15.2,0.8-37.1,18.7-37.1
		c7.7,0,12.4,4.3,17.6,9.9V349.5 M562.5,240h-38.1v34.5c-9.7-8.3-17.6-15.2-32.6-15.2c-35.9,0-42.6,34.9-42.6,62.2
		c0,30.8,6.7,65.7,41.6,65.7c9.5,0,20.3-2.2,33.7-15.8v13h38.1V240L562.5,240z M405.2,384.4h38.1V240h-38.1V384.4L405.2,384.4z
		 M320.7,384.4h38.1v-77c6.3-8.5,15.8-13.6,27.8-13.6c6.7,0,10.1,0.8,12.4,1.8v-34.3c-2.2-0.4-4.7-0.6-6.9-0.6
		c-8.1,0-25.1,5.7-32.8,21.1h-0.4v-19.7h-38.1V384.4L320.7,384.4z M235.6,323.4c0-18.6,3.2-36.9,20.3-36.9
		c18.2,0,20.3,18.2,20.3,36.9c0,18.5-2,36.7-20.3,36.7C238.8,360.1,235.6,341.8,235.6,323.4L235.6,323.4z M196.6,323.4
		c0,35.3,18.9,63.9,59.2,63.9c40.3,0,59.2-28.6,59.2-63.9c0-35.5-18.9-64-59.2-64C215.5,259.3,196.6,287.9,196.6,323.4L196.6,323.4z
		 M36.9,384.4l50.3-0.1l12.8-77.6c1.6-9.5,4-28,4.4-35.5h1.3c0.8,11.5,1.6,21.2,3.5,31.4l15.4,81.9l50.8,0l30.8-144.3h-38.7
		l-12.2,67.1c-2.4,12.8-4.3,32.2-5.5,46l0,0.5c-0.4-11.9-3.6-31.5-6.7-48.1l-12.6-65.5H80.7l-13,74.8c-1.8,10.7-3.7,20.2-4.3,38.7
		l-0.2-0.4c-1.2-15-4.1-35.8-6.3-48.2l-12.4-64.9H4.1L36.9,384.4L36.9,384.4z"/>
	<polyline class="st0" points="987.1,117.1 975.3,144.6 1000,144.6 1010,117.1 1010,83.6 975.3,83.6 975.3,117.1 987.1,117.1 	"/>
	<path class="st0" d="M972.4,133.3c-3.8-10-11-28.7-47.7-28.7c-8,0-48.9,0-48.9,38.7c0,20.4,12.6,29.1,26.3,33.3l21.5,6
		c9.8,2.8,12.6,4.2,12.6,11.4c0,5.6-5,10.6-13.6,10.6c-8.7,0-15.9-5.6-17.5-14.2l-31.9,9.2c3.4,7.4,10.2,30.9,49.7,30.9
		c20.1,0,50.9-5.6,50.9-40.3c0-18.8-10.4-30.5-29.1-35.7l-12.8-3.6c-11.2-3-19.7-4.6-19.7-11.4c0-5.6,3.4-9.8,12.8-9.8
		c11.2,0,13.3,5.4,16.7,13.4L972.4,133.3 M796,227.7h37.5v-75.8c6.2-8.4,15.6-13.4,27.3-13.4c6.6,0,10,0.8,12.2,1.8v-33.7
		c-2.2-0.4-4.6-0.6-6.8-0.6c-8,0-24.7,5.6-32.3,20.7h-0.4v-19.3H796V227.7L796,227.7z M715.8,153.3c0-7.4,2-23.5,19.5-23.5
		c16,0,17.8,16,18.2,23.5H715.8L715.8,153.3z M734,104.6c-37.1,0-56.4,28.5-56.4,63.4c0,21.7,8.8,62.4,56.4,62.4
		c24.5,0,40.5-8.2,51.3-30.9l-31.7-10.4c-2.6,5.6-6.8,14.6-18.9,14.6c-18.8,0-18.8-18-18.8-25.9h74.6v-9.6
		C790.4,123.5,765.5,104.6,734,104.6L734,104.6z M634.5,227.7H672v-85c0-14.2,0-38.1-29.7-38.1c-16.3,0-26.1,7.8-39.5,18.9v-16.2
		h-37.5v120.3h37.5v-80.2c5.4-5,13-12.2,20.1-12.2c9.2,0,11.6,8.2,11.6,18.3V227.7L634.5,227.7z M485.1,153.3
		c0-7.4,2-23.5,19.5-23.5c16,0,17.7,16,18.1,23.5H485.1L485.1,153.3z M503.2,104.6c-37.1,0-56.4,28.5-56.4,63.4
		c0,21.7,8.8,62.4,56.4,62.4c24.5,0,40.5-8.2,51.2-30.9l-31.7-10.4c-2.6,5.6-6.8,14.6-19,14.6c-18.7,0-18.7-18-18.7-25.9h74.6v-9.6
		C559.7,123.5,534.8,104.6,503.2,104.6L503.2,104.6z M403.7,193.4c-5,4.6-9.6,9.2-17.8,9.2c-16.8,0-17.9-22.5-17.9-33.5
		c0-15,0.8-36.5,18.3-36.5c7.6,0,12.2,4.2,17.4,9.8V193.4L403.7,193.4z M441.2,74.9h-37.5v44.6c-9.6-8.2-17.4-15-32.1-15
		c-35.3,0-41.9,34.3-41.9,61.2c0,30.3,6.6,64.6,40.9,64.6c9.4,0,19.9-2.2,33.1-15.6v12.8h37.5V74.9L441.2,74.9z M252,227.7h37.5
		v-75.8c6.2-8.4,15.6-13.4,27.3-13.4c6.6,0,10,0.8,12.2,1.8v-33.7c-2.2-0.4-4.6-0.6-6.8-0.6c-8,0-24.7,5.6-32.3,20.7h-0.4v-19.3H252
		V227.7L252,227.7z M188.2,201.7c-7,0-12-4.8-12-11.8c0-10,7.4-16.2,18.9-16.2c3.8,0,8.6,0.4,13,0.8V192
		C203.1,196.1,196.5,201.7,188.2,201.7L188.2,201.7z M245,156.3c0-30.3-10.8-51.7-49.9-51.7c-41.1,0-49.7,26.1-51.4,31.7l33.3,9.6
		c1.4-7.8,5.4-16.2,16.4-16.2c11.8,0,14.8,6.8,14.8,18.4v3.8c-4-0.4-9.4-0.8-14.2-0.8c-28.3,0-54.1,13.2-54.1,43.1
		c0,14.4,7.6,36.3,34.3,36.3c14.2,0,25.7-10.4,33.9-18.4h0.6c0,4.4,0.6,10.4,0.8,15.6h36.3c-0.6-5.6-0.8-14-0.8-21.2V156.3
		L245,156.3z M74,170.1h22.3v25.1c-4.7,4-15.3,5.1-21.2,5.1c-25.5,0-31.2-24-31.2-48.2c0-22.5,5.7-48.2,31.2-48.2
		c15.3,0,20.4,9.8,23.1,18.7l38-10c-6.6-27.2-31.7-39.8-61.2-39.8C39.1,72.7,0,93.6,0,152c0,59.5,37.4,79.3,76.9,79.3
		c23.4,0,49.7-10.4,58-17.6v-73.3H74V170.1L74,170.1z"/>
</g>
<g id="Layer_4">
	<g>
		<g>
			<defs>
				<rect id="SVGID_1_" x="155.2" width="224" height="64.2"/>
			</defs>
			<clipPath id="SVGID_2_">
				<use xlink:href="#SVGID_1_"  style="overflow:visible;"/>
			</clipPath>
			<path class="st1" d="M354.1,9.1c-0.3-0.1-0.6-0.1-0.9-0.1l-0.4-0.1c-0.5-0.1-1-0.1-1.6-0.2c-0.4,0-0.7-0.1-1.1-0.1
				c-0.6,0-1.3-0.1-1.9-0.1c-0.3,0-0.4,0-0.7,0c-0.5,0-1,0-1.5,0.1c-0.3,0-0.6,0-0.8,0.1c-0.4,0-0.8,0.1-1.2,0.1l-0.3,0l-0.4,0.1
				L342.9,9c-0.2,0-0.4,0.1-0.6,0.1c-0.3,0-0.5,0.1-0.8,0.2c-1.6,0.3-3.1,0.8-4.5,1.3c-0.7,0.3-1.4,0.6-2,0.9
				c-0.5,0.3-1.1,0.5-1.6,0.8c-0.5,0.3-0.9,0.6-1.4,0.9c-0.3,0.2-0.5,0.3-0.8,0.5c-0.2,0.2-0.4,0.3-0.6,0.5c-0.4,0.3-0.8,0.7-1.2,1
				c-0.4,0.3-0.7,0.6-1,1c-0.3,0.3-0.6,0.6-0.8,0.9c-0.3,0.3-0.5,0.6-0.8,0.9c-0.3,0.3-0.6,0.7-0.8,1.1c-0.2,0.3-0.4,0.5-0.6,0.8
				c-0.1,0.2-0.2,0.4-0.4,0.6c-0.7,1.2-1.3,2.4-1.8,3.7c-0.6,1.6-1.1,3.4-1.3,5.3c-0.1,0.6-0.1,1.2-0.2,1.8c0,0.5,0,1,0,1.4
				c0,0.4,0,0.7,0,1.1c0,0.4,0.1,0.7,0.1,1.1l0,0.3c0.1,0.4,0.1,0.9,0.2,1.3c0,0.2,0.1,0.3,0.1,0.5c0.1,0.3,0.2,0.7,0.2,1
				c0.1,0.4,0.2,0.9,0.4,1.3c0.2,0.5,0.4,1,0.6,1.5c0.3,0.8,0.7,1.5,1.1,2.2c0.2,0.4,0.5,0.8,0.7,1.2c0.2,0.3,0.4,0.6,0.6,0.9
				c0.3,0.4,0.5,0.8,0.8,1.1c0.3,0.4,0.6,0.7,0.9,1c0.4,0.4,0.7,0.8,1.1,1.1l0.2,0.2c0.3,0.3,0.6,0.6,1,0.9c0.2,0.2,0.5,0.4,0.8,0.7
				c0.3,0.2,0.5,0.4,0.8,0.6c0.3,0.2,0.7,0.5,1.1,0.7c0.4,0.3,0.8,0.5,1.3,0.8c0.9,0.5,1.9,1,3,1.4c0.4,0.2,0.8,0.3,1.3,0.5
				c0.4,0.1,0.9,0.3,1.3,0.4c0.8,0.2,1.6,0.4,2.5,0.6c0.7,0.1,1.4,0.2,2.2,0.3c0.7,0.1,1.5,0.2,2.3,0.2c0.4,0,0.8,0,1.2,0
				c0.2,0,0.4,0,0.6,0c1.4,0,2.7-0.1,4-0.2l0.2,0c0.5,0,1-0.1,1.4-0.2c0.7-0.1,1.4-0.2,2-0.3c0.4-0.1,0.8-0.1,1.2-0.2
				c0.6-0.1,1.1-0.3,1.7-0.4c0.4-0.1,0.8-0.2,1.1-0.3c0.4-0.1,0.9-0.3,1.3-0.4l0.4-0.1c0.2-0.1,0.5-0.2,0.8-0.3
				c0.4-0.2,0.9-0.4,1.5-0.6c0.3-0.1,0.7-0.3,1.1-0.5c0.3-0.2,0.7-0.3,1-0.5c0.1-0.1,0.3-0.1,0.4-0.2v-8.7c-0.1,0.1-0.2,0.1-0.3,0.2
				l-0.6,0.4c-0.6,0.4-1.2,0.7-1.7,1c-0.6,0.3-1.2,0.7-1.9,0.9c-1.1,0.5-2.1,0.9-3.1,1.3c-1.9,0.7-3.6,1.1-5.2,1.4
				c-0.2,0-0.4,0.1-0.5,0.1c-0.4,0.1-0.8,0.1-1.2,0.2c-0.6,0.1-1.2,0.1-1.7,0.1c-0.3,0-0.6,0-0.9,0c-0.6,0-1.3,0-1.9-0.1
				c-0.8-0.1-1.5-0.1-2.3-0.3c-1.3-0.2-2.5-0.5-3.8-1c-0.2-0.1-0.4-0.1-0.5-0.2c-0.1,0-0.2-0.1-0.4-0.1c-0.2-0.1-0.4-0.2-0.6-0.3
				c-0.4-0.2-0.8-0.4-1.3-0.6c-0.2-0.1-0.4-0.2-0.6-0.4c-0.2-0.1-0.4-0.3-0.6-0.4c-0.3-0.2-0.5-0.4-0.8-0.5
				c-0.2-0.2-0.5-0.4-0.7-0.6l-0.3-0.3l-0.1-0.1l-0.1-0.1l-0.1-0.1c-0.4-0.4-0.7-0.8-1.1-1.2c-0.2-0.2-0.4-0.4-0.5-0.7
				c-0.2-0.2-0.3-0.4-0.4-0.6c-0.1-0.2-0.3-0.4-0.4-0.6c-0.2-0.3-0.3-0.6-0.5-0.9c-0.1-0.3-0.2-0.5-0.4-0.8
				c-0.2-0.4-0.3-0.9-0.5-1.3c-0.1-0.3-0.2-0.7-0.3-1c-0.2-0.9-0.3-1.7-0.4-2.4c0-0.3,0-0.5-0.1-0.8c0-0.3,0-0.6,0-0.9
				c0-0.2,0-0.3,0-0.6c0-0.5,0.1-1.1,0.2-1.8c0.1-0.4,0.2-0.9,0.3-1.4c0.1-0.3,0.2-0.7,0.3-1c0.1-0.3,0.2-0.6,0.3-0.9
				c0.1-0.2,0.2-0.4,0.3-0.6c0.1-0.3,0.3-0.6,0.4-0.9c0.1-0.2,0.2-0.4,0.4-0.7c0.3-0.5,0.6-1,1-1.5c0.1-0.2,0.3-0.4,0.4-0.5
				c0.2-0.2,0.4-0.5,0.6-0.7c0.1-0.1,0.2-0.2,0.3-0.3c1.6-1.6,3.4-2.8,5.2-3.6c0.3-0.1,0.6-0.2,0.9-0.4c0.3-0.1,0.6-0.2,0.9-0.3
				c0.3-0.1,0.6-0.2,1-0.3c0.3-0.1,0.6-0.2,0.9-0.2c0.3-0.1,0.6-0.1,0.9-0.2c0.3-0.1,0.7-0.1,1-0.2c0.3,0,0.7-0.1,1-0.1
				c0.6-0.1,1.3-0.1,1.9-0.1c0.2,0,0.4,0,0.6,0c0.4,0,0.9,0,1.3,0.1c0.3,0,0.6,0,0.9,0.1c0.5,0.1,1.1,0.1,1.6,0.2
				c0.4,0.1,0.9,0.1,1.3,0.2c0.6,0.1,1.2,0.3,1.7,0.4c0.3,0.1,0.6,0.2,0.9,0.3c0.4,0.1,0.8,0.2,1.1,0.3c0.5,0.2,0.7,0.3,0.7,0.3
				c0.4,0.2,0.8,0.3,1.3,0.5c0.6,0.2,1.1,0.5,1.6,0.7c0.4,0.2,0.8,0.4,1.2,0.6c0.3,0.2,0.6,0.3,0.9,0.4c0.5,0.2,0.9,0.5,1.2,0.6
				l0.9,0.5v-8.5c0,0-0.5-0.2-1.5-0.6c-0.4-0.2-0.9-0.3-1.4-0.5c-0.3-0.1-0.6-0.2-1-0.3c-0.3-0.1-0.5-0.2-0.8-0.3
				c-0.3-0.1-0.7-0.2-1-0.3c-0.3-0.1-0.5-0.2-0.8-0.2l-0.2-0.1c-0.3-0.1-0.5-0.1-0.8-0.2c-0.3-0.1-0.6-0.2-0.9-0.2
				c-0.2-0.1-0.4-0.1-0.6-0.1c-0.3-0.1-0.7-0.2-1-0.2C354.8,9.2,354.4,9.2,354.1,9.1L354.1,9.1z M311.4,0.2h67.7v63.7h-67.7V0.2
				L311.4,0.2z"/>
			<path class="st1" d="M259.4,35.4v12.5h8.1c0,0,0.2,0,0.4,0c0.3,0,0.7,0,1.1-0.1c0.9-0.1,2-0.2,3.2-0.6c1-0.3,2-0.9,2.8-1.6
				c0.3-0.3,0.5-0.6,0.7-0.9c0.6-1,0.8-2,0.8-2.6c0-0.3,0-0.4,0-0.4s0-0.1,0-0.3c0-0.2,0-0.7-0.2-1.2c-0.2-0.6-0.4-1.3-0.9-1.9
				c-0.1-0.1-0.2-0.2-0.3-0.4c-0.2-0.2-0.5-0.4-0.7-0.6c-0.4-0.3-1-0.6-1.5-0.8c-0.7-0.3-1.5-0.6-2.4-0.7c-0.5-0.1-0.9-0.2-1.4-0.2
				c-0.3,0-0.6-0.1-0.9-0.1c-0.3,0-0.6,0-0.9,0C264.3,35.4,259.4,35.4,259.4,35.4L259.4,35.4z"/>
			<path class="st1" d="M259.4,16.3v11.9h3.9c0,0,0.3,0,0.6,0c0.3,0,0.6,0,0.9,0c0.8-0.1,1.9-0.2,3.1-0.5c0.2-0.1,0.4-0.1,0.7-0.2
				c0.9-0.3,1.7-0.8,2.4-1.4c0.5-0.5,0.9-1.1,1.1-1.6c0.3-0.7,0.4-1.3,0.4-1.8c0-0.4,0-0.7,0-0.7s0-0.2,0-0.5c0-0.5-0.1-1.4-0.5-2.2
				c-0.2-0.4-0.5-0.8-0.8-1.1c-0.4-0.4-1-0.8-1.6-1c-1.1-0.5-2.4-0.7-3.4-0.8c-0.5,0-0.9,0-1.2,0C264,16.3,259.4,16.3,259.4,16.3
				L259.4,16.3z"/>
			<path class="st1" d="M251.1,9.2V55h17.3c0,0,8.4,0.2,13.1-4.4c3.8-3.8,3.5-8.2,3.5-8.2s0.3-4.6-3.2-8.1c-3-3-6.8-3.8-6.8-3.8
				s1.7-0.8,3-2.1c0.6-0.6,2.8-2.6,2.8-7.4c0-4.9-3.2-7.7-3.2-7.7s-3.5-4.2-11.6-4.2H251.1L251.1,9.2z M233.4,0.2h67.7v63.7h-67.7
				V0.2L233.4,0.2z"/>
			<path class="st1" d="M181.4,35.4v12.5h8.1c0,0,0.2,0,0.4,0c0.3,0,0.7,0,1.1-0.1c0.9-0.1,2-0.2,3.2-0.6c1-0.3,2-0.9,2.8-1.6
				c0.3-0.3,0.5-0.6,0.7-0.9c0.6-1,0.8-2,0.8-2.6c0-0.3,0-0.4,0-0.4s0-0.1,0-0.3c0-0.2,0-0.7-0.2-1.2c-0.2-0.6-0.4-1.3-0.9-1.9
				c-0.1-0.1-0.2-0.2-0.3-0.4c-0.2-0.2-0.5-0.4-0.7-0.6c-0.4-0.3-1-0.6-1.5-0.8c-0.7-0.3-1.5-0.6-2.4-0.7c-0.5-0.1-0.9-0.2-1.4-0.2
				c-0.3,0-0.6-0.1-0.9-0.1c-0.3,0-0.6,0-0.9,0C186.3,35.4,181.4,35.4,181.4,35.4L181.4,35.4z"/>
			<path class="st1" d="M181.4,16.3v11.9h3.9c0,0,0.3,0,0.6,0c0.3,0,0.6,0,0.9,0c0.8-0.1,1.9-0.2,3.1-0.5c0.2-0.1,0.4-0.1,0.7-0.2
				c0.9-0.3,1.7-0.8,2.4-1.4c0.5-0.5,0.9-1.1,1.1-1.6c0.3-0.7,0.4-1.3,0.4-1.8c0-0.4,0-0.7,0-0.7s0-0.2,0-0.5c0-0.5-0.1-1.4-0.5-2.2
				c-0.2-0.4-0.5-0.8-0.8-1.1c-0.4-0.4-1-0.8-1.6-1c-1.1-0.5-2.4-0.7-3.4-0.8c-0.5,0-0.9,0-1.2,0C186,16.3,181.4,16.3,181.4,16.3
				L181.4,16.3z"/>
			<path class="st1" d="M173.1,9.2V55h17.3c0,0,8.4,0.2,13.1-4.4c3.8-3.8,3.5-8.2,3.5-8.2s0.3-4.6-3.2-8.1c-3-3-6.8-3.8-6.8-3.8
				s1.7-0.8,3-2.1c0.6-0.6,2.8-2.6,2.8-7.4c0-4.9-3.2-7.7-3.2-7.7S196,9.2,188,9.2H173.1L173.1,9.2z M155.4,0.2h67.7v63.7h-67.7V0.2
				L155.4,0.2z"/>
		</g>
	</g>
</g>
</svg>
