<?xml version="1.0" encoding="utf-8"?>
<!-- Generator: Adobe Illustrator 26.2.1, SVG Export Plug-In . SVG Version: 6.00 Build 0)  -->
<svg version="1.1" id="Layer_1" xmlns="http://www.w3.org/2000/svg" xmlns:xlink="http://www.w3.org/1999/xlink" x="0px" y="0px"
	 viewBox="0 0 1002 246.4" style="enable-background:new 0 0 1002 246.4;" xml:space="preserve">
<style type="text/css">
	.st0{display:none;}
	.st1{display:inline;fill:#878787;}
	.st2{fill:none;stroke:#FFD203;stroke-width:0.1614;stroke-miterlimit:10;}
	.st3{fill:none;stroke:#171615;stroke-width:0.1614;stroke-miterlimit:10;}
	.st4{fill:#FFFFFF;}
	.st5{fill:#E73337;}
	.st6{fill:#FFE500;}
	.st7{fill:#0C0D0D;}
</style>
<g class="st0">
	<path class="st1" d="M74.5,122.3l2.3,1.2c2.1,1,3.7,1.6,4.7,3.6c0.1,0.5,1.1,5.8,1.8,8c-1.8,0.5-4,0.2-6.1-1
		c-2.5-1.3-4-3.7-4.4-6.1c0-0.1,0-0.3,0-0.3l-0.1-0.7l-1.2-5.6l-0.4-2C72,120.5,73.1,121.5,74.5,122.3 M82.2,85.5
		c-1.9-0.4-3.6-1.7-4.9-3.6c-1.4-2.3-2-5.1-1.2-7.4c0-0.1,0.1-0.3,0.1-0.3l0.3-0.7c0.6-1.8,1-3.7,1.4-5.5l0.6-2
		c0.4,1.5,1,2.9,1.8,4.2l1.6,2.1c1.5,1.8,2.5,3.1,2.5,5.2C84,78.1,82.7,83.3,82.2,85.5 M79.8,110.3c-1.9,0-4-0.8-5.7-2.4
		c-1.9-1.9-3-4.5-2.9-6.9c0-0.1,0-0.3,0-0.3l0-0.8c0.2-1.9,0.2-3.8,0.1-5.7l0.1-2.1c0.8,1.3,1.7,2.6,2.9,3.7l2,1.7
		c1.8,1.4,3.1,2.4,3.6,4.5C80,102.7,79.6,108.1,79.8,110.3 M87.5,78.6c1.2-1.7,2.9-2.1,5.1-2.5l2.4-0.5c1.4-0.4,2.7-0.9,4-1.5
		l-0.8,1.5c-0.7,1.3-1.4,2.7-1.9,4.2l-0.2,0.6l-0.1,0.2c-0.7,1.9-2.2,3.6-4.6,4.7c-2,1-4.2,1.3-6,0.9C86.1,84.1,87.3,79,87.5,78.6
		 M86.4,57.3c-1-2.6-0.7-5.4,0.6-7.5c0-0.1,0.1-0.2,0.1-0.2l0.4-0.7l2.7-5l1-1.8c0.1,1.5,0.3,3.1,0.8,4.5l1,2.4
		c1,2.1,1.8,3.6,1.2,5.7c-0.3,0.4-3,5.2-3.9,7.2C88.7,61.1,87.2,59.5,86.4,57.3 M97.2,56.4c1.6-1.4,3.2-1.4,5.5-1.3l2.6,0.1
		c1.5,0,2.9-0.2,4.2-0.5l-1.1,1.3c-1.1,1.1-2.1,2.3-2.9,3.7l-0.3,0.5l-0.1,0.2c-1,1.7-3.1,3-5.6,3.6c-2.1,0.5-4.3,0.3-6-0.5
		C94.4,61.4,96.9,56.8,97.2,56.4 M101.1,35.5c-0.3-2.7,0.6-5.4,2.3-7.2l0.2-0.2l0.5-0.5c1.4-1.3,2.6-2.8,3.8-4.3l1.4-1.5
		c-0.3,1.5-0.4,3.1-0.2,4.6l0.4,2.6c0.5,2.3,0.8,3.9-0.2,5.8c-0.3,0.4-4.1,4.4-5.4,6.2C102.4,39.7,101.3,37.7,101.1,35.5
		 M111.7,37.1c1.8-1,3.5-0.6,5.7,0l2.4,0.6c1.5,0.3,2.8,0.4,4.2,0.5l-1.4,1c-1.2,0.9-2.5,1.8-3.7,2.9l-0.4,0.4l-0.2,0.2
		c-1.3,1.5-3.6,2.3-6.2,2.2c-2.2-0.1-4.2-0.7-5.7-1.9C107.8,41.3,111.4,37.5,111.7,37.1 M120.4,17.6c0.3-2.7,1.8-5.2,3.9-6.5
		l0.2-0.1l0.7-0.4l4.6-3.3l1.7-1.1c-0.6,1.4-1.1,2.9-1.3,4.4l-0.2,2.6c-0.1,2.4-0.1,4-1.5,5.7c-0.5,0.2-4.9,3.3-6.7,4.7
		C120.7,22,120.1,19.9,120.4,17.6 M135.9,22.9l2.2,1.2c1.3,0.7,2.7,1.1,4,1.5l-1.6,0.7c-1.5,0.5-2.9,1.1-4.2,2l-0.5,0.3l-0.2,0.1
		c-1.7,1-4.1,1.3-6.6,0.7c-2.1-0.5-4-1.7-5.2-3.1c1.7-1.3,6-4.4,6.5-4.6C132.5,21.1,134,21.8,135.9,22.9 M139.7,12.2
		c0.1-2.4,4.2-6,6.8-7.1c1.6-0.7,3.4-1,5.4-1.3l2.1-0.4c0,0,1.7-0.5,2.5-0.7c-0.6,1.1-1.1,2.2-1.7,3.3c-1.4,2.9-2.7,5.6-5.1,7.6
		c-1.7,1.4-6.1,2-8.5,0.8C140.1,14,139.7,13.3,139.7,12.2L139.7,12.2z M83.4,102.3c0.6-2,2.2-2.7,4.3-3.6l2.3-1.1
		c1.3-0.7,2.5-1.5,3.5-2.3l-0.3,1.6c-0.4,1.5-0.8,3-1,4.5l0,0.6v0.2c-0.1,2-1.3,4-3.4,5.7c-1.7,1.4-3.6,2.2-5.6,2.3
		C83,108.1,83.4,102.9,83.4,102.3 M88.1,121.9l2-1.6c1.1-1,2.1-2,2.9-3.1l0,1.7c0,1.5-0.2,3.1,0.2,4.6l0.1,0.6l0,0.2
		c0.4,1.9-0.5,4.3-1.9,6.3c-1.3,1.7-3.1,3-4.9,3.5c-0.7-2.1-1.6-7.2-1.7-7.7C85.1,124.4,86.3,123.3,88.1,121.9 M92.3,158.3
		c-1.7,0.9-3.8,1.1-6.1,0.4c-2.6-0.8-4.9-2.6-5.8-4.9c0-0.1-0.1-0.3-0.1-0.3l-0.3-0.7c-0.7-1.8-1.8-3.4-2.5-5.1l-0.8-1.9
		c1.3,0.9,2.6,1.6,4.1,2.1l2.6,0.6c2.3,0.4,4,0.7,5.3,2.4C88.8,151.5,91.2,156.3,92.3,158.3 M94,144.4l1.5-2
		c0.9-1.2,1.6-2.5,2.1-3.7l0.4,1.6c0.2,1.5,0.7,3,1.3,4.5l0.3,0.6l0.1,0.2c0.7,1.9,0.6,4.2-0.4,6.6c-0.9,2-2.3,3.6-4,4.6
		c-1-1.9-3.4-6.6-3.5-7.1C91.6,147.5,92.6,146.1,94,144.4 M106.6,178.8c-1.4,1.2-3.6,2-5.9,1.8c-2.7-0.2-5.3-1.5-6.8-3.4l-0.2-0.2
		l-0.4-0.6c-1.1-1.6-2.4-3-3.6-4.4l-1.3-1.6c1.4,0.6,3,0.9,4.5,1h2.6c2.3-0.1,4-0.2,5.7,1.1C101.7,172.8,105,177.1,106.6,178.8
		 M105,164.9l1-2.3c0.6-1.4,0.8-2.7,1.2-4l0.8,1.5c0.7,1.4,1.4,2.8,2.3,4.1l0.4,0.5l0.1,0.2c1.2,1.6,1.7,3.9,1.2,6.5
		c-0.4,2.2-1.4,4-2.8,5.3c-1.5-1.6-4.7-5.8-5.1-6.1C103.4,168.5,104.1,166.9,105,164.9 M118.7,190.5c0.4,0.4,4.6,3.7,6.5,5
		c-1.1,1.5-3,2.7-5.3,3.1c-2.8,0.6-5.4-0.3-7.4-1.8l-0.2-0.2l-0.6-0.5l-4.6-3.4l-1.6-1.3c1.5,0.2,3.1,0.2,4.6-0.1l2.5-0.6
		C115,190.2,116.7,189.6,118.7,190.5 M120.5,182.3l0.5-2.5c0.2-1.5,0.3-2.9,0.2-4.2l1.1,1.3c0.9,1.2,1.9,2.5,3.1,3.5l0.5,0.4
		l0.2,0.1c1.6,1.2,2.4,3.6,2.6,6c0.1,2.2-0.4,4.3-1.5,5.8c-1.9-1.2-6-4.5-6.3-4.8C119.8,186.1,120,184.5,120.5,182.3 M139.8,204
		c0.4,0.4,5.4,2.4,7.5,3.3c-0.7,1.7-2.2,3.3-4.4,4.2c-2.5,1-5.4,1.2-7.6,0c-0.1-0.1-0.2-0.1-0.2-0.1l-0.7-0.4
		c-1.7-0.9-3.5-1.5-5.2-2.3l-1.9-0.9c1.5-0.2,3-0.5,4.5-1.1l2.4-1.2C136.2,204.5,137.7,203.6,139.8,204 M138.7,189l1.3,1
		c1.2,1,2.5,1.8,3.9,2.6l0.6,0.3l0.2,0.1c1.8,1,3.3,2.7,4,5.2c0.6,2.1,0.6,4.3-0.1,6c-2-0.9-6.9-2.9-7.3-3.2
		c-1.5-1.5-1.6-3.1-1.7-5.4l-0.1-2.5C139.3,191.7,139.1,190.3,138.7,189 M225.8,198.2c0.7-2.5,2.2-4.2,4-5.2l0.2-0.1l0.6-0.3
		c1.4-0.7,2.7-1.6,3.9-2.6l1.3-1c-0.4,1.3-0.6,2.7-0.8,4.2l-0.1,2.5c-0.1,2.2-0.2,3.9-1.7,5.4c-0.4,0.4-5.3,2.3-7.3,3.2
		C225.2,202.4,225.2,200.3,225.8,198.2 M240.3,205.6l2.4,1.2c1.5,0.6,2.9,0.9,4.5,1.1l-1.9,0.9c-1.7,0.8-3.6,1.4-5.3,2.3l-0.7,0.4
		c0,0-0.2,0.1-0.2,0.1c-2.1,1.2-5.1,1-7.6,0c-2.1-0.9-3.7-2.5-4.4-4.2c2.1-0.9,7.1-3,7.5-3.3C236.8,203.6,238.2,204.5,240.3,205.6
		 M245.7,186.8c0.2-2.5,1-4.8,2.6-6l0.2-0.1l0.5-0.4c1.2-1,2.2-2.3,3.1-3.5l1.1-1.3c-0.1,1.3,0,2.8,0.2,4.2l0.5,2.5
		c0.5,2.3,0.7,3.8-0.4,5.6c-0.4,0.4-4.5,3.6-6.3,4.8C246.1,191.1,245.6,189,245.7,186.8 M255.7,190.5c2-0.9,3.7-0.3,5.9,0.3l2.5,0.6
		c1.5,0.2,3.1,0.2,4.6,0.1l-1.6,1.3l-4.5,3.4l-0.6,0.5l-0.2,0.2c-1.9,1.5-4.6,2.3-7.4,1.8c-2.3-0.4-4.2-1.6-5.3-3.1
		C251.1,194.2,255.3,190.8,255.7,190.5 M262.5,171.2c-0.5-2.6-0.1-4.9,1.2-6.5l0.1-0.2l0.4-0.5c0.9-1.3,1.6-2.7,2.3-4.1l0.8-1.5
		c0.3,1.4,0.6,2.7,1.2,4l1,2.3c1,2,1.6,3.6,0.9,5.6c-0.3,0.4-3.5,4.5-5.1,6.1C263.9,175.2,262.9,173.4,262.5,171.2 M273.1,172.5
		c1.7-1.3,3.4-1.2,5.7-1.1h2.6c1.6-0.1,3.2-0.4,4.5-1l-1.3,1.6c-1.2,1.4-2.5,2.8-3.6,4.4l-0.4,0.6l-0.2,0.2
		c-1.5,1.9-4.1,3.2-6.8,3.4c-2.3,0.2-4.4-0.6-5.9-1.8C269.4,177.1,272.7,172.8,273.1,172.5 M275.1,152.1c-1-2.3-1.1-4.7-0.4-6.6
		l0.1-0.2l0.3-0.6c0.6-1.5,1.1-2.9,1.3-4.5l0.4-1.6c0.6,1.2,1.3,2.5,2.2,3.7l1.5,2c1.4,1.8,2.4,3.1,2.2,5.2
		c-0.1,0.5-2.4,5.2-3.5,7.1C277.4,155.8,276,154.1,275.1,152.1 M285.7,150.9c1.4-1.7,3-2,5.3-2.4l2.6-0.6c1.5-0.5,2.8-1.2,4.1-2.1
		l-0.8,1.9c-0.8,1.7-1.8,3.3-2.5,5.1l-0.3,0.7c0,0-0.1,0.2-0.1,0.3c-0.9,2.3-3.1,4.1-5.8,4.9c-2.2,0.7-4.4,0.5-6.1-0.4
		C283.2,156.3,285.6,151.5,285.7,150.9 M287.9,134.2c-1.8-0.5-3.6-1.8-4.9-3.5c-1.5-2-2.4-4.3-2-6.3l0-0.2l0.1-0.6
		c0.4-1.5,0.2-3.1,0.2-4.6l0-1.7c0.8,1.1,1.8,2.1,2.9,3.1l2,1.6c1.9,1.4,3,2.4,3.3,4.5C289.5,127,288.6,132.1,287.9,134.2 M293,127
		c0.9-1.9,2.6-2.6,4.7-3.6l2.3-1.2c1.3-0.8,2.5-1.8,3.6-2.9l-0.4,2l-1.2,5.6l-0.1,0.7c0,0,0,0.2-0.1,0.3c-0.5,2.4-2,4.8-4.4,6.1
		c-2,1.2-4.2,1.5-6.1,1C291.9,132.9,292.9,127.6,293,127 M290.2,77.6c-0.1-2.1,1-3.4,2.5-5.2l1.6-2.1c0.9-1.3,1.4-2.7,1.8-4.2l0.6,2
		c0.4,1.8,0.8,3.7,1.3,5.5l0.3,0.7c0,0,0.1,0.2,0.1,0.3c0.8,2.3,0.2,5.2-1.2,7.4c-1.3,1.9-3,3.2-4.9,3.6
		C291.7,83.3,290.4,78.1,290.2,77.6 M291.2,110.3c-1.9-0.1-3.9-0.9-5.6-2.3c-2-1.6-3.3-3.7-3.4-5.7l0-0.2l0-0.6
		c-0.2-1.6-0.6-3.1-1-4.5l-0.4-1.6c1,0.8,2.2,1.7,3.5,2.3l2.3,1.1c2.1,0.9,3.7,1.7,4.3,3.6C291,102.9,291.4,108.1,291.2,110.3
		 M282.9,85.3c-2.4-1.1-3.9-2.9-4.6-4.7l-0.1-0.2l-0.2-0.6c-0.5-1.5-1.2-2.9-1.9-4.2l-0.8-1.5c1.3,0.6,2.6,1.1,4,1.5l2.4,0.5
		c2.2,0.4,3.8,0.8,5.1,2.5c0.2,0.5,1.5,5.5,2,7.7C287.1,86.6,284.9,86.3,282.9,85.3 M280.2,54.7c-0.5-2.1,0.3-3.6,1.2-5.7l1-2.4
		c0.5-1.5,0.7-3,0.8-4.5l1,1.8l2.7,5l0.4,0.7c0,0,0.1,0.2,0.1,0.2c1.2,2.1,1.6,4.9,0.6,7.5c-0.8,2.2-2.2,3.8-3.9,4.7
		C283.1,59.9,280.5,55.1,280.2,54.7 M274.9,63.9c-2.4-0.6-4.5-1.8-5.6-3.6l-0.1-0.2l-0.3-0.5c-0.7-1.4-1.8-2.5-2.9-3.7l-1.1-1.3
		c1.3,0.3,2.7,0.5,4.2,0.5l2.6-0.1c2.3-0.1,3.9-0.1,5.4,1.3c0.3,0.4,2.9,5,3.7,7C279.2,64.2,277.1,64.4,274.9,63.9 M265.2,34.7
		c-1-1.9-0.7-3.5-0.2-5.8l0.4-2.6c0.2-1.5,0.1-3.2-0.2-4.6l1.4,1.5c1.2,1.5,2.4,3,3.8,4.3l0.6,0.5l0.2,0.2c1.7,1.8,2.5,4.5,2.3,7.2
		c-0.2,2.3-1.3,4.2-2.8,5.4C269.2,39.1,265.5,35.1,265.2,34.7 M262.2,44.9c-2.6,0.1-4.9-0.7-6.2-2.2l-0.2-0.2l-0.4-0.4
		c-1.1-1.1-2.4-2-3.7-2.9l-1.3-1c1.4-0.1,2.8-0.1,4.2-0.5l2.4-0.6c2.2-0.6,3.8-1,5.7,0c0.3,0.4,3.9,4.2,5.2,6
		C266.4,44.2,264.4,44.8,262.2,44.9 M245.8,18.8c-1.4-1.6-1.4-3.3-1.5-5.7l-0.2-2.6c-0.2-1.5-0.7-3-1.3-4.4l1.7,1.1l4.7,3.3l0.6,0.4
		l0.2,0.1c2.1,1.3,3.6,3.7,3.9,6.5c0.3,2.3-0.3,4.4-1.4,5.9C250.8,22.1,246.4,19,245.8,18.8 M245.3,29.4c-2.5,0.6-4.9,0.3-6.6-0.7
		l-0.2-0.1l-0.5-0.3c-1.3-0.9-2.7-1.5-4.2-2l-1.6-0.7c1.3-0.3,2.7-0.8,4-1.5l2.2-1.2c2-1.1,3.5-1.8,5.5-1.2c0.5,0.2,4.8,3.2,6.5,4.6
		C249.3,27.7,247.4,28.8,245.3,29.4 M234.7,12.3c0,1-0.5,1.7-1.4,2.2c-2.4,1.2-6.9,0.5-8.5-0.8c-2.5-2-3.8-4.7-5.1-7.6
		c-0.5-1.1-1.1-2.2-1.7-3.3c0.8,0.2,2.5,0.7,2.5,0.7l2.1,0.4c1.9,0.3,3.8,0.6,5.4,1.3C230.5,6.2,234.6,9.8,234.7,12.3L234.7,12.3z
		 M294.5,102.2c0.6-2.1,1.8-3.1,3.7-4.5l2-1.7c1.1-1.1,2-2.3,2.8-3.7l0.1,2.1c0,1.9-0.1,3.8,0.1,5.7l0,0.8c0,0,0,0.2,0,0.3
		c0.1,2.4-1,5.1-2.9,6.9c-1.7,1.6-3.8,2.4-5.7,2.4C294.9,108.1,294.4,102.7,294.5,102.2 M84.3,136.7c1.1,3.9,2.4,7.8,3.9,11.5
		c-2.1-1.3-4.6-1.3-7-2.1c-2.9-1-6.6-3.2-8.1-6.5c0,5.2,3.7,9.9,5.6,14.6c2.3,6.1,10.3,8.6,15,5.5c2,3.5,4.1,7,6.5,10.2
		c-2.3-0.7-4.7-0.2-7.3-0.4c-3.2-0.2-7-1.7-9.4-4.4c1.3,5,6,8.7,8.8,12.9c3.8,5.3,12,5.9,15.9,1.8c2.7,3,5.7,5.8,8.7,8.5
		c-2.4-0.2-4.6,0.8-7.2,1.2c-3.2,0.5-7.3,0-10.2-2.2c2.4,4.6,7.8,7.1,11.6,10.5c4.8,4.4,13.1,3,15.9-1.8c3.3,2.3,6.8,4.3,10.5,6.2
		c-2.4,0.4-4.3,2-6.7,2.9c-2.9,1.1-7.1,1.7-10.4,0.2c3.4,3.9,9.2,5.2,13.7,7.6c5.8,3.1,13.5-0.1,15-5.5c3.9,1.5,7.8,2.7,11.9,3.7
		l6.2,1.5c3.8,0.9,8.8,2.3,14.3,4c-14.3,3.6-29.4,7.8-36,11.2l5.9,4c6.9-3.6,22-9.1,35.6-13.4c13.7,4.4,28.7,9.9,35.6,13.4l5.9-4
		c-6.6-3.4-21.6-7.6-36-11.2c5.5-1.7,10.5-3.1,14.3-4l6.2-1.5c4.1-1,8.1-2.3,11.9-3.7c1.5,5.4,9.3,8.6,15,5.5
		c4.5-2.4,10.4-3.6,13.7-7.6c-3.3,1.5-7.5,0.9-10.4-0.2c-2.4-1-4.3-2.5-6.7-2.9c3.6-1.9,7.1-4,10.5-6.2c2.8,4.8,11.1,6.3,15.9,1.8
		c3.8-3.4,9.2-5.9,11.6-10.5c-2.9,2.2-7,2.7-10.2,2.2c-2.6-0.4-4.7-1.4-7.2-1.2c3.1-2.6,6-5.5,8.7-8.5c3.9,4.1,12.2,3.5,15.9-1.8
		c2.9-4.2,7.5-7.9,8.8-12.9c-2.4,2.7-6.2,4.2-9.4,4.4c-2.6,0.2-5-0.3-7.3,0.4c2.4-3.3,4.5-6.7,6.5-10.2c4.7,3.1,12.7,0.7,15-5.5
		c1.9-4.7,5.6-9.4,5.6-14.6c-1.5,3.3-5.2,5.5-8.1,6.5c-2.4,0.8-4.9,0.8-7,2.1c1.5-3.7,2.8-7.6,3.9-11.5c5.3,1.9,12.6-2.3,13.4-8.8
		c0.7-5,3.2-10.4,2-15.5c-0.8,3.5-3.6,6.6-6.4,8.2c-2.3,1.4-4.6,2-6.4,3.8c0.6-4,1-8.1,1.2-12.2c5.6,0.7,11.6-5.1,11-11.6
		c-0.6-5.1,0.7-10.9-1.7-15.5c-0.1,3.6-1.9,7.2-4.3,9.4c-1.9,1.9-4,3-5.3,5.1c-0.3-4.1-0.9-8.1-1.7-12.1c5.6-0.6,10.1-7.6,8-13.8
		c-1.7-4.8-1.9-10.7-5.2-14.7c0.9,3.5-0.3,7.5-1.9,10.2c-1.4,2.2-3.3,3.8-4,6.1c-1.3-3.8-2.7-7.6-4.4-11.3c5.2-1.9,8.1-9.8,4.4-15.3
		c-2.7-4.3-4.3-10-8.5-13.1c1.7,3.2,1.5,7.3,0.5,10.3c-0.8,2.4-2.2,4.4-2.4,6.8c-2.1-3.4-4.5-6.7-7-9.9c4.7-3.2,5.5-11.4,0.8-15.9
		c-3.7-3.5-6.6-8.7-11.4-10.8c2.3,2.8,3.2,6.8,2.9,10c-0.3,2.6-1.2,4.8-0.8,7.2c-2.9-2.8-5.9-5.5-9.1-8c3.8-4.1,2.8-12.3-2.9-15.6
		c-4-2.6-9.1-7.2-12.8-7.7c2.4,2.1,3.7,5.6,4.4,8.9c0.4,2.6,0,5,1,7.3c-2.3-1.4-4.7-2.7-7.2-4c0.2-0.5,0.3-1.1,0.3-1.7
		c-0.1-3.3-5-7.4-7.8-8.6c-2.5-1-5.3-1.3-7.9-1.8c-2.3-0.4-4.6-1.6-6.8-1.8c4.1,4.5,4.7,11,9.7,15c2.4,1.9,8.4,2.7,11.3,0.5
		c2.5,1.3,5,2.7,7.4,4.2c-2.5,0.1-4.4,1.7-6.7,2.9c-2.5,1.5-6.4,2.2-9.6,1.3c4.1,3.8,8,3.4,11.6,6.1c4.1,2.8,11.5,1.4,14.8-3.3
		c3.2,2.5,6.3,5.3,9.2,8.1c-2.5-0.5-4.8,0.6-7.3,1.2c-3,0.7-6.7,0.9-9.2-0.3c2.2,3.5,6.7,4.9,9.5,8c3.3,3.7,10.9,4,15.1,0.2
		c2.6,3.2,4.9,6.6,7.1,10.1c-2.3-1.1-4.8-0.5-7.4-0.5c-3,0-6.6-0.7-8.9-2.4c1.4,3.8,5.4,6.3,7.4,9.9c2.4,4.3,9.7,6.4,14.7,3.7
		c1.7,3.7,3.2,7.5,4.5,11.4c-2-1.5-4.5-1.6-7-2.2c-3.1-0.7-6.3-2.2-8.1-4.4c0.4,4.1,3.8,7.4,4.8,11.4c1.2,4.7,7.9,8.4,13.4,7
		c0.8,3.9,1.3,8,1.7,12c-1.6-1.9-4.1-2.5-6.3-3.7c-2.6-1.4-5.7-3.6-6.8-6.2c-0.5,4,1.9,8,2.1,12.2c0.1,4.9,5.7,10.1,11.3,9.9
		c-0.1,4.1-0.5,8.1-1.1,12c-1.1-2.2-3.4-3.3-5.3-5c-2.3-2-4.5-4.8-5.2-7.6c-1.4,3.8,0,8.3-0.8,12.3c-0.9,4.8,3.2,11.1,8.8,12.2
		c-1.1,3.9-2.4,7.8-3.9,11.5c-0.5-2.4-2.4-4-3.9-6.1c-1.9-2.5-3.2-5.7-3.3-8.6c-2.3,3.3-1.9,8.1-3.7,11.8
		c-2.1,4.4,0.6,11.5,5.7,13.9c-2,3.6-4.2,7.1-6.6,10.4c0.1-2.5-1.4-4.6-2.4-7c-1.1-2.8-2-6.4-1.2-9.1c-3.1,2.7-3.8,7.4-6.4,10.6
		c-3.2,3.8-2.2,11.4,2.3,14.9c-2.8,3-5.7,5.9-8.8,8.5c0.6-2.4-0.4-4.8-0.8-7.3c-0.4-3-0.4-6.6,1-9.1c-3.6,2-5.4,6.3-8.7,8.9
		c-3.8,3.1-4.8,10.5-1.2,15c-3.4,2.3-6.9,4.4-10.6,6.2c1.2-2.2,0.8-4.6,1-7.2c0.2-3.1,1.2-6.5,3-8.7c-4,1.1-6.7,4.9-10.5,6.6
		c-4.5,2-7.1,9.1-4.7,14.3c-3.8,1.4-7.7,2.7-11.7,3.7l-6.1,1.5c-4.9,1.1-11.9,2.8-19.4,4.6c-7.5-1.8-14.4-3.4-19.4-4.6l-6.1-1.5
		c-4-1-7.9-2.2-11.8-3.7c2.3-5.1-0.3-12.3-4.7-14.3c-3.8-1.7-6.5-5.5-10.5-6.6c1.9,2.2,2.9,5.5,3,8.7c0.2,2.6-0.2,5,1,7.2
		c-3.7-1.9-7.2-4-10.6-6.2c3.5-4.5,2.6-11.9-1.2-15c-3.3-2.5-5.1-6.9-8.7-8.9c1.3,2.5,1.4,6.2,0.9,9.1c-0.4,2.5-1.4,4.9-0.8,7.3
		c-3.1-2.7-6-5.5-8.8-8.5c4.4-3.5,5.4-11.1,2.3-14.9c-2.6-3.2-3.3-7.9-6.4-10.6c0.8,2.7,0,6.3-1.2,9.1c-1,2.4-2.4,4.4-2.4,7
		c-2.4-3.3-4.6-6.8-6.6-10.4c5.1-2.4,7.8-9.5,5.7-13.9c-1.8-3.7-1.4-8.4-3.7-11.8c-0.1,2.9-1.4,6.1-3.3,8.6c-1.6,2.1-3.4,3.7-4,6.1
		c-1.5-3.7-2.8-7.6-3.9-11.5c5.6-1.2,9.7-7.4,8.8-12.2c-0.9-4,0.6-8.5-0.8-12.3c-0.7,2.8-2.9,5.6-5.2,7.6c-1.9,1.6-4.2,2.8-5.3,5
		c-0.6-3.9-1-8-1.1-12c5.7,0.2,11.3-5,11.3-9.9C94,98,96.5,94,95.9,90c-1.2,2.6-4.2,4.8-6.8,6.2c-2.2,1.2-4.7,1.8-6.3,3.7
		c0.3-4.1,0.9-8.1,1.7-12c5.4,1.4,12.1-2.3,13.4-7c1-4,4.4-7.3,4.8-11.4c-1.8,2.2-5.1,3.7-8.1,4.4c-2.5,0.6-5,0.7-7,2.2
		c1.3-3.9,2.8-7.7,4.5-11.4c5,2.7,12.3,0.6,14.7-3.7l7.4-9.9c-2.3,1.7-5.9,2.4-8.9,2.4c-2.6,0-5.1-0.6-7.4,0.5
		c2.2-3.5,4.5-6.9,7.1-10.1c4.2,3.8,11.9,3.5,15.1-0.2c2.8-3.1,7.3-4.5,9.5-8c-2.5,1.3-6.2,1-9.2,0.3c-2.5-0.6-4.8-1.7-7.3-1.2
		c2.9-2.9,6-5.6,9.2-8.1c3.3,4.7,10.7,6,14.8,3.3c3.6-2.6,7.5-2.3,11.6-6.1c-3.2,0.9-7.1,0.2-9.6-1.3c-2.3-1.2-4.3-2.7-6.7-2.9
		c2.4-1.5,4.9-2.9,7.4-4.1c2.9,2.2,8.9,1.4,11.2-0.5c5-4,5.6-10.5,9.7-15c-2.2,0.2-4.5,1.3-6.8,1.8c-2.6,0.5-5.4,0.7-7.9,1.8
		c-2.9,1.2-7.7,5.3-7.8,8.6c0,0.7,0.1,1.3,0.3,1.8c-2.4,1.2-4.8,2.6-7.1,4c0.9-2.3,0.6-4.7,1-7.3c0.7-3.2,2-6.8,4.4-8.9
		c-3.7,0.5-8.8,5.1-12.8,7.7c-5.7,3.3-6.8,11.6-2.9,15.6c-3.2,2.5-6.2,5.2-9.1,8c0.3-2.3-0.6-4.6-0.8-7.2c-0.3-3.2,0.6-7.1,2.9-10
		c-4.8,2.1-7.7,7.3-11.3,10.8c-4.7,4.5-3.9,12.7,0.8,15.9c-2.5,3.2-4.8,6.5-7,9.9c-0.2-2.4-1.6-4.3-2.4-6.8c-1-3-1.2-7.2,0.5-10.3
		c-4.2,3.1-5.8,8.8-8.5,13.1C82,54,84.9,62,90.1,63.9c-1.7,3.7-3.2,7.4-4.4,11.3c-0.8-2.3-2.6-3.9-4-6.1c-1.6-2.6-2.8-6.6-1.9-10.2
		c-3.3,4-3.6,9.9-5.2,14.7c-2.1,6.2,2.3,13.2,8,13.8c-0.8,4-1.3,8-1.7,12.1c-1.3-2.1-3.4-3.2-5.3-5.1c-2.4-2.2-4.3-5.8-4.3-9.4
		c-2.4,4.7-1.1,10.5-1.7,15.5c-0.6,6.5,5.4,12.3,11,11.6c0.2,4.1,0.6,8.2,1.2,12.2c-1.7-1.8-4-2.4-6.4-3.8c-2.8-1.6-5.6-4.7-6.4-8.2
		c-1.3,5.1,1.3,10.4,2,15.5C71.7,134.4,79,138.6,84.3,136.7"/>
	<path class="st1" d="M188.4,117.3c8.5,10.7,11.6,17.3,11.4,22c-0.2,5-2.9,9-5.6,14.4c-2.8,5.6-5.5,13.7-4.5,20.4
		c1-2.2,1.6-4.2,2.2-6.1c0.8-3,1.6-5.8,3.8-8.7c2.6-3.3,6.3-4.8,10.5-4.7c5.7,0,9.8,3.4,9.6,9.4c-0.3,7.7-7.1,8.9-10.3,9.6
		c-0.9,0.2-1.5,1.2-1.5,2.9c-1-0.2-1.3-0.8-1.4-1.5c-0.1-1.1,0.8-2.3,1.6-3.2c0.6-0.8,1-1.6,1.1-2.4c0.2-2.1-1.4-3.9-4-3.8
		c-3.7,0.2-7.3,3.3-10.1,9.1c-0.3,0.5-0.4,1.5-0.5,2.5h0.4c1.1,0,1.9,0.8,1.9,1.8v0c0,1-0.9,1.8-1.9,1.8h-0.7v0.5
		c0,0.4-0.1,0.8-0.3,1.1c1.8,0.4,3.9,0.2,5.9,1.3c1.5,0.7,1.9,1.9,2.5,2.8c0.4,0.7,1.2,1.3,2.4,1.4c1.5,0.1,3.2-0.7,3.9-1.2
		c-0.3,3-2.8,5.2-6,5.3c-4.8,0.2-4.3-3.6-7-6.5c-0.6-0.6-1.8-1.2-2.6-1.9c-0.1-0.1-0.7-0.7-0.7-0.7c0,0-0.5,0.6-0.6,0.7
		c-0.8,0.7-2.1,1.3-2.7,1.9c-2.7,2.9-2.2,6.7-7,6.5c-3.2-0.1-5.7-2.3-6-5.3c0.7,0.5,2.4,1.3,3.9,1.2c1.2-0.1,2-0.7,2.5-1.4
		c0.6-0.9,1-2,2.5-2.8c2-1,4.1-0.8,5.9-1.3c-0.2-0.3-0.3-0.7-0.3-1.1v-0.5h-0.7c-1.1,0-1.9-0.8-1.9-1.8c0-1,0.9-1.8,1.9-1.8h0.4
		c0-1-0.2-1.9-0.5-2.5c-2.8-5.8-6.4-8.9-10.1-9.1c-2.6-0.1-4.2,1.7-4,3.8c0.1,0.8,0.4,1.7,1.1,2.4c0.8,0.9,1.7,2.1,1.6,3.2
		c-0.1,0.7-0.4,1.3-1.4,1.5c0.1-1.7-0.6-2.7-1.5-2.9c-3.2-0.7-10-1.9-10.3-9.6c-0.2-5.9,3.9-9.4,9.6-9.4c4.1,0,7.9,1.5,10.5,4.7
		c2.3,2.9,3,5.7,3.9,8.7c0.5,1.9,1.1,3.9,2.1,6.1c0.9-6.7-1.7-14.8-4.5-20.4c-2.7-5.4-5.4-9.4-5.6-14.4
		C176.9,134.5,179.9,128,188.4,117.3 M174.8,139.4c0.2,4.6,2.2,8.3,4.4,12.6l1.4,2.7c0.3,0.5,0.5,1.1,0.8,1.7
		c-2.8-2.6-6.4-4.1-10.7-4c-3.6,0-6.8,1.2-8.9,3.4c-1.9,2-2.9,4.7-2.9,7.7c0,0.2,0,0.3,0,0.5c0.3,9.1,8.2,10.8,11.6,11.6l0,0
		c0,0.1,0.1,0.2,0.1,0.6c0,0-0.1,2.9-0.1,2.9l2.7-0.5c1.8-0.3,3-1.6,3.2-3.5c0.2-2.1-1.3-3.9-2.1-4.8c-0.3-0.4-0.5-0.8-0.5-1.2
		c0-0.4,0.1-0.7,0.3-1c0.3-0.3,0.8-0.4,1.4-0.4c2.9,0.1,5.8,3,8.1,7.8c-1.2,0.7-2,1.9-2,3.4c0,0.7,0.2,1.3,0.5,1.9
		c-0.7,0.2-1.5,0.4-2.2,0.8c-1.8,0.9-2.6,2.2-3.1,3.1l-0.3,0.5c-0.2,0.3-0.5,0.4-0.7,0.4c-0.8,0-2-0.5-2.5-0.8l-4-2.6l0.5,4.7
		c0.4,4.1,3.9,7.1,8.2,7.3c4.6,0.2,6.1-2.7,7.2-4.7c0.5-0.9,0.9-1.8,1.6-2.5l0.9-0.6c0,0,0.4-0.3,0.7-0.5c0.4,0.3,0.7,0.5,0.7,0.5
		l0.9,0.6c0.7,0.7,1.1,1.6,1.6,2.5c1.1,2.1,2.5,4.9,7.2,4.7c4.3-0.2,7.8-3.3,8.2-7.3l0.5-4.7l-4,2.6c-0.6,0.4-1.8,0.9-2.5,0.8
		c-0.2,0-0.5-0.1-0.7-0.4c0,0-0.3-0.5-0.3-0.5c-0.5-0.9-1.3-2.2-3.1-3.1c-0.8-0.4-1.5-0.6-2.2-0.8c0.3-0.6,0.6-1.2,0.6-1.9
		c0-1.5-0.8-2.7-2-3.4c2.3-4.8,5.3-7.6,8.1-7.8c0.6,0,1.1,0.1,1.4,0.4c0.2,0.2,0.3,0.6,0.3,1c0,0.4-0.2,0.8-0.5,1.2
		c-0.8,0.9-2.3,2.7-2.1,4.8c0.2,1.9,1.4,3.2,3.2,3.5l2.7,0.5c0,0-0.1-2.9-0.1-2.9c0-0.4,0.1-0.5,0.1-0.6l0,0
		c3.4-0.7,11.3-2.5,11.6-11.6c0-0.2,0-0.3,0-0.5c0-3.1-1-5.8-2.9-7.7c-2.1-2.2-5.3-3.4-8.9-3.4c-4.3,0-7.9,1.4-10.7,4
		c0.3-0.6,0.5-1.2,0.8-1.7l1.4-2.7c2.3-4.3,4.2-8,4.5-12.6c0-0.2,0-0.4,0-0.6c0-5.5-3.7-12.6-11.8-22.9l-1.8-2.2l-1.8,2.2
		c-8.2,10.3-11.9,17.4-11.9,22.9C174.8,139,174.8,139.2,174.8,139.4"/>
	<path class="st1" d="M210.6,75.4c4.1,0,7.9,1.5,10.5,4.7c2.3,2.9,3,5.7,3.9,8.7c0.5,1.9,1.1,3.9,2.2,6.1c0.9-6.7-1.7-14.8-4.5-20.4
		C219.8,69,217.2,65,217,60c-0.2-4.7,2.8-11.3,11.4-22c8.5,10.7,11.6,17.3,11.4,22c-0.2,5-2.9,9-5.6,14.4
		c-2.8,5.6-5.5,13.7-4.5,20.4c1.1-2.2,1.6-4.2,2.1-6.1c0.8-3,1.6-5.8,3.9-8.7c2.6-3.3,6.4-4.8,10.5-4.7c5.7,0,9.8,3.4,9.6,9.4
		c-0.3,7.7-7.1,8.9-10.3,9.6c-0.9,0.2-1.5,1.2-1.5,2.9c-1-0.2-1.3-0.8-1.4-1.5c-0.1-1.1,0.8-2.3,1.6-3.2c0.7-0.8,1-1.6,1.1-2.4
		c0.2-2.1-1.4-3.9-4-3.8c-3.7,0.2-7.3,3.3-10.1,9.1c-0.3,0.5-0.5,1.5-0.5,2.5h0.4c1.1,0,1.9,0.8,1.9,1.8c0,1-0.9,1.8-1.9,1.8h-0.7
		v0.5c0,0.4-0.1,0.8-0.3,1.1c1.8,0.5,3.9,0.2,5.9,1.3c1.5,0.8,1.9,1.9,2.5,2.8c0.4,0.7,1.2,1.3,2.4,1.4c1.5,0.1,3.2-0.7,3.9-1.2
		c-0.3,3-2.8,5.2-6,5.3c-4.8,0.2-4.3-3.6-7-6.5c-0.6-0.6-1.8-1.2-2.6-1.9c-0.1-0.1-0.7-0.7-0.7-0.7c0,0-0.5,0.6-0.6,0.7
		c-0.8,0.7-2.1,1.3-2.6,1.9c-2.7,2.9-2.2,6.7-7,6.5c-3.2-0.1-5.7-2.3-6-5.3c0.7,0.5,2.4,1.3,3.9,1.2c1.2-0.1,2-0.7,2.4-1.4
		c0.6-0.9,1-2,2.5-2.8c2-1,4.1-0.8,5.9-1.3c-0.2-0.3-0.3-0.7-0.3-1.1v-0.5h-0.7c-1.1,0-1.9-0.8-1.9-1.8c0-1,0.9-1.8,1.9-1.8h0.4
		c0-1-0.2-1.9-0.5-2.5c-2.8-5.8-6.4-8.9-10.1-9.1c-2.6-0.1-4.2,1.7-4,3.8c0.1,0.8,0.4,1.7,1.1,2.4c0.8,0.9,1.7,2.1,1.6,3.2
		c-0.1,0.7-0.3,1.3-1.4,1.5c0.1-1.7-0.6-2.7-1.5-2.9c-3.2-0.7-10-1.9-10.3-9.6C200.8,78.8,204.9,75.4,210.6,75.4 M210.3,96.4
		C210.3,96.4,210.4,96.4,210.3,96.4c0.1,0.1,0.1,0.3,0.1,0.6c0,0-0.1,2.9-0.1,2.9l2.8-0.5c1.8-0.3,3-1.6,3.2-3.5
		c0.2-2.1-1.2-3.8-2.1-4.8c-0.3-0.4-0.5-0.8-0.5-1.2c0-0.4,0.1-0.7,0.3-0.9c0.3-0.3,0.8-0.5,1.4-0.4c2.9,0.1,5.8,3,8.1,7.8
		c-1.2,0.7-2,1.9-2,3.4c0,0.7,0.2,1.3,0.6,1.9c-0.7,0.2-1.5,0.4-2.2,0.8c-1.8,0.9-2.6,2.2-3.1,3.1l-0.3,0.5
		c-0.2,0.3-0.5,0.4-0.7,0.4c-0.8,0-2-0.4-2.5-0.8l-4-2.5l0.5,4.7c0.4,4.1,3.9,7.1,8.2,7.3c4.6,0.2,6.1-2.6,7.2-4.7
		c0.5-0.9,0.9-1.8,1.6-2.5l0.9-0.6c0,0,0.4-0.3,0.7-0.5c0.4,0.3,0.7,0.5,0.7,0.5l0.9,0.6c0.7,0.7,1.1,1.6,1.6,2.5
		c1.1,2.1,2.5,4.9,7.2,4.7c4.3-0.2,7.7-3.3,8.2-7.3l0.5-4.7l-4,2.5c-0.6,0.4-1.8,0.9-2.6,0.8c-0.2,0-0.5-0.1-0.7-0.4l-0.3-0.5
		c-0.5-0.9-1.3-2.2-3.1-3.1c-0.8-0.4-1.5-0.6-2.2-0.8c0.3-0.6,0.5-1.2,0.5-1.9c0-1.5-0.8-2.7-2-3.4c2.3-4.8,5.3-7.6,8.1-7.8
		c0.6,0,1.1,0.1,1.4,0.4c0.2,0.2,0.3,0.6,0.3,0.9c0,0.4-0.2,0.8-0.5,1.2c-0.8,0.9-2.3,2.7-2.1,4.8c0.2,1.9,1.4,3.2,3.2,3.5l2.7,0.5
		c0,0-0.1-2.9-0.1-2.9c0-0.4,0.1-0.5,0.1-0.6c0,0,0,0,0,0c3.4-0.7,11.3-2.5,11.6-11.6c0-0.2,0-0.3,0-0.5c0-3.1-1-5.7-2.9-7.7
		c-2.1-2.2-5.3-3.4-8.9-3.5c-4.3,0-7.9,1.4-10.7,4c0.3-0.6,0.5-1.2,0.8-1.7l1.4-2.7c2.3-4.3,4.2-8,4.4-12.6c0-0.2,0-0.4,0-0.6
		c0-5.5-3.7-12.6-11.9-22.9l-1.8-2.2l-1.8,2.2c-8.2,10.3-11.9,17.4-11.9,22.9c0,0.2,0,0.4,0,0.6c0.2,4.6,2.2,8.3,4.4,12.6l1.4,2.7
		c0.3,0.5,0.5,1.1,0.8,1.7c-2.8-2.6-6.4-4.1-10.7-4c-3.6,0-6.8,1.2-8.9,3.5c-1.9,2-2.9,4.7-2.9,7.7c0,0.2,0,0.4,0,0.5
		C199,93.9,206.9,95.7,210.3,96.4"/>
	<path class="st1" d="M149.8,94.9c1-2.2,1.6-4.2,2.1-6.1c0.8-3,1.6-5.8,3.8-8.7c2.6-3.3,6.3-4.8,10.5-4.7c5.7,0,9.8,3.4,9.6,9.4
		c-0.3,7.7-7.1,8.9-10.3,9.6c-0.9,0.2-1.5,1.2-1.5,2.9c-1-0.2-1.3-0.8-1.4-1.5c-0.1-1.1,0.8-2.3,1.6-3.2c0.7-0.8,1-1.6,1.1-2.4
		c0.2-2.1-1.4-3.9-4-3.8c-3.7,0.2-7.3,3.3-10.1,9.1c-0.3,0.5-0.4,1.5-0.5,2.5h0.4c1.1,0,1.9,0.8,1.9,1.8c0,1-0.9,1.8-1.9,1.8h-0.7
		v0.5c0,0.4-0.1,0.8-0.3,1.1c1.8,0.5,3.9,0.2,5.9,1.3c1.5,0.8,1.9,1.9,2.5,2.8c0.5,0.7,1.2,1.3,2.4,1.4c1.5,0.1,3.2-0.7,3.9-1.2
		c-0.3,3-2.8,5.2-6,5.3c-4.8,0.2-4.3-3.6-7-6.5c-0.6-0.6-1.8-1.2-2.6-1.9c-0.1-0.1-0.7-0.7-0.7-0.7s-0.5,0.6-0.6,0.7
		c-0.8,0.7-2.1,1.3-2.6,1.9c-2.7,2.9-2.2,6.7-7,6.5c-3.2-0.1-5.7-2.3-6-5.3c0.7,0.4,2.4,1.3,3.9,1.2c1.2-0.1,2-0.7,2.5-1.4
		c0.6-0.9,1-2,2.5-2.8c2-1,4.1-0.8,5.9-1.3c-0.2-0.3-0.3-0.7-0.3-1.1v-0.5H146c-1.1,0-1.9-0.8-1.9-1.8c0-1,0.9-1.8,1.9-1.8h0.4
		c0-1-0.2-1.9-0.5-2.5c-2.8-5.8-6.4-8.9-10.1-9.1c-2.6-0.1-4.2,1.7-4,3.8c0.1,0.8,0.4,1.7,1.1,2.4c0.8,0.9,1.7,2.1,1.6,3.2
		c-0.1,0.7-0.4,1.3-1.4,1.5c0.1-1.7-0.6-2.7-1.5-2.9c-3.2-0.7-10-1.9-10.3-9.6c-0.2-5.9,3.9-9.4,9.6-9.4c4.1,0,7.9,1.5,10.5,4.7
		c2.3,2.9,3,5.7,3.9,8.7c0.5,1.9,1.1,3.9,2.2,6.1c0.9-6.7-1.7-14.8-4.5-20.4c-2.7-5.4-5.4-9.4-5.6-14.4c-0.2-4.7,2.8-11.3,11.4-22
		c8.5,10.7,11.6,17.3,11.4,22c-0.2,5-2.9,9-5.6,14.4C151.5,80,148.9,88.1,149.8,94.9 M157.7,72.8c2.3-4.3,4.2-8,4.4-12.6
		c0-0.2,0-0.4,0-0.6c0-5.5-3.7-12.6-11.8-22.9l-1.8-2.2l-1.8,2.2C138.6,46.9,135,54,135,59.6c0,0.2,0,0.4,0,0.6
		c0.2,4.6,2.2,8.3,4.4,12.6l1.4,2.7c0.3,0.5,0.5,1.1,0.8,1.7c-2.8-2.6-6.4-4.1-10.7-4c-3.6,0-6.8,1.2-8.9,3.5
		c-1.9,2-2.9,4.7-2.9,7.7c0,0.2,0,0.3,0,0.5c0.3,9.1,8.2,10.8,11.6,11.6c0,0,0,0,0.1,0c0,0.1,0.1,0.2,0.1,0.6c0,0-0.1,2.9-0.1,2.9
		l2.7-0.5c1.8-0.3,3-1.6,3.2-3.5c0.2-2.1-1.3-3.9-2.1-4.8c-0.3-0.4-0.5-0.8-0.5-1.2c0-0.4,0.1-0.7,0.3-0.9c0.3-0.3,0.8-0.5,1.4-0.4
		c2.9,0.1,5.8,3,8.1,7.8c-1.2,0.7-2,1.9-2,3.4c0,0.7,0.2,1.3,0.6,1.9c-0.7,0.2-1.5,0.4-2.2,0.8c-1.8,0.9-2.6,2.2-3.1,3.1l-0.3,0.5
		c-0.2,0.3-0.5,0.4-0.7,0.4c-0.8,0-2-0.5-2.6-0.8l-4-2.5l0.5,4.7c0.4,4.1,3.9,7.1,8.2,7.3c4.6,0.2,6.1-2.6,7.2-4.7
		c0.5-0.9,0.9-1.8,1.6-2.5c0,0,0.9-0.6,0.9-0.6s0.4-0.3,0.7-0.5c0.4,0.3,0.7,0.5,0.7,0.5l0.9,0.6c0.7,0.7,1.1,1.6,1.6,2.5
		c1.1,2.1,2.5,4.9,7.2,4.7c4.3-0.2,7.8-3.3,8.2-7.3l0.5-4.7l-4,2.5c-0.6,0.4-1.7,0.9-2.5,0.8c-0.2,0-0.5-0.1-0.7-0.4
		c0,0-0.3-0.5-0.3-0.5c-0.5-0.9-1.3-2.2-3.1-3.1c-0.8-0.4-1.5-0.6-2.2-0.8c0.3-0.6,0.5-1.2,0.5-1.9c0-1.5-0.8-2.7-2-3.4
		c2.3-4.8,5.3-7.6,8.2-7.8c0.6,0,1.1,0.1,1.3,0.4c0.2,0.2,0.4,0.6,0.3,0.9c0,0.4-0.2,0.8-0.5,1.2c-0.9,1-2.3,2.7-2.1,4.8
		c0.2,1.9,1.4,3.2,3.2,3.5l2.8,0.5c0,0-0.1-2.9-0.1-2.9c0-0.4,0.1-0.5,0.1-0.6l0,0c3.4-0.7,11.3-2.5,11.6-11.6c0-0.2,0-0.3,0-0.5
		c0-3.1-1-5.7-2.9-7.7c-2.1-2.2-5.3-3.4-8.9-3.5c-4.3,0-7.9,1.4-10.7,4c0.3-0.6,0.5-1.2,0.8-1.7L157.7,72.8z"/>
	<path class="st1" d="M924.7,160.8l9.9-5.2v-1h-23.8v1l9.2,4.9l-15.7,43.9h-0.3l-17.3-45l10.6-3.8v-1h-31.8v1l9.3,3.8l24,58.2
		l-3.3,7.5c-2.1,4.6-5.9,11.8-8.8,14.2c-2.9-4-5.2-6.1-9.5-6.1c-3.8,0-6.4,2.9-6.4,6.4c0,3.5,3.2,6.7,9.3,6.7
		c7.4,0,13.5-6.4,18.7-19.6L924.7,160.8z M866.1,211.8l-0.3-1c-2.6,0.4-6,0.8-8.2,0.8c-4.5,0-8.2-0.6-10-1.8
		c-2.9-1.9-3.9-4.9-3.9-10.3v-39.4h22v-5.2h-22v-16.6h-1l-8.9,13.7l-10.7,7.2v0.8h10.6v43.5c0,9.9,2.8,14.6,12.8,14.6
		C852.9,218.2,859.9,215.6,866.1,211.8 M798.2,161.9v50.9l-10.6,3.3v1h30.8v-1l-10.2-3.3v-60.1l-0.6-0.4l-19.2,4.6v0.8L798.2,161.9z
		 M796.5,131.7c0,4.2,3.1,7,6.6,7c4.5,0,7-3.1,7-7.3c0-4-3.2-6.8-6.7-6.8C799,124.6,796.5,127.6,796.5,131.7 M779.1,197.3
		c0-21.5-35-15.2-35-31.8c0-5.9,5.6-10.6,12.1-10.6c7.4,0,13.7,5.9,18.3,16.3l1.2-0.3l-0.4-15.5c-3.9-1.5-11.1-3.2-16.6-3.2
		c-13.4,0-21.9,8.6-21.9,19.6c0,20.9,34.3,15.5,34.3,31.2c0,7.8-5.3,13.4-13.7,13.4c-8.2,0-15.9-6.7-20.3-18.8l-1.3,0.1v17
		c6.4,2.8,12.7,4.3,19.6,4.3C769.2,219.2,779.1,210.3,779.1,197.3 M729.2,159.8c0-4-2.9-7.4-8.5-7.4c-6.4,0-13.8,6.1-18.2,14.8h-0.3
		v-14.5l-0.6-0.4l-19.1,4.6v0.8l9.6,4.2v50.9l-10,3.3v1h30.5v-1l-10.5-3.3v-41.7c2-5.2,8.1-10.3,13.2-10.7c1,4.2,3.3,6.5,7.1,6.5
		C726.6,166.9,729.2,164,729.2,159.8 M627.9,176.5c1-12.4,10.3-21.9,19.2-21.9c9.1,0,14.2,9.2,14.8,21.5L627.9,176.5z M673.6,178.6
		c0-15.5-8.6-26.2-25.9-26.2c-17.3,0-30.8,14.8-30.8,34.4c0,19.4,12.7,32.5,30.5,32.5c9.1,0,16.9-4.3,25.5-12.5l-0.6-1.1
		c-7.7,4.3-13.9,5.9-20.8,5.9c-16,0-24.5-13.1-23.8-32.9H673.6z M566.9,159.4l10.6-3.8v-1h-31.9v1l9.5,3.8l24.8,59.2h1.7l24.5-57.8
		l10.2-5.2v-1h-24.5v1l9.6,4.9l-8.9,23.8l-7.9,19.5h-0.3L566.9,159.4z M523,161.9v50.9l-10.6,3.3v1h30.8v-1l-10.2-3.3v-60.1
		l-0.6-0.4l-19.2,4.6v0.8L523,161.9z M521.3,131.7c0,4.2,3.1,7,6.5,7c4.5,0,7-3.1,7-7.3c0-4-3.2-6.8-6.7-6.8
		C523.8,124.6,521.3,127.6,521.3,131.7 M496.5,171.8c0-9.9-3.8-19.4-16.3-19.4c-7.5,0-15.5,3.9-23.8,11.7h-0.3v-11.4l-0.6-0.4
		l-19.1,4.6v0.8l9.6,4.2v50.9l-10,3.3v1h29.5v-1l-9.5-3.3v-46.4c5.6-3.2,10.6-5.9,16.4-5.9c10,0,13.9,6.7,13.9,17.3v35l-9.6,3.3v1
		h29.7v-1l-10-3.3V171.8z M416.6,133.6v51.6c0,14.8-7.7,27.4-24.4,27.4c-18.1,0-28-7.7-28-27.3v-53l14.6-2.5v-1.5h-41.8v1.5
		l14.6,2.5v55.9c0,20.6,12.4,31.2,34.6,31.2c19.6,0,33.7-13.4,33.7-31.2v-54.6l11.3-3.8v-1.5h-25.9v1.5L416.6,133.6z"/>
	<path class="st1" d="M763.5,40.4c0-4-2.9-7.4-8.5-7.4c-6.4,0-13.8,6.1-18.3,14.8h-0.3V33.3l-0.6-0.4l-19.1,4.6v0.8l9.6,4.2v50.9
		l-10,3.3v1h30.5v-1l-10.5-3.3V51.7c2-5.2,8.1-10.3,13.2-10.7c1,4.2,3.3,6.5,7.1,6.5C760.8,47.5,763.5,44.6,763.5,40.4 M662.2,57.1
		c1-12.4,10.3-21.9,19.2-21.9c9.1,0,14.2,9.2,14.8,21.5L662.2,57.1z M707.9,59.2c0-15.5-8.6-26.2-25.9-26.2s-30.8,14.8-30.8,34.4
		c0,19.4,12.7,32.5,30.5,32.5c9.1,0,16.9-4.3,25.5-12.5l-0.6-1.1c-7.7,4.3-13.9,5.9-20.8,5.9c-16,0-24.5-13.1-23.8-32.9H707.9z
		 M635.3,52.4c0-9.9-3.8-19.4-16.3-19.4c-7.5,0-15.5,3.9-23.8,11.7h-0.3V33.3l-0.6-0.4l-19.1,4.6v0.8l9.6,4.2v50.9l-10,3.3v1h29.5
		v-1l-9.5-3.3V46.9c5.6-3.2,10.6-5.9,16.4-5.9c10,0,13.9,6.7,13.9,17.3v35l-9.6,3.3v1h29.7v-1l-10-3.3V52.4z M571,92.4l-0.3-1
		c-2.6,0.4-6,0.8-8.2,0.8c-4.5,0-8.2-0.6-10-1.8c-2.9-2-3.9-4.9-3.9-10.3V40.7h22v-5.2h-22V18.9h-1l-8.9,13.7L528,39.8v0.8h10.6
		v43.5c0,9.9,2.8,14.6,12.8,14.6C557.9,98.8,564.9,96.1,571,92.4 M524.6,40.4c0-4-2.9-7.4-8.5-7.4c-6.4,0-13.8,6.1-18.3,14.8h-0.3
		V33.3l-0.6-0.4l-19.1,4.6v0.8l9.6,4.2v50.9l-10,3.3v1H508v-1l-10.4-3.3V51.7c1.9-5.2,8.1-10.3,13.2-10.7c1,4.2,3.3,6.5,7.1,6.5
		C522,47.5,524.6,44.6,524.6,40.4 M452.2,87.3c-4.7,3.5-10,5.4-14.5,5.4c-7.2,0-11.6-3.3-11.6-9.8c0-7.5,8.1-16.2,26.1-16.2V87.3z
		 M462.2,52.9c0-12.8-6-19.8-18.5-19.8c-11.7,0-25.9,7.1-25.9,15c0,3.6,2.1,6.4,6.3,6.4c3.9,0,6.1-2.8,6.1-6.3c0-2.6-1.5-5.4-4-7.5
		c3.2-1.3,7.3-2,11-2c9.1,0,15,5.6,15,15.3v9.5c-21.7,2.5-36.8,8.8-36.8,21.3c0,8.9,5.9,14.9,14.9,14.9c7.5,0,15.5-4.3,21.9-10.7
		h0.3c0,7.4,2.6,10.7,7.9,10.7c4.6,0,9.6-2,13.7-4l-0.1-1c-8.5,1-11.7-0.7-11.7-5.2V52.9z M397,32.8c0,14.5-7.9,22.3-21.5,22.3
		c-4.2,0-7.7-0.3-10.2-0.7V12.4c2.9-0.3,6.1-0.6,9.6-0.6C388.1,11.8,397,19.6,397,32.8 M410.6,33.3c0-13.7-10.6-24.4-31.9-24.4
		h-40.3v1.5l14.6,2.5v80.7l-14.6,2.5v1.5H380v-1.5l-14.6-2.5V57.2c4.5,0.7,9.5,1.1,14.1,1.1C399.6,58.3,410.6,45.7,410.6,33.3"/>
</g>
<g>
	<path id="Text" d="M993.8,79.3L994,99c0,0-2.4,0.6-3.1,0.8c-0.7-8.6-2.7-15.6-16.4-15.6H956v36.4h15.9c7.8,0,9.9-4.4,10.8-11.9
		c0.6,0,2.5,0,3.2,0c0,1,0,30.4,0,30.4l-3.1,0c-0.5-7.3-2.2-12.9-10.7-12.9H956v31.9c0,9.3,8,9.3,16.5,9.3c15.2,0,22.2-1,26.5-16.3
		c0.6,0.2,3.1,0.7,3.1,0.7l-4.3,20.5c0,0-68,0-69,0c0-0.7,0-2.7,0-3.4c0.5,0,1.3,0,1.3,0c5.3,0,10.2-1,10.2-8.2V91
		c0-7.2-4.9-8.2-10.2-8.2c0,0-0.8,0-1.3,0c0-0.7,0-2.7,0-3.4C929.8,79.3,993.8,79.3,993.8,79.3 M617.6,79.3c0,0-40.6,0-41.6,0
		c0,0.7,0,2.7,0,3.4c0.6,0,1.8,0,1.8,0c3.4,0,9.8,0,9.8,10.8v67.6c0,5.8-5.3,7.8-9.8,7.8c0,0-1.2,0-1.8,0c0,0.7,0,2.7,0,3.4
		c1,0,39.4,0,40.4,0c0-0.7,0-2.7,0-3.4c-0.6,0-1.8,0-1.8,0c-6.6,0-11.2-0.8-11.2-11.3v-29h10.3l27.7,43.7c0,0,22.8,0,23.8,0
		c0-0.7,0-2.9,0-3.5c-6.3-0.3-9.3-2.5-12.9-8.1L629.4,126l0.6-0.2c8.1-3.3,18.5-10,18.5-23.2C648.4,86.9,638.2,79.3,617.6,79.3
		 M612.4,83.1c11.9,0,19.8,7.9,19.8,20.2c0,15.1-6.4,21.6-20.9,21.6h-7.9l0-41.2C606,83.3,609.6,83.1,612.4,83.1z M709.6,79.3
		c-1,0-37.9,0-38.8,0c0,0.7,0,2.7,0,3.4c0.5,0,1.3,0,1.3,0c5.3,0,10.2,1,10.2,8.2v69.8c0,7.2-4.9,8.2-10.2,8.2c0,0-0.8,0-1.3,0
		c0,0.7,0,2.7,0,3.4c1,0,37.9,0,38.8,0c0-0.7,0-2.7,0-3.4c-0.5,0-1.3,0-1.3,0c-5.3,0-10.2-1-10.2-8.2V90.9c0-7.2,4.9-8.2,10.2-8.2
		c0,0,0.8,0,1.3,0C709.6,82,709.6,80,709.6,79.3 M177.7,125.7c0,31.3,19.1,49,49.1,49c14.7,0,27.7-5.8,36.1-16.6l-2.4-4.6
		c-7.4,9.6-17.3,14.8-31.2,14.8c-24.6,0-34.8-21.7-34.8-44.7c0-25.8,12.6-41.8,32.8-41.8c19.7,0,25.5,11.4,29,23.9l3.1-0.4l-1-21.5
		c-9.7-4.5-19.6-6.7-31.5-6.7c-13.3,0-25,4.5-34,12.5C183.3,98.3,177.7,111.9,177.7,125.7 M378.2,97.3c0,0,33.3,74.9,33.6,75.6
		c0.5,0,2.3,0,2.8,0c0.3-0.7,32.2-77.2,32.2-77.2s2.8,59.4,2.8,59.5l0.1,6.7c0,6.3-4.5,6.6-10.8,7c0,0-0.1,0-0.3,0
		c0,0.7,0,2.6,0,3.4c1.2,0,37.4,0,38.6,0c0-0.7,0-2.6,0-3.4c-7.1-0.3-10.9-0.9-11.5-8.1l-3.6-61.7c-0.8-13.1,1.1-16.4,11.5-16.4h0.5
		l0-3.4c0,0-25.1,0-25.8,0c-0.3,0.7-29.9,70.5-29.9,70.5S387.2,80,386.9,79.3c-0.7,0-25.2,0-26.3,0c0,0.7,0,2.6,0,3.4
		c0.5,0,1.1,0,1.1,0c7.4,0,11.8,4.6,11.3,12.6l-3.6,58.8c-0.5,8.6-1.1,14.5-11.7,14.9h-1.2v3.4h31.3v-3.4H387
		c-8.5-0.3-12.5-1.4-11.9-14.2C375.1,154.7,378.2,97.3,378.2,97.3 M767.9,172.3c12.9,0,25.6-3.1,34.7-12.1c9-9,14.2-21.6,14.2-34.6
		c0-13.9-4.7-25.7-13.6-34c-9-8.4-22-12.3-37.4-12.3l-41.6,0v3.4h1.3c5.3,0,10.2,1,10.2,8.2v69.7c0,7.2-4.9,8.2-10.2,8.2h-1.3v3.4
		L767.9,172.3z M761,83.3c26.2,0,38.9,14,38.9,44.8c0,19.8-10.7,40.1-34.2,40.1c-10,0-14.1-1.6-14.1-11.5l0-73
		C753.8,83.5,758.7,83.3,761,83.3z M896,167.5c-3.5,1.6-9.4,2.5-15.1,2.3c-24.7,0-35.7-23.3-35.7-46.9c0-25.6,13.1-41.6,34.7-41.6
		c16,0,23.1,6.3,27,22.3l3.1-0.2l-1.5-22.2c-7.2-2.4-18.5-4.6-29.5-4.6c-24.6,0-50.8,14.9-50.8,47.7c0,30.8,19.8,50.7,50.5,50.7
		c12.7,0,24.2-2.2,32.7-4.9l0-25.4c0-5,2.6-7.6,7.6-7.6h1.1v-3.3h-35.7v3.3h1.1c6.9,0,10.5,2.6,10.5,7.6V167.5 M526.7,124.1
		c14.6,0,23.3,8.1,23.3,22.4c0,12.7-8.5,22-19.9,22c-9.4,0-12.3-2.6-12.3-11.7v-32.7H526.7z M526.2,82.7c12.2,0,18.4,6.1,18.4,19.2
		c0,11.9-7.1,18.1-19.9,18.1h-7V82.7H526.2z M536.8,121.7c11.4-1.8,24.4-7.3,24.4-22c0-13.3-10.7-20.3-30.1-20.3l-41.3,0v3.4h1.8
		c3.4,0,9.8,0,9.8,10.8V161c0,5.8-5.3,7.9-9.8,7.9h-1.8v3.4l45.6,0c17.4,0,30.8-11.7,30.8-26.3c0-6.1-2.1-11.4-6.2-15.5
		C554.7,125.1,548.5,122.5,536.8,121.7 M311.1,79.3l30.3,80.7c2.2,6.4,5.5,8.9,10.3,8.9h0.3l0,3.4h-36l0-3.4h0.8
		c7,0,9.7-2.9,7.6-9.4l-7.3-20.4h-29.3l-6.8,18.8c-3,8.8,1.7,11,8.5,11h1.2l0,3.5h-28.3l0-3.5h0.3c5.7,0,9.6-3.5,11.8-9.2
		c0,0,29.5-80.3,29.5-80.3L311.1,79.3z M289.5,134.5h26l-13-36.2L289.5,134.5z"/>
	<g id="Shield_00000083806268768429570000000007201989345583083652_">
		<g>
			<path class="st2" d="M139.3,142.4c-0.3,7.6-1.4,14.6-3.3,20.6c-1.8,5.9-4.5,11.1-7.8,15.5c-6.3,8.3-13.9,12.4-18.9,15.2
				c-0.4,0.2-3.4,1.8-17.8,8.9v-60.2H139.3"/>
		</g>
		<path class="st2" d="M54.7,142.4v60.2c-14.4-7.2-17.4-8.7-17.8-8.9c-5-2.7-12.7-6.9-18.9-15.2c-3.4-4.4-6-9.7-7.8-15.5
			c-1.9-6.1-3-13-3.3-20.6H54.7"/>
		<path class="st3" d="M139.4,56.6h-48v49.1h48V56.6L139.4,56.6z"/>
		<path class="st3" d="M54.7,56.6h-48v49.1h48V56.6L54.7,56.6z"/>
		<path d="M0,49.9V138c0,43.3,22.7,55.7,33.7,61.6c2,1.1,35.7,17.9,37.9,18.9l1.5,0.8l1.5-0.8c2-1,35.9-17.8,37.9-18.9
			c10.9-5.9,33.7-18.3,33.7-61.6V49.9H0z"/>
		<path class="st4" d="M87.9,109.2V53.1H58.2v56.1h-55V138l0,0c0,0.3,0,0.6,0,0.9h55v69.4c7.9,3.9,14.8,7.4,14.8,7.4c0,0,0,0,0,0
			s0,0,0,0c0,0,6.9-3.4,14.9-7.4v-69.4h55c0-0.3,0-0.6,0-0.9v-28.8H87.9z"/>
		<g>
			<rect x="3.2" y="53.1" class="st5" width="55" height="56.1"/>
			<rect x="87.9" y="53.1" class="st5" width="55" height="56.1"/>
			<path class="st5" d="M58.2,138.9h-55c0.3,40.2,20.9,51.9,32,57.9c1.1,0.6,12.9,6.5,23,11.5V138.9z"/>
			<path class="st5" d="M87.9,138.9v69.4c10.1-5,21.9-10.9,23-11.5c11.1-6,31.7-17.7,32-57.9H87.9z"/>
		</g>
		<g>
			<path d="M106.8,124.5l1.1-1.4l-1.4-1.7l-1.4,1.7l1.1,1.4c0,0.7,0.1,6.6-3.5,8.8c0,0,1.2,0.2,2.7-0.1c0,0,0.3,1.6,1,3.3
				c0.7-1.8,1-3.3,1-3.3c1.6,0.3,2.7,0.1,2.7,0.1C106.7,131.1,106.7,125.2,106.8,124.5z"/>
			<path d="M115.7,114.4l1.1-1.3l-1.4-1.7l-1.4,1.7l1.1,1.3c0,0.7,0.1,6.6-3.5,8.8c0,0,1.2,0.2,2.7-0.1c0,0,0.3,1.6,1,3.3
				c0.7-1.8,1-3.3,1-3.3c1.6,0.3,2.7,0.1,2.7,0.1C115.7,121,115.7,115.1,115.7,114.4z"/>
			<path d="M124.7,124.5l1.1-1.4l-1.4-1.7l-1.4,1.7l1.1,1.4c0,0.7,0.1,6.6-3.5,8.8c0,0,1.2,0.2,2.7-0.1c0,0,0.3,1.6,1,3.3
				c0.7-1.8,1-3.3,1-3.3c1.6,0.3,2.7,0.1,2.7,0.1C124.6,131.1,124.7,125.2,124.7,124.5z"/>
			<path d="M133.6,114.4l1.1-1.3l-1.4-1.7l-1.4,1.7l1.1,1.3c0,0.7,0.1,6.6-3.5,8.8c0,0,1.2,0.2,2.7-0.1c0,0,0.3,1.6,1,3.3
				c0.7-1.8,1-3.3,1-3.3c1.6,0.3,2.7,0.1,2.7,0.1C133.6,121,133.6,115.1,133.6,114.4z"/>
			<path d="M97.8,114.4l1.1-1.3l-1.4-1.7l-1.4,1.7l1.1,1.3c0,0.7,0.1,6.6-3.5,8.8c0,0,1.2,0.2,2.7-0.1c0,0,0.3,1.6,1,3.3
				c0.7-1.8,1-3.3,1-3.3c1.6,0.3,2.7,0.1,2.7,0.1C97.7,121,97.8,115.1,97.8,114.4z"/>
		</g>
		<g>
			<path d="M21.9,124.5l1.1-1.4l-1.4-1.7l-1.4,1.7l1.1,1.4c0,0.7,0.1,6.6-3.5,8.8c0,0,1.2,0.2,2.7-0.1c0,0,0.3,1.6,1,3.3
				c0.7-1.8,1-3.3,1-3.3c1.6,0.3,2.7,0.1,2.7,0.1C21.9,131.1,21.9,125.2,21.9,124.5z"/>
			<path d="M30.9,114.4l1.1-1.3l-1.4-1.7l-1.4,1.7l1.1,1.3c0,0.7,0.1,6.6-3.5,8.8c0,0,1.2,0.2,2.7-0.1c0,0,0.3,1.6,1,3.3
				c0.7-1.8,1-3.3,1-3.3c1.6,0.3,2.7,0.1,2.7,0.1C30.8,121,30.9,115.1,30.9,114.4z"/>
			<path d="M39.9,124.5l1.1-1.4l-1.4-1.7l-1.4,1.7l1.1,1.4c0,0.7,0.1,6.6-3.5,8.8c0,0,1.2,0.2,2.7-0.1c0,0,0.3,1.6,1,3.3
				c0.7-1.8,1-3.3,1-3.3c1.6,0.3,2.7,0.1,2.7,0.1C39.8,131.1,39.8,125.2,39.9,124.5z"/>
			<path d="M48.8,114.4l1.1-1.3l-1.4-1.7l-1.4,1.7l1.1,1.3c0,0.7,0.1,6.6-3.5,8.8c0,0,1.2,0.2,2.7-0.1c0,0,0.3,1.6,1,3.3
				c0.7-1.8,1-3.3,1-3.3c1.6,0.3,2.7,0.1,2.7,0.1C48.8,121,48.8,115.1,48.8,114.4z"/>
			<path d="M13,114.4l1.1-1.3l-1.4-1.7l-1.4,1.7l1.1,1.3c0,0.7,0.1,6.6-3.5,8.8c0,0,1.2,0.2,2.7-0.1c0,0,0.3,1.6,1,3.3
				c0.7-1.8,1-3.3,1-3.3c1.6,0.3,2.7,0.1,2.7,0.1C12.9,121,13,115.1,13,114.4z"/>
		</g>
		<g>
			<path d="M73.4,147.3l1.1-1.3l-1.4-1.7l-1.4,1.7l1.1,1.3c0,0.7,0.1,6.6-3.5,8.8c0,0,1.2,0.2,2.7-0.1c0,0,0.3,1.6,1,3.3
				c0.7-1.8,1-3.3,1-3.3c1.6,0.3,2.7,0.1,2.7,0.1C73.3,153.9,73.4,148,73.4,147.3z"/>
			<path d="M73.4,177.7l1.1-1.4l-1.4-1.7l-1.4,1.7l1.1,1.4c0,0.7,0.1,6.6-3.5,8.8c0,0,1.2,0.2,2.7-0.1c0,0,0.3,1.6,1,3.3
				c0.7-1.8,1-3.3,1-3.3c1.6,0.3,2.7,0.1,2.7,0.1C73.3,184.4,73.4,178.4,73.4,177.7z"/>
			<g>
				<path d="M81.7,162.5l1.1-1.3l-1.4-1.7l-1.4,1.7l1.1,1.3c0,0.7,0.1,6.6-3.5,8.8c0,0,1.2,0.2,2.7-0.1c0,0,0.3,1.6,1,3.3
					c0.7-1.8,1-3.3,1-3.3c1.6,0.3,2.7,0.1,2.7,0.1C81.6,169.1,81.7,163.2,81.7,162.5z"/>
				<path d="M65,162.5l1.1-1.3l-1.4-1.7l-1.4,1.7l1.1,1.3c0,0.7,0.1,6.6-3.5,8.8c0,0,1.2,0.2,2.7-0.1c0,0,0.3,1.6,1,3.3
					c0.7-1.8,1-3.3,1-3.3c1.6,0.3,2.7,0.1,2.7,0.1C64.9,169.1,65,163.2,65,162.5z"/>
			</g>
		</g>
		<g>
			<g>
				<path d="M81.7,192.9l1.1-1.3l-1.4-1.7l-1.4,1.7l1.1,1.3c0,0.7,0.1,6.6-3.5,8.8c0,0,1.2,0.2,2.7-0.1c0,0,0.3,1.6,1,3.3
					c0.7-1.8,1-3.3,1-3.3c1.6,0.3,2.7,0.1,2.7,0.1C81.6,199.6,81.7,193.6,81.7,192.9z"/>
				<path d="M65,192.9l1.1-1.3l-1.4-1.7l-1.4,1.7l1.1,1.3c0,0.7,0.1,6.6-3.5,8.8c0,0,1.2,0.2,2.7-0.1c0,0,0.3,1.6,1,3.3
					c0.7-1.8,1-3.3,1-3.3c1.6,0.3,2.7,0.1,2.7,0.1C64.9,199.6,65,193.6,65,192.9z"/>
			</g>
		</g>
		<g>
			<path d="M73.4,78l1.1-1.4L73.1,75l-1.4,1.7l1.1,1.4c0,0.7,0.1,6.6-3.5,8.8c0,0,1.2,0.2,2.7-0.1c0,0,0.3,1.6,1,3.3
				c0.7-1.8,1-3.3,1-3.3c1.6,0.3,2.7,0.1,2.7,0.1C73.3,84.7,73.4,78.7,73.4,78z"/>
			<g>
				<path d="M81.7,62.8l1.1-1.4l-1.4-1.7L80,61.5l1.1,1.4c0,0.7,0.1,6.6-3.5,8.8c0,0,1.2,0.2,2.7-0.1c0,0,0.3,1.6,1,3.3
					c0.7-1.8,1-3.3,1-3.3c1.6,0.3,2.7,0.1,2.7,0.1C81.6,69.5,81.7,63.5,81.7,62.8z"/>
				<path d="M65,62.8l1.1-1.4l-1.4-1.7l-1.4,1.7l1.1,1.4c0,0.7,0.1,6.6-3.5,8.8c0,0,1.2,0.2,2.7-0.1c0,0,0.3,1.6,1,3.3
					c0.7-1.8,1-3.3,1-3.3c1.6,0.3,2.7,0.1,2.7,0.1C64.9,69.5,65,63.5,65,62.8z"/>
			</g>
			<g>
				<path d="M81.7,93.3l1.1-1.4l-1.4-1.7L80,91.9l1.1,1.4c0,0.7,0.1,6.6-3.5,8.8c0,0,1.2,0.2,2.7-0.1c0,0,0.3,1.6,1,3.3
					c0.7-1.8,1-3.3,1-3.3c1.6,0.3,2.7,0.1,2.7,0.1C81.6,99.9,81.7,93.9,81.7,93.3z"/>
				<path d="M65,93.3l1.1-1.4l-1.4-1.7l-1.4,1.7l1.1,1.4c0,0.7,0.1,6.6-3.5,8.8c0,0,1.2,0.2,2.7-0.1c0,0,0.3,1.6,1,3.3
					c0.7-1.8,1-3.3,1-3.3c1.6,0.3,2.7,0.1,2.7,0.1C64.9,99.9,65,93.9,65,93.3z"/>
			</g>
		</g>
		<g>
			<path d="M46.3,80.8l0.2,0.7c0.2,0.6,0.3,1.1,0.4,1.5c0.6,2.7,1.1,3.4,2.4,3.4c0.7,0,1.4-0.4,1.5-1l0.3-0.9
				c0.1-0.2,0.2-0.3,0.4-0.3c0.5,0,0.7,0.5,0.8,1.7c0,0.3,0.1,1.1,0.3,2.3c0.1,0.7,0.2,1.4,0.2,2c0,0.6,0,0.8-0.3,1.5
				c0.2,0.9,0.3,2.1,0.3,2.9c0,1.2-0.2,2.2-0.6,2.8c0.2,0.8,0.2,1.1,0.2,1.8c0,0.5,0,1-0.1,1.6c-0.2,1.1-0.2,1.4-0.2,1.6
				c0,0.2,0,0.4,0.1,0.6c0.1,0.3,0.1,0.5,0.1,0.6c0,0.1-0.1,0.2-0.1,0.2l-0.9-0.4l-1-0.6c-0.3-0.2-0.6-0.4-1.1-0.8
				c-0.9,0.8-1.2,0.9-3.5,1.6c-0.5,0.1-0.8,0.3-1,0.4c-0.3,0.2-0.5,0.3-0.6,0.3c-0.4,0-0.6-0.6-0.6-2c0-1,0.1-1.9,0.3-2.6
				c-0.7-0.3-1.3-0.4-1.7-0.4c-0.1,0-0.3,0-0.7,0.1l-0.2,0c-0.1,0-0.3-0.2-0.3-0.4c0-0.2,0.1-0.6,0.3-1l0.5-1.1
				c0.2-0.4,0.6-0.9,1.1-1.3c0.5-0.4,0.9-0.6,1.2-0.7l1.7-0.3c1-0.2,1.6-0.7,1.6-1.4c0-0.7-0.4-1.1-1.5-1.5l-2-0.7
				c-0.5-0.2-1.1-0.5-1.8-0.9c-1.1-0.7-1.3-0.7-1.6-0.7c-0.4,0-0.6,0.3-0.6,0.8c0,0.8,0.5,1.4,1.3,1.4c0.2,0,0.3,0,0.5-0.1
				c0.2-0.1,0.4-0.1,0.5-0.1c0.2,0,0.3,0.1,0.3,0.4l0,0.2l-0.1,0.8c-0.1,0.7-0.5,1.5-1.5,2.8l-0.4,0.6c-0.4,1.5-1.3,2.9-2.5,3.7
				c-0.3,0.2-0.5,0.3-0.5,0.4c0,0-0.2,0.3-0.4,0.7c-0.1,0.2-0.4,0.6-0.9,1.1c-0.4,0.4-0.8,0.8-1.2,1.1c-0.5,0.4-0.8,0.7-0.9,0.8
				l-0.5,0.8c-0.1,0.1-0.2,0.2-0.4,0.2c-0.4,0-0.8-0.4-1-1.2c-0.2-0.5-0.3-0.7-0.7-0.7c-0.2,0-0.5,0-0.8,0.1l-0.7,0.1h-1.7
				c-0.8,0-2,0.2-2.6,0.5c-0.2,0.1-0.4,0.1-0.5,0.1c-0.1,0-0.2-0.1-0.3-0.3c-0.1-0.2-0.1-0.2-0.1-0.4c0-0.9,0.6-2.5,1.4-3.7
				c0.5-0.8,0.7-1,1.3-1.5c-0.2-0.8-0.7-1.4-1.3-1.6l-0.8-0.2c-0.1,0-0.2-0.1-0.2-0.2c0-0.2,0.4-0.6,1.1-0.9
				c0.9-0.5,1.8-0.7,2.6-0.7c0.8,0,1.5,0.3,2.4,1c1.3,1,1.6,1.2,2.2,1.2c1,0,1.9-0.9,1.9-1.9c0-0.6-0.3-1.3-1.2-2.5
				c-1.3-1.7-1.7-2.6-1.7-3.8c0-0.8,0.2-1.7,0.5-2.2l0.5-0.7c0.1-0.2,0.2-0.3,0.2-0.5c0-0.3-0.4-0.5-0.8-0.5c-0.7,0-2.2,0.5-3.3,1.2
				c-0.6,0.3-0.9,0.7-0.9,1c0,0.1,0.1,0.3,0.2,0.4l0.5,0.3c0.1,0,0.1,0.1,0.1,0.2c0,0.1-0.1,0.2-0.2,0.4l-0.9,1.2
				c-0.5,0.6-1.2,1.4-2,2.1c-0.2,0.2-0.4,0.4-0.5,0.5c0,0-0.1,0.2-0.4,0.7c-0.3,0.6-1.2,1.5-2.1,2.1c-0.3,0.2-0.6,0.4-0.7,0.5
				c-0.1,0.1-0.2,0.3-0.4,0.7c-0.1,0.2-0.3,0.6-0.6,1c-0.5,0.7-0.8,1.2-1.1,1.4l-1.3,1.3c-0.4,0.4-0.8,1.2-1.3,2.9
				c-0.3,1-0.6,1.6-0.8,1.6c-0.1,0-0.2-0.1-0.4-0.3c-0.9-1.1-1.7-1.7-2.1-1.7c-0.1,0-0.3,0.1-0.5,0.2c-0.3,0.2-0.8,0.4-1.3,0.5
				l-1.7,0.3c-1.3,0.2-1.8,0.5-2.6,1.4c-0.2,0.2-0.3,0.3-0.4,0.3c-0.1,0-0.2-0.2-0.2-0.5l0-0.4l0.2-1.3c0.2-1.3,0.6-2.3,0.9-3
				l0.8-1.4c0.2-0.3,0.2-0.5,0.2-0.8c0-1.1-1.1-2.1-2.5-2.2c-0.3,0-0.5-0.1-0.5-0.3c0-0.2,0.4-0.7,0.9-1.1c0.9-0.7,2.2-1.2,2.9-1.2
				c0.5,0,1.2,0.2,2.1,0.6l1,0.4c0.4,0.2,0.7,0.2,1,0.2c1.1,0,2.1-1,3.4-3.2c0.6-1,0.8-1.7,0.8-2.4c0-1.2-0.6-1.9-1.5-1.9
				c-0.7,0-1.5,0.3-2,0.9c-0.5,0.5-0.7,1-0.7,1.4l0,0.5l0,0.1c0,0.4-0.1,0.7-0.4,0.7c-0.4,0-1.1-0.6-2.9-2.8c-1.4-1.7-1.7-2.4-1.7-4
				c-1.6-2-2-2.9-2-4.3l0.1-1c-1.1-1.3-1.4-2-1.4-3.2c0-0.4,0.1-0.7,0.3-1.2c-0.6-0.8-0.7-1.2-0.9-1.8l-0.2-1
				c-0.2-0.7-0.4-1.2-0.7-1.7c-0.4-0.6-0.5-0.7-0.5-0.9c0-0.5,0.4-0.8,2-1.2c-0.1-0.5-0.1-0.8-0.1-1c0-0.3,0-0.5,0.1-1.1l0.3-1.7
				c0.1-0.7,0.2-1.2,0.2-1.5c0-0.3-0.1-0.6-0.3-1.5c-0.2-0.5-0.3-0.9-0.4-1.1c-0.2-0.2-0.3-0.5-0.3-0.6c0-0.2,0.1-0.3,0.3-0.3
				c0.5,0,1.7,0.7,2.9,1.8c2.7,2.2,3.2,3.1,3.6,5.8c0,0.2,0.1,0.5,0.1,0.9c1.3,0.9,2,2.1,2,3.3c0,1-0.4,2.1-0.9,3l-0.9,1.4
				c-0.3,0.4-0.4,1-0.4,1.5c0,0.9,0.3,1.7,0.9,2.8c0.7,1.3,1.3,1.8,2.1,1.8c1.2,0,2.3-2.1,2.3-4.6v-0.3l0-0.8c0-0.5,0-0.9,0.1-1.5
				c0.1-0.7,0.1-1.2,0.1-1.4l0-1.1l0-0.7c0-0.3-0.1-0.5-0.5-0.9l-1-1.1c-1.5-1.6-2.3-3.1-2.3-4.3c0-1.4,1-2.5,2.4-2.5
				c0.3,0,0.5,0,1,0.2v-0.3c0-2.1,0.4-3.6,1-3.6l0.2,0.1l0.8,0.7l1,0.7l0.3,0.3c0-0.6,0-0.6,0.6-1.3c0.1-0.2,0.4-0.5,0.7-0.9
				c0.2-0.3,0.4-0.6,0.5-0.7c0.1-0.1,0.2-0.3,0.2-0.4c0.1-0.2,0.2-0.3,0.4-0.3c0.1,0,0.2,0.2,0.4,0.7c0.1,0.3,0.2,0.4,1,1.1
				c0.3,0.3,0.5,0.5,0.6,0.6c0.1,0.1,0.2,0.4,0.4,0.9c0,0.1,0.1,0.2,0.1,0.4c0.3-0.4,0.5-0.6,0.9-0.8l0.7-0.4
				c0.3-0.2,0.4-0.2,0.5-0.2c0.1,0,0.1,0.1,0.2,0.3c0.1,0.2,0.2,0.4,0.4,0.7c0.5,0.9,0.7,1.3,0.7,1.7l0,0.5v0.6
				c1.5,0.5,2.1,1.3,2.1,2.9c0,1.2-0.6,2.5-1.8,4c-0.8,1-0.9,1.1-0.9,1.8c0,3.5,2.4,5.4,6.6,5.5l3.1,0c2,0,3.2,0.2,5.1,0.8
				c2.2,0.7,2.9,0.9,3.5,0.9c0.2,0,0.4-0.1,0.6-0.2c0.2-0.1,0.3-0.3,0.3-0.4c0-0.7-1.1-1.2-4.9-2.2c-7.7-2.2-11-5.3-11-10.4
				c0-3.9,3.3-7,7.5-7c1.4,0,3.5,0.4,4.7,0.8l1.9,0.7c0.4,0.1,0.7,0.2,1,0.2c0.6,0,1-0.5,1-1.6c0-0.6,0.1-0.8,0.5-0.8
				c0.5,0,1.4,0.7,2.1,1.7c0.8,1.1,1.3,2.3,1.3,3.1c0,1.1-0.5,1.8-1.6,2.4c-1,1.6-2.3,2.3-4.1,2.3c-1.3,0-3.3-0.8-6.4-2.6
				c-1.1-0.6-1.7-0.8-2.2-0.8c-0.8,0-1.4,0.5-1.4,1.2c0,0.7,0.5,1.1,1.9,1.6c2,0.7,2.5,1,3.3,1.8c2.4,0.4,3.4,0.8,4.9,2
				c4.1,1.3,6.6,4.1,6.6,7.3c0,3.1-2.1,5.3-5,5.3C47.8,81.1,47.4,81,46.3,80.8"/>
			<path class="st6" d="M50.9,101.2c-0.1-0.6-0.2-0.8-0.2-1.1l0-0.4l0.1-0.7l0-0.6c0-0.6-0.1-1.1-0.3-1.4l-0.6-0.7
				c-0.2-0.2-0.3-0.5-0.5-0.9c-0.1-0.2-0.1-0.3-0.1-0.4c0-0.2,0.1-0.3,0.3-0.3c0.1,0,0.2,0,0.6,0.3c0.2,0.1,0.3,0.2,0.5,0.2
				c0.3,0,0.4-0.5,0.4-1.2c0-0.9-0.1-1.4-0.3-1.6l-0.7-0.8l-0.6-0.5c-0.1-0.1-0.2-0.3-0.2-0.4c0-0.2,0.2-0.3,0.4-0.3
				c0.2,0,0.7,0.1,1,0.2l0.2,0c0.2,0,0.3-0.1,0.3-0.4l0-0.2l-0.1-1l-0.3-1c-0.1-0.3-0.1-0.4-0.4-0.4l-0.1,0l-1.2,0.2l-0.2,0
				c-1.5,0-3.1-1.3-3.6-2.9l-0.9-3c-0.3-0.9-1-1.8-2.2-2.8c-0.4-0.3-0.7-0.5-0.9-0.5l-0.8-0.1c-0.2,0-0.3-0.1-0.3-0.2
				c0-0.2,0.2-0.3,0.6-0.3l1.5,0.1c0.6,0.1,1.4,0.3,2.5,0.7c1.4,0.5,2.3,0.7,3.1,0.7c2.3,0,3.7-1.3,3.7-3.4c0-1.4-0.8-3.1-1.9-4.1
				c-0.7-0.6-1.3-1-1.5-1c-0.1,0-0.2,0.1-0.2,0.2l0,0.6l0,0.1c0,0.2-0.1,0.4-0.3,0.4c-0.2,0-0.5-0.3-0.8-0.9
				c-0.9-1.8-2.3-2.9-3.7-2.9c-0.2,0-0.4,0.1-0.4,0.2c0,0.1,0.1,0.3,0.2,0.7l0.4,0.8c0.1,0.2,0.2,0.4,0.2,0.4c0,0.1-0.1,0.1-0.2,0.1
				c-0.2,0-0.6-0.2-0.8-0.4l-0.7-0.7l-0.6-0.9c-0.5-0.7-0.9-1.1-1.9-1.6c-0.6-0.3-1-0.5-1.1-0.6C38.1,66,37.9,66,37.7,66
				c-0.2,0-0.2,0.1-0.2,0.2c0,0.2,0.1,0.3,0.2,0.5c0.3,0.5,0.5,0.8,0.5,0.9c0,0.1-0.1,0.3-0.2,0.3c-0.4,0-1.1-0.7-1.8-1.7
				c-0.5-0.8-0.8-1.7-0.8-2.6c0-2,1.5-3.5,3.4-3.5c1,0,2.3,0.4,3.5,1.2l2.2,1.4c0.8,0.5,1.9,0.8,2.5,0.8c0.3,0,0.9-0.1,1.4-0.2
				c0.2-0.1,0.4-0.1,0.6-0.2c0.1-0.1,0.2-0.2,0.2-0.3c0-0.1-0.1-0.2-0.1-0.2l-0.3-0.1l-1-0.2c-0.3,0-0.7-0.2-1.3-0.5
				c-1.2-0.6-2-1-2.3-1.2c-0.8-0.5-1.3-0.8-1.5-0.9c-0.4-0.1-0.6-0.3-0.6-0.4c0-0.1,0.1-0.2,0.2-0.2c0.1,0,0.3,0.1,0.5,0.2
				c0.7,0.4,1.3,0.7,1.7,0.7l2,0.7c1,0.3,2.4,0.7,3.1,0.7c0.8,0,1.5-0.7,1.5-1.5c0-0.5-0.3-1.4-0.8-2c-0.1-0.2-0.2-0.2-0.3-0.2
				c-0.2,0-0.3,0.1-0.3,0.4l0,0.4l0.1,0.6c0,0.6-0.4,1.1-0.9,1.1c-0.2,0-0.4,0-0.7-0.1l-3-1c-2.5-0.8-3.7-1.1-5-1.1
				c-3.6,0-6.4,2.5-6.4,5.8c0,3.7,2.6,6.1,9,8.3c6.3,2.2,7.2,2.7,7.2,4.3c0,0.9-0.9,1.8-2,1.8c-0.4,0-0.8,0-1.1-0.1
				c-0.2,0-1.3-0.3-3.2-0.7c-1.9-0.5-3.7-0.7-5.8-0.7c-4.6,0-7.1,0.8-9.3,2.9c-0.5,0.5-0.7,0.6-1.4,0.6l-0.3,0l-0.7,0l-0.1,0
				c-0.5,0-1,0.3-1.3,0.8c-0.5,0.8-0.8,1.2-0.8,1.3c-0.1,0.2-0.3,0.3-0.5,0.3c-0.4,0-0.7-0.3-1.1-1.4c-0.2-0.5-0.6-1-1-1.4l-0.9-0.8
				c-0.2-0.1-0.2-0.3-0.2-0.4c0-0.1,0.1-0.3,0.2-0.4c0.4-0.6,0.6-0.9,0.7-1.2c0.1-0.6,0.1-0.6,0.4-0.6c0.3,0,0.4,0.3,0.4,1.4
				c0,0.3,0.1,0.7,0.4,1.3l0.5,1.1c0.1,0.1,0.2,0.2,0.4,0.2c0.5,0,1.1-1.1,1.3-2.3c0.1-1,0.2-1.3,0.4-1.3c0.1,0,0.2,0,0.2,0.1
				c0,0.1,0.2,0.3,0.4,0.8c0.1,0.3,0.3,0.5,0.6,0.7c0.3,0.2,0.5,0.3,0.6,0.3l0.1,0c0.4,0,0.5-0.2,0.6-1.1l0-0.5l-0.1-0.7l-0.1-0.5
				c0-0.3,0.1-0.5,0.3-0.5c0.1,0,0.2,0.1,0.3,0.2l0.5,0.5c0.3,0.3,0.6,0.5,0.9,0.5c0.4,0,0.6-0.2,0.6-0.4c0-0.2-0.1-0.4-0.4-1.1
				L29,74c-0.4-0.7-0.7-1-1-1l-0.5,0L27,73.3c-0.2,0.1-0.3,0.1-0.4,0.1c-0.1,0-0.1-0.1-0.1-0.2c0-0.4,0.3-1.1,0.8-1.9
				c0.4-0.6,0.6-1.9,0.7-3.7c0.2-2.4,0.5-4,0.8-4c0.2,0,0.3,0.2,0.3,0.7l0,0.6l0,0.4c0,0.4,0.1,0.8,0.2,0.8c0.4,0,0.9-0.6,1.2-1.6
				c0.2-0.4,0.2-0.7,0.2-1l-0.1-0.2l-0.9-1.7l-0.9-0.3c-0.2-0.1-0.3-0.1-0.3-0.2v-0.6v-0.5l-0.1-0.6l-0.2-0.5l-0.2-0.5
				c-1,0.6-1.5,0.9-1.9,1.4c-0.4,0.5-0.6,0.7-0.8,0.7c-0.1,0-0.2-0.1-0.2-0.2c0-0.1,0-0.4,0.1-0.8l0-0.3c0-1-0.6-2-1.6-2.6l-0.3,0.4
				l-0.3,0.5l-0.6,0.7c-0.2,0.2-0.3,0.5-0.5,0.9c-0.1,0.2-0.1,0.4-0.1,0.5l0,0.1l0,0.2c0,0.4,0,0.5-0.2,0.5l-0.1-0.1L21.4,60
				l-0.5-0.6l-0.8-0.5l-0.4-0.3c-0.1,0.2-0.1,0.3-0.2,0.4c-0.1,0.3-0.2,0.6-0.2,0.7l-0.1,0.7l0,0.8l0,0.1c0,0.4-0.1,0.6-0.3,0.6
				c-0.1,0-0.3-0.1-0.5-0.2c-0.2-0.1-0.4-0.2-0.7-0.2c-0.7,0-1.2,0.5-1.2,1.3c0,0.9,0.3,1.8,0.7,2.4l0.6,0.8
				c0.2,0.2,0.5,0.4,0.5,0.3l0.1-1l-0.1-0.8l0-0.4c0-0.3,0.1-0.5,0.3-0.5c0.3,0,0.4,0.3,0.6,1.1l0.4,1.7l0.4,2.2
				c0.1,0.6,0.3,1.2,0.6,1.9c0.4,0.9,0.6,1.4,0.8,1.6c0.5,0.7,0.6,0.8,0.6,0.9c0,0.1-0.1,0.2-0.2,0.2c-0.1,0-0.2,0-0.4-0.1
				c-0.2-0.1-0.3-0.2-0.6-0.2L20.2,73c-0.7,0-0.9,0.6-0.9,3.8c0,1.9,0.4,4.5,0.9,5.7l1,2.5c0.2,0.4,0.2,0.8,0.2,1.2
				c0,3.4-4.5,8.7-9.5,11.2c-1.8,0.9-2.4,1.8-2.6,3.8l0,0.6c0.7-0.4,1.1-0.5,1.6-0.7c1.4-0.4,1.7-0.5,1.9-1.2l0.2-0.6
				c0.1-0.2,0.2-0.3,1.3-0.9c0.4-0.2,0.6-0.4,0.7-0.6c0.2-0.4,0.4-0.6,0.6-0.6c0.1,0,0.2,0.1,0.2,0.2l0,0.2l-0.5,1.3l-0.1,0.3
				c0,1,0.5,1.8,1.5,2.3c0.2-1.1,0.3-1.4,0.6-2l0.8-1.3c0.3-0.5,0.4-1.1,0.4-2c0-0.5,0-1.1-0.1-1.5l0-0.4c0-0.2,0.1-0.4,0.3-0.4
				c0.2,0,0.3,0.1,0.3,0.1l0.2,0.9c0,0.2,0.2,0.3,0.5,0.3c0.4,0,1-0.6,1.6-1.6c0.2-0.4,0.3-0.8,0.3-1.2l-0.1-0.6l-0.1-0.7l0-0.1
				c0-0.3,0.2-0.5,0.4-0.5c0.1,0,0.2,0,0.2,0.1l0.3,1.1c0.1,0.4,0.3,0.6,0.6,0.6c0.3,0,0.9-0.5,1.2-1.2c0.3-0.6,0.4-1.2,0.4-1.9
				c0-1,0.1-1.3,0.5-1.3c0.1,0,0.2,0,0.2,0.1l0.2,0.6c0.1,0.2,0.2,0.4,0.3,0.4c0.2,0,0.7-0.6,1.1-1.2c0.1-0.2,0.1-0.3,0.1-0.4
				c0-0.2-0.1-0.4-0.4-0.6c-0.5-0.4-0.5-0.5-0.5-1.1c0-0.6,0.1-0.9,0.5-1.6c0.2-0.4,0.4-0.8,0.6-1.1c0.6-1.2,0.8-1.4,1-1.4
				c0.2,0,0.3,0.2,0.3,0.4c0,0.1,0,0.3-0.1,0.4c-0.1,0.3-0.2,0.4-0.2,0.6c0,0.2,0.2,0.3,0.3,0.3c0.2,0,0.5-0.1,0.8-0.3
				c0.1-0.1,0.6-0.2,1.3-0.5l1.5-0.6c0.3-0.1,0.6-0.1,0.9-0.1c0.3,0,0.6,0,0.8,0.1c0.6,0.1,0.9,0.2,1.1,0.2c0.4,0,0.8-0.4,0.8-0.8
				c0-0.3-0.3-0.9-0.8-1.4c-0.2-0.2-0.2-0.3-0.2-0.4l0.1-0.2c0.1-0.1,0.2-0.2,0.2-0.2c0.3,0,1.1,0.8,1.7,1.8c4,6.3,5.5,7.8,8.2,8.7
				c2.7,0.8,3.5,1.5,3.5,3.1c0,0.9-0.5,1.9-1.5,3.3c-2,2.8-2.5,4-2.5,5.9l0,0.3c0.2-0.1,0.4-0.2,0.5-0.2c0.4-0.2,0.6-0.3,0.7-0.3
				l1.2-0.2c0.4-0.1,0.7-0.5,0.7-1l0-0.1l-0.1-1l0-0.1c0-0.4,0.2-0.8,0.4-1C48,98,48.1,98,48.2,98c0.1,0,0.3,0.1,0.4,0.3l0.7,1.6
				C49.6,100.5,49.9,100.8,50.9,101.2"/>
			<path class="st6" d="M13.3,67.4c-0.3,0-0.5,0.3-0.5,0.9l-0.1,0.9c-0.1,0.8-0.1,0.9-0.1,1.1c0,0.7,0.2,1.2,0.5,1.2
				c0.3,0,0.8-0.6,1-1.2c0.1-0.4,0.2-0.7,0.2-1.1c0-0.3-0.1-0.7-0.2-1.1C13.8,67.7,13.6,67.4,13.3,67.4"/>
			<path class="st6" d="M9.5,60.6l0.7,0.7c1.1,1.1,1.6,2.8,1.6,5.3c0,0.6,0,0.9-0.1,2.4c-0.1,0.8-0.1,1.4-0.1,1.9
				c0,5.8,1.9,10.2,4.4,10.2c0.8,0,1.3-0.4,2-1.5c0.1-0.2,0.3-0.3,0.4-0.3c0.1,0,0.2,0.1,0.2,0.4l0.1,1l0.1,0.9l0.1,1l0.1,0.9l0,0.1
				c0,0.3-0.1,0.4-0.3,0.4l-0.8,0.1c-0.4,0.1-0.9,0.2-1.3,0.5c-0.7,0.4-1.1,0.7-1.2,0.9l-0.5,1.1c-0.1,0.1-0.2,0.2-0.3,0.2
				c-0.3,0-0.7-0.5-1.2-1.3c-0.4-0.7-0.7-1.3-0.7-1.5c0-0.1,0.1-0.2,0.4-0.2H13l0.6,0l0.4,0l0.4,0c0.2,0,0.3-0.2,0.3-0.3
				c0-0.1-0.1-0.2-0.2-0.3l-2.1-0.9c-0.6-0.3-1.2-0.8-1.6-1.5C10.3,79.7,10,79,10,78.7c0-0.3,0.1-0.5,0.4-0.5c0.1,0,0.2,0,0.3,0.1
				c0.2,0.1,0.5,0.2,0.6,0.2c0.2,0,0.3-0.1,0.3-0.3c0-0.1-0.2-0.3-0.4-0.5c-1.8-1.3-2.8-2.7-2.8-4c0-0.4,0.1-0.5,0.3-0.5l0.3,0
				l0.6,0.1h0c0.2,0,0.4-0.1,0.4-0.4c0-0.1-0.2-0.3-0.4-0.4c-0.4-0.2-0.7-0.4-0.7-0.4c-0.3-0.2-0.5-0.4-0.7-0.7
				c-0.1-0.1-0.3-0.6-0.8-1.5l-0.7-1.3c-0.2-0.5-0.4-0.7-0.4-0.8c0-0.1-0.1-0.2-0.3-0.4c0.6-0.3,0.9-0.4,1.5-0.4
				c0.6,0,1,0.4,1.5,1.5c0.3,0.7,0.6,1.2,0.8,1.2c0.1,0,0.1-0.2,0.1-0.5c0-0.5-0.1-0.9-0.2-1.4c-0.1-0.4-0.2-0.8-0.1-1l-0.1-0.7
				L9.1,66c-0.1-0.1-0.3-0.2-0.4-0.5c-0.3-0.4-0.4-0.7-0.4-1.1c0-0.2,0.1-0.5,0.1-0.8c0.5-1.8,0.6-2.5,0.6-3l0-0.4L9.5,60.6z"/>
			<path class="st6" d="M15,94.2c-0.7-0.1-1-0.2-1.4-0.3c-0.1,0-0.4-0.2-0.9-0.4c-0.8-0.3-1.3-0.5-1.8-0.5c-0.7,0-1.3,0.2-1.9,0.8
				l0.4,0.3l0.9,0.7l0.9,0.7c0.2,0.2,0.5,0.3,0.8,0.3C13,95.8,13.8,95.4,15,94.2"/>
			<path class="st6" d="M33,102.7c0.3-0.6,0.4-0.7,0.9-1.2c1.3-1.1,1.9-1.9,1.9-2.6v-0.5v-0.6c0-0.6,0.1-0.8,0.4-0.8
				c0.1,0,0.3,0.1,0.3,0.1l0.2,0.6c0.1,0.1,0.2,0.2,0.4,0.2c0.2,0,0.4-0.2,0.7-0.5l0.5-0.6c0.2-0.3,0.3-0.6,0.3-0.9
				c0-0.2,0-0.4-0.1-0.5c0-0.1-0.1-0.3-0.3-0.7C38.1,94.4,38,94,38,93.9c0-0.3,0.2-0.5,0.4-0.5c0.1,0,0.3,0.1,0.3,0.1l0.4,0.5
				c0.1,0.1,0.2,0.2,0.4,0.2c0.2,0,0.4-0.2,0.5-0.4l0.4-0.7c0.1-0.2,0.1-0.3,0.1-0.4c0-0.1-0.2-0.3-0.4-0.4l-0.6-0.3
				c-0.8-0.4-1.4-1.7-1.4-3c0-0.2,0-0.4,0.1-0.5l0.3-0.8c0.1-0.2,0.1-0.5,0.1-0.7c0-0.5-0.2-1-0.5-1.4c-0.4-0.6-0.6-0.9-0.6-1
				c-0.3-0.7-0.4-0.9-0.6-0.9l-0.2,0.1l-0.3,0.2L35.8,84l-0.6,0.7l-0.7,0.3c-0.4,0.2-0.8,1-0.8,1.7c0,1.2,0.1,1.5,1.7,4.3
				c0.6,1.1,0.9,2,0.9,2.7c0,1.9-1.7,3.3-5.1,4.1l-2.1,0.5c-1.6,0.4-2.5,1.5-2.8,3.3c0.7-0.3,0.9-0.4,2.1-0.4l0.7,0l0.1,0
				c0.6,0,0.7,0,1.1-0.6c0.5-0.6,0.9-1,1.5-1.3l0.7-0.3l0.6-0.3l0.2,0c0.2,0,0.3,0.1,0.3,0.2c0,0.2-0.2,0.5-0.4,0.8
				c-0.5,0.6-0.7,1.1-0.7,1.8C32.5,101.9,32.6,102.2,33,102.7"/>
			<path class="st6" d="M27.1,95.5c0.5,0.3,1.1,0.8,1.4,1.3c0.4,0.6,0.5,0.7,0.9,0.7c0.2,0,0.4,0,0.7-0.1l0.4-0.1
				c0.8-0.1,1-0.3,1-0.5c0-0.1-0.1-0.3-0.2-0.4l-0.5-0.5l-0.5-0.5c-0.3-0.3-1-0.5-1.5-0.5C28.2,94.9,27.9,95,27.1,95.5"/>
			<path class="st6" d="M42.2,98l0.3,0l0.4,0l0.4,0l0.2,0c1,0,2-0.9,2-1.8c0-0.3-0.3-0.5-0.8-0.5C43.5,95.7,42.7,96.4,42.2,98"/>
			<path class="st7" d="M24.8,65.8c0,0.4,0.3,0.8,0.5,0.8c0.2,0,0.4-0.5,0.9-1.3c0.7-1.1,1.3-2.2,1.3-2.8c0-0.2-0.1-0.3-0.2-0.3l0,0
				l-0.5,0.5c-0.4,0.3-0.7,0.5-1.6,0.8c-0.5,0.2-0.7,0.4-0.7,0.8l0.1,0.4l0.2,0.7L24.8,65.8z"/>
			<path class="st7" d="M22,63.4l0.8,0.4c0.2,0.1,0.3,0.3,0.3,0.4l-0.1,0.3c-0.1,0.4,0,0.8,0,1c0,0.8-0.7,0.8-0.9,0.8
				c-0.2,0-0.1-0.1-0.4-0.5l-1-1.2c-0.3-0.4-0.6-1.2-0.7-2.1l0-0.1c0-0.3,0.1-0.4,0.3-0.4c0.1,0,0.4,0.1,0.5,0.2L22,63.4z"/>
			<path class="st7" d="M23.8,68.3l-0.3,0l-0.5,0c0,0-0.2-0.1-0.6-0.3c-0.2-0.1-0.4-0.2-0.7-0.2c-0.4,0-0.7,0.2-0.7,0.6
				c0,0.4,0.2,1,0.6,2.1l0.6,1.5c0.5,1.3,1,1.9,1.7,1.9c0.6,0,0.7-0.6,1.1-1.6c0.9-2.3,1.5-2.7,1.5-3.5c0-0.6-0.1-0.7-0.6-0.7
				l-0.4-0.1l-0.7,0.5L23.8,68.3z"/>
			<path class="st6" d="M23.8,69.6h-0.6c-0.1,0-0.2,0.1-0.2,0.1l-0.1,0.2l0.2,1.1l0.2,1c0.1,0.5,0.3,0.7,0.7,0.7
				c0.5,0,0.7-0.3,0.8-0.9l0.1-1c0.1-0.7,0.1-1,0.1-1.1c0-0.1-0.1-0.2-0.1-0.3c-0.1-0.1-0.2-0.1-0.2-0.1l0,0L23.8,69.6z"/>
		</g>
		<g>
			<path d="M133.3,80.8l0.2,0.7c0.2,0.6,0.3,1.1,0.4,1.5c0.6,2.7,1.1,3.4,2.4,3.4c0.7,0,1.4-0.4,1.5-1l0.3-0.9
				c0.1-0.2,0.2-0.3,0.4-0.3c0.5,0,0.8,0.6,0.8,1.7c0,0.4,0.1,1.2,0.3,2.3c0.1,0.8,0.2,1.5,0.2,2.2c0,0.5-0.1,0.8-0.3,1.3l0.1,0.6
				c0.2,0.9,0.2,1.3,0.2,1.7c0,2-0.1,2.6-0.6,3.4c0.2,0.8,0.2,1.1,0.2,1.7c0,0.4,0,0.9-0.2,1.6l-0.2,1.4l0,0.8
				c0.1,0.3,0.2,0.5,0.2,0.6c0,0.1-0.1,0.2-0.2,0.2l-0.9-0.4l-1-0.6c-0.3-0.2-0.6-0.4-1.1-0.8c-0.9,0.8-1,0.9-2.1,1.2
				c-1.5,0.4-2.1,0.6-2.4,0.8c-0.3,0.2-0.5,0.3-0.6,0.3c-0.4,0-0.6-0.7-0.6-1.7c0-1.5,0.1-2.3,0.3-2.8c-0.9-0.3-1.4-0.4-1.7-0.4
				c-0.1,0-0.2,0-0.7,0.1l-0.2,0c-0.1,0-0.2-0.2-0.2-0.4c0-0.5,0.3-1.4,0.7-2.1c0.6-1,1.5-1.9,2.3-2.1l1.7-0.3
				c1-0.2,1.6-0.7,1.6-1.4c0-0.7-0.4-1.1-1.5-1.5l-2-0.7c-0.7-0.2-1.3-0.5-1.9-0.9c-0.5-0.3-0.8-0.5-1-0.6c-0.2-0.1-0.3-0.1-0.5-0.1
				c-0.4,0-0.7,0.3-0.7,0.8c0,0.8,0.6,1.4,1.4,1.4c0.2,0,0.3,0,0.5-0.1c0.2-0.1,0.4-0.1,0.4-0.1c0.2,0,0.4,0.2,0.4,0.5
				c0,0.8-0.5,2.3-1.1,2.9l-0.6,0.7l-0.4,0.6c-0.2,1.2-1.3,2.9-2.5,3.7c-0.3,0.2-0.5,0.3-0.5,0.4c0,0-0.2,0.3-0.4,0.7
				c-0.1,0.2-0.4,0.6-0.9,1.1c-0.4,0.4-0.8,0.8-1.2,1.1c-0.5,0.4-0.8,0.7-0.9,0.8l-0.5,0.8c-0.1,0.2-0.2,0.2-0.4,0.2
				c-0.4,0-0.8-0.4-1-1.2c-0.2-0.5-0.3-0.7-0.7-0.7c-0.2,0-0.5,0-0.8,0.1l-0.7,0.1h-1.6c-0.9,0-2.1,0.2-2.6,0.5
				c-0.2,0.1-0.4,0.1-0.5,0.1c-0.2,0-0.4-0.2-0.4-0.7c0-1.5,1.1-3.7,2.6-5.2c-0.2-0.9-0.7-1.4-1.3-1.6c-0.5-0.1-0.8-0.2-0.8-0.2
				c-0.1,0-0.1-0.1-0.1-0.2c0-0.3,0.3-0.6,1.1-0.9c1.3-0.6,1.7-0.7,2.5-0.7c0.8,0,1.6,0.3,2.4,1c1.3,1,1.6,1.2,2.2,1.2
				c1,0,1.9-0.9,1.9-1.9c0-0.6-0.4-1.4-1.2-2.5c-1.2-1.6-1.7-2.6-1.7-4c0-0.9,0.2-1.4,1-2.7c0.1-0.2,0.2-0.4,0.2-0.5
				c0-0.3-0.4-0.5-0.9-0.5c-0.5,0-1.1,0.2-2,0.6c-1.4,0.6-2.2,1.2-2.2,1.6c0,0.1,0.1,0.3,0.2,0.4l0.5,0.3c0.1,0,0.1,0.1,0.1,0.2
				c0,0.1-0.1,0.2-0.2,0.4c-0.1,0.1-0.4,0.5-0.9,1.2c-0.7,0.9-1.3,1.5-2,2.1c-0.3,0.2-0.4,0.4-0.5,0.5l-0.4,0.7
				c-0.3,0.6-1.2,1.5-2,2.1c-0.4,0.2-0.6,0.4-0.7,0.5c-0.1,0.1-0.2,0.3-0.4,0.7c-0.5,0.9-1.2,1.9-1.7,2.4l-1.3,1.3
				c-0.4,0.4-0.9,1.5-1.4,2.9c-0.4,1.1-0.6,1.6-0.8,1.6c-0.1,0-0.2-0.1-0.4-0.3c-0.9-1-1.7-1.7-2.1-1.7c-0.1,0-0.3,0.1-0.5,0.2
				c-0.4,0.2-0.8,0.4-1.3,0.5l-1.7,0.3c-1.4,0.3-2,0.6-2.6,1.4c-0.2,0.2-0.3,0.3-0.4,0.3c-0.2,0-0.3-0.2-0.3-0.6l0-0.4
				c0,0,0.1-0.5,0.2-1.3c0.2-1.3,0.6-2.4,0.9-3l0.8-1.4c0.1-0.3,0.2-0.5,0.2-0.8c0-1.1-1-1.9-2.5-2.2c-0.3,0-0.5-0.2-0.5-0.3
				c0-0.2,0.4-0.6,0.9-1.1c1-0.7,2.1-1.2,2.8-1.2c0.5,0,1.2,0.2,2.1,0.6l1,0.4c0.4,0.2,0.7,0.2,1,0.2c1.1,0,2.1-1,3.4-3.2
				c0.6-1,0.8-1.7,0.8-2.4c0-1.2-0.5-1.9-1.5-1.9c-0.7,0-1.4,0.3-2,0.9c-0.5,0.5-0.8,1-0.8,1.5l0,0.5l0,0.2c0,0.4-0.1,0.5-0.4,0.5
				c-0.4,0-0.8-0.3-1.6-1.3c-0.3-0.4-0.8-0.9-1.3-1.5c-1.4-1.7-1.7-2.3-1.8-4c-1.6-2-2-3.1-2-4.3l0.1-1c-1.1-1.4-1.4-1.9-1.4-3.2
				c0-0.6,0-0.8,0.3-1.2c-0.6-0.8-0.7-1.2-0.9-1.8l-0.2-1c-0.2-0.7-0.4-1.2-0.7-1.7c-0.4-0.6-0.5-0.7-0.5-0.9c0-0.5,0.5-0.8,1.6-1.1
				l0.4-0.1c-0.1-0.5-0.1-0.8-0.1-1c0-0.3,0-0.5,0.1-1.1l0.3-1.7c0.1-0.7,0.2-1.2,0.2-1.5c0-0.4-0.1-0.7-0.3-1.5
				c-0.1-0.5-0.3-0.8-0.5-1.1c-0.2-0.3-0.3-0.5-0.3-0.6c0-0.2,0.2-0.3,0.4-0.3c0.1,0,0.3,0.1,0.5,0.2c1.6,0.9,3.3,2.2,4.5,3.6
				c1.1,1.2,1.4,2.1,1.6,4.8c1.4,1.1,2,2,2,3.5c0,0.9-0.3,1.8-0.9,2.8c-0.6,0.9-0.9,1.4-0.9,1.4c-0.3,0.5-0.4,1-0.4,1.6
				c0,0.8,0.3,1.6,0.9,2.8c0.7,1.2,1.3,1.8,2.1,1.8c1.2,0,2.3-2.1,2.3-4.4l0-0.5v-1.3l0.1-1.1l0.1-1.4l0.1-1.1l0-0.6
				c0-0.5-0.1-0.6-1.5-2.1c-1.6-1.7-2.3-3.1-2.3-4.5c0-1.3,1.1-2.3,2.4-2.3c0.3,0,0.5,0,1,0.2V60l0-1l0.3-1.2c0.2-1,0.3-1.1,0.7-1.1
				l0.2,0.1l0.8,0.7l1,0.7l0.3,0.3c0.1-0.6,0.1-0.7,0.6-1.3c0.2-0.3,0.5-0.6,0.7-0.9l0.5-0.7l0.3-0.4c0.2-0.3,0.3-0.4,0.4-0.4
				c0.1,0,0.2,0.2,0.4,0.7c0.1,0.2,0.2,0.4,0.4,0.6l0.6,0.5c0.5,0.4,0.8,1,1,1.9c0.4-0.5,0.5-0.6,0.9-0.8l0.7-0.4
				c0.3-0.2,0.4-0.2,0.5-0.2c0,0,0.1,0.1,0.2,0.3c0.1,0.2,0.2,0.5,0.4,0.7c0.6,1,0.7,1.1,0.7,1.8l0,0.4v0.6c1.5,0.4,2.1,1.2,2.1,2.9
				c0,1.3-0.6,2.5-1.8,4c-0.8,1-0.9,1.3-0.9,2c0,3.3,2.5,5.3,6.7,5.3l3.1,0c2,0,3.2,0.2,5.1,0.8c2.2,0.7,2.9,0.9,3.5,0.9
				c0.5,0,0.9-0.3,0.9-0.6c0-0.7-1.1-1.2-4.9-2.3c-7.7-2.2-11-5.3-11-10.4c0-3.9,3.3-7,7.5-7c1.3,0,3.4,0.4,4.6,0.8l1.9,0.7
				c0.4,0.1,0.7,0.2,1,0.2c0.7,0,0.9-0.4,1-1.6c0-0.5,0.2-0.8,0.6-0.8c0.5,0,1.4,0.8,2.1,1.7c0.7,1,1.2,2.3,1.2,3.1
				c0,1-0.5,1.7-1.6,2.4c-1,1.6-2.3,2.3-4.1,2.3c-1.3,0-3.6-0.9-6.4-2.6c-1.1-0.7-1.6-0.8-2.2-0.8c-0.8,0-1.4,0.5-1.4,1.2
				c0,0.7,0.5,1.1,1.9,1.6c2.2,0.8,2.7,1,3.3,1.8c2.4,0.4,3.4,0.8,4.9,2c4.3,1.4,6.6,4,6.6,7.4c0,3.1-2.1,5.3-5,5.3
				C134.8,81.1,134.4,81,133.3,80.8"/>
			<path class="st6" d="M137.9,101.2c-0.1-0.4-0.1-0.6-0.1-0.9l0.1-0.6c0.1-0.9,0.1-1.3,0.1-1.8c0-0.3-0.1-0.6-0.3-0.9l-0.6-0.7
				c-0.4-0.5-0.5-0.9-0.5-1.3c0-0.3,0.1-0.4,0.2-0.4l0.2,0c0,0,0.2,0.1,0.4,0.2c0.2,0.1,0.3,0.2,0.5,0.2c0.3,0,0.4-0.4,0.4-1.3
				c0-1.2-0.2-1.8-0.9-2.3l-0.7-0.5c-0.1-0.1-0.2-0.2-0.2-0.4c0-0.2,0.1-0.4,0.3-0.4c0.1,0,0.3,0,0.5,0.1l0.5,0.1l0.2,0
				c0.2,0,0.2-0.1,0.2-0.4l0-0.2l-0.1-1c-0.1-1-0.3-1.4-0.6-1.4l-0.1,0l-1.2,0.2l-0.2,0c-1.5,0-3.2-1.4-3.6-2.9l-0.9-3
				c-0.3-0.9-1.1-1.9-2.2-2.8c-0.4-0.3-0.7-0.5-1-0.5l-0.8-0.1c-0.2,0-0.3-0.1-0.3-0.2c0-0.2,0.2-0.3,0.5-0.3c1.2,0,2.4,0.2,4.1,0.8
				c1.5,0.5,2.4,0.7,3.1,0.7c2.3,0,3.7-1.2,3.7-3.2c0-1-0.4-2.3-0.9-3.1c-0.5-0.7-1.2-1.4-2.2-2c-0.1-0.1-0.3-0.1-0.4-0.1
				c-0.1,0-0.2,0.1-0.2,0.2l0,0.6l0,0.1c0,0.2-0.1,0.4-0.3,0.4c-0.3,0-0.5-0.3-0.8-0.9c-0.9-1.8-2.2-2.9-3.7-2.9
				c-0.3,0-0.5,0.1-0.5,0.3c0,0.1,0.1,0.4,0.2,0.6c0.1,0.2,0.3,0.5,0.4,0.8c0.1,0.2,0.1,0.3,0.1,0.4c0,0.1-0.1,0.1-0.2,0.1
				c-0.2,0-0.6-0.2-0.8-0.4c-0.5-0.5-0.7-0.7-0.7-0.7l-0.6-0.9c-0.5-0.7-1-1.2-1.9-1.6l-1.2-0.6c-0.2-0.1-0.4-0.2-0.6-0.2
				c-0.1,0-0.2,0.1-0.2,0.2c0,0.1,0.1,0.3,0.2,0.5c0.2,0.4,0.4,0.8,0.4,0.9c0,0.2-0.1,0.3-0.2,0.3c-0.3,0-0.9-0.6-1.7-1.7
				c-0.6-0.8-0.9-1.7-0.9-2.6c0-2,1.5-3.5,3.5-3.5c1,0,2.3,0.4,3.5,1.2l2.2,1.4c0.8,0.5,1.9,0.8,2.6,0.8c0.4,0,0.5,0,1.3-0.2
				c0.2-0.1,0.4-0.1,0.6-0.2c0.1-0.1,0.2-0.2,0.2-0.3c0-0.2-0.1-0.3-0.4-0.3c-1-0.1-3.2-0.9-4.6-1.8c-0.8-0.5-1.3-0.8-1.5-0.9
				c-0.4-0.1-0.6-0.3-0.6-0.5c0-0.1,0.1-0.1,0.2-0.1l0.3,0l2,0.7l2,0.7c1,0.3,2.5,0.7,3.1,0.7c0.9,0,1.5-0.6,1.5-1.5
				c0-0.4-0.1-0.9-0.3-1.3c-0.3-0.6-0.7-1-0.8-1c-0.2,0-0.3,0.2-0.3,0.5l0,0.2l0.1,0.6c0,0.6-0.3,1-0.9,1c-0.2,0-0.5-0.1-0.8-0.1
				l-3-1c-2.6-0.9-3.7-1.1-5-1.1c-3.7,0-6.4,2.5-6.4,5.8c0,3.7,2.5,6,9.1,8.3c6.3,2.2,7.2,2.7,7.2,4.4c0,1-0.9,1.7-2,1.7
				c-0.4,0-0.8,0-1.1-0.1c-0.3-0.1-1.3-0.3-3.2-0.7c-1.9-0.5-3.6-0.7-5.8-0.7c-4.6,0-6.8,0.7-9.3,2.9c-0.6,0.5-0.8,0.6-1.4,0.6
				l-0.3,0l-0.7,0c-0.6,0-1,0.3-1.3,0.8l-0.7,1.3c-0.1,0.2-0.3,0.3-0.5,0.3c-0.5,0-0.7-0.3-1.2-1.4c-0.2-0.6-0.6-1.1-0.9-1.4l-1-0.8
				c-0.1-0.1-0.2-0.2-0.2-0.3c0-0.1,0.1-0.3,0.2-0.4c0.1-0.2,0.3-0.4,0.4-0.7c0.1-0.3,0.2-0.5,0.2-0.6l0-0.4c0-0.1,0.2-0.2,0.3-0.2
				c0.3,0,0.4,0.2,0.4,1.4c0,0.3,0.1,0.7,0.4,1.3l0.5,1.1c0.1,0.1,0.2,0.2,0.4,0.2c0.5,0,1.1-1.1,1.3-2.3c0.1-1,0.2-1.3,0.4-1.3
				c0.2,0,0.3,0.1,0.7,0.9c0.1,0.3,0.3,0.5,0.6,0.7c0.2,0.2,0.4,0.3,0.6,0.3l0.1,0c0.4,0,0.5-0.2,0.6-1.1l0-0.5l-0.1-0.7l-0.1-0.5
				c0-0.3,0.1-0.5,0.3-0.5c0.1,0,0.2,0.1,0.3,0.2l0.5,0.5c0.3,0.3,0.6,0.5,0.9,0.5c0.4,0,0.6-0.2,0.6-0.5c0-0.2-0.1-0.3-0.5-1
				c0-0.1-0.2-0.3-0.3-0.6c-0.4-0.8-0.6-1-1-1l-0.5,0l-0.6,0.2c-0.2,0.1-0.3,0.1-0.4,0.1c-0.1,0-0.1-0.1-0.1-0.2
				c0-0.4,0.3-1.1,0.8-1.9c0.3-0.5,0.6-1.8,0.8-3.7l0.2-2.2c0.1-1.3,0.3-1.8,0.6-1.8c0.1,0,0.2,0,0.2,0.1l0.1,0.7V65
				c0,0.7,0.1,1.2,0.2,1.2c0.2,0,0.5-0.2,0.8-0.6c0.2-0.3,0.4-0.6,0.5-0.9c0.2-0.5,0.2-0.9,0.2-1.2c0-1.1-0.5-1.5-1.9-1.9
				c-0.1,0-0.2-0.1-0.3-0.1l0-0.4v-0.8l-0.1-0.6l-0.2-0.5l-0.2-0.5l-0.4,0.2c-1,0.6-1.2,0.8-1.5,1.2c-0.4,0.5-0.6,0.7-0.7,0.7
				c-0.1,0-0.2-0.1-0.2-0.2l0.2-0.8l0-0.1c0-1-0.6-2-1.6-2.8l-0.3,0.4l-0.3,0.5l-0.6,0.7c-0.3,0.4-0.5,0.9-0.5,1.4l0,0.2l0,0.2
				c0,0.4-0.1,0.5-0.2,0.5l-0.1,0l-0.4-0.5l-0.5-0.6l-0.8-0.5l-0.4-0.3c-0.4,1-0.5,1.1-0.5,2.3l0,0.4c0,0.4-0.1,0.7-0.4,0.7
				c-0.1,0-0.3-0.1-0.6-0.2c-0.2-0.1-0.5-0.2-0.7-0.2c-0.7,0-1.2,0.6-1.2,1.4c0,0.9,0.2,1.4,0.8,2.4c0.4,0.6,0.8,1.1,1.1,1.1
				c0,0,0.1-0.4,0.1-1l-0.1-0.8l0-0.4c0-0.3,0.1-0.5,0.3-0.5c0.3,0,0.4,0.3,0.6,1.1l0.4,1.7l0.4,2.2c0.1,0.6,0.3,1.2,0.6,1.9
				c0.4,0.9,0.6,1.4,0.8,1.6c0.5,0.7,0.6,0.8,0.6,0.9c0,0.1-0.1,0.2-0.2,0.2c-0.1,0-0.2,0-0.4-0.1c-0.2-0.1-0.3-0.2-0.6-0.2
				l-0.3-0.1c-0.8,0-0.9,0.6-0.9,3.7c0,1.9,0.4,4.5,0.9,5.8l1,2.5c0.2,0.4,0.2,0.8,0.2,1.2c0,3.4-4.6,8.9-9.5,11.2
				c-1.9,0.9-2.4,1.9-2.6,4.4c0.8-0.4,1.1-0.5,1.6-0.7c1.4-0.4,1.7-0.6,1.9-1.2l0.2-0.6c0.1-0.3,0.3-0.4,1.2-0.9
				c0.4-0.2,0.6-0.4,0.7-0.6c0.2-0.4,0.4-0.6,0.6-0.6c0.1,0,0.2,0.1,0.2,0.2l0,0.1l-0.5,1.3l-0.1,0.3c0,1,0.5,1.8,1.6,2.3
				c0.1-0.2,0.1-0.4,0.1-0.6c0.2-0.7,0.3-1.2,0.5-1.4l0.9-1.3c0.3-0.5,0.4-0.8,0.4-2l-0.1-1.5l0-0.4c0-0.2,0.1-0.4,0.3-0.4
				c0.2,0,0.3,0.1,0.3,0.1l0.1,0.9c0,0.2,0.2,0.3,0.5,0.3c0.5,0,1-0.6,1.6-1.6c0.2-0.4,0.3-0.7,0.3-1.1c0-0.3-0.1-0.9-0.1-1.4l0-0.3
				c0-0.2,0.1-0.4,0.4-0.4c0.1,0,0.2,0,0.2,0.1l0.3,1.1c0.1,0.4,0.4,0.6,0.6,0.6c0.7,0,1.5-1.5,1.5-3c0-1,0.2-1.3,0.5-1.3
				c0.1,0,0.2,0,0.2,0.1l0.2,0.6c0.1,0.2,0.2,0.4,0.3,0.4c0.1,0,0.4-0.2,0.6-0.6c0.2-0.2,0.3-0.4,0.4-0.6c0.1-0.2,0.1-0.3,0.1-0.5
				c0-0.2,0-0.3-0.4-0.6c-0.3-0.3-0.5-0.6-0.5-1c0-0.7,0.3-1.4,1.1-2.8c0.8-1.3,0.9-1.5,1-1.5c0.2,0,0.3,0.2,0.3,0.4
				c0,0.1,0,0.3-0.1,0.4c-0.1,0.3-0.2,0.5-0.2,0.6c0,0.2,0.2,0.3,0.4,0.3c0.2,0,0.5-0.1,0.8-0.3c0.2-0.1,0.6-0.3,1.3-0.5
				c0.9-0.3,1.4-0.5,1.6-0.6c0.3-0.1,0.6-0.1,1-0.1c0.3,0,0.5,0,0.8,0.1c0.5,0.1,0.9,0.2,1.1,0.2c0.4,0,0.8-0.3,0.8-0.7
				c0-0.2-0.1-0.5-0.3-0.8c-0.2-0.4-0.4-0.6-0.4-0.6c-0.2-0.2-0.3-0.3-0.3-0.4l0.1-0.2c0.1-0.1,0.2-0.2,0.3-0.2
				c0.4,0,1.1,0.8,1.7,1.8c3.7,6,5.4,7.9,8.1,8.7c2.8,0.8,3.5,1.4,3.5,3.1c0,0.9-0.5,2-1.5,3.3c-1.9,2.6-2.5,4.1-2.5,5.8l0,0.4
				c0.2-0.1,0.4-0.2,0.5-0.2c0.4-0.2,0.6-0.3,0.7-0.3l1.2-0.2c0.4-0.1,0.7-0.5,0.7-1l0-0.1l-0.1-1l0-0.2c0-0.6,0.3-1.1,0.6-1.1
				c0.1,0,0.3,0.1,0.4,0.3l0.7,1.6C136.6,100.5,136.9,100.8,137.9,101.2"/>
			<path class="st6" d="M99.7,69.2l0,0.7l0,0.5c0,0.8,0.1,1.1,0.4,1.1c0.3,0,0.8-0.6,1-1.2c0.1-0.4,0.2-0.9,0.2-1.3
				c0-0.2-0.1-0.4-0.2-0.9c-0.2-0.5-0.4-0.7-0.7-0.7C99.9,67.4,99.7,67.9,99.7,69.2"/>
			<path class="st6" d="M96.4,60.6l0.7,0.7c1,1,1.6,2.9,1.6,4.8l0,0.8L98.5,69l0,1.8c0,6.1,1.8,10.2,4.4,10.2c0.7,0,1.5-0.6,2-1.5
				c0.1-0.2,0.3-0.3,0.4-0.3c0.1,0,0.2,0.1,0.2,0.4l0.1,1l0.1,0.9c0,0.4,0.1,0.7,0.1,1c0.1,0.4,0.1,0.8,0.1,0.9
				c0,0.5-0.1,0.5-1.2,0.7c-0.4,0.1-0.9,0.2-1.3,0.5c-0.7,0.5-1.1,0.8-1.2,0.9l-0.5,1.1c-0.1,0.1-0.2,0.2-0.3,0.2
				c-0.3,0-0.6-0.4-1.2-1.3c-0.5-0.8-0.7-1.3-0.7-1.5c0-0.1,0.1-0.2,0.4-0.2l0.1,0l0.6,0l0.4,0l0.4,0c0.2,0,0.3-0.2,0.3-0.3
				c0-0.1-0.1-0.2-0.2-0.3l-2.1-0.9c-0.5-0.2-1-0.8-1.5-1.5c-0.5-0.9-0.9-1.6-0.9-2c0-0.3,0.1-0.5,0.4-0.5c0.1,0,0.2,0,0.3,0.1
				c0.2,0.1,0.4,0.2,0.5,0.2c0.1,0,0.2,0,0.2-0.1c0.1-0.1,0.1-0.2,0.1-0.2c0-0.1-0.1-0.3-0.4-0.5c-1.7-1.2-2.8-2.7-2.8-4
				c0-0.4,0.1-0.5,0.3-0.5l0.3,0c0.3,0.1,0.6,0.1,0.7,0.1c0.3,0,0.4-0.1,0.4-0.4c0-0.1-0.2-0.3-0.4-0.4c-1.2-0.6-1.4-0.9-2.2-2.6
				c-0.6-1.3-0.9-1.8-1.4-2.4c0.6-0.3,0.9-0.4,1.4-0.4c0.6,0,1,0.4,1.5,1.5c0.3,0.7,0.6,1.2,0.8,1.2c0.1,0,0.1-0.1,0.1-0.5
				c0-0.5-0.1-0.9-0.2-1.4c-0.1-0.4-0.2-0.8-0.1-1l-0.1-0.7L96.1,66c-0.5-0.3-0.8-0.9-0.8-1.5c0-0.3,0-0.6,0.1-0.8
				c0-0.1,0.1-0.4,0.3-1.1c0.2-0.8,0.3-1.5,0.3-2l0-0.4L96.4,60.6z"/>
			<path class="st6" d="M102,94.2c-1-0.2-1.1-0.2-2.2-0.7c-0.8-0.3-1.3-0.5-1.8-0.5c-0.7,0-1.3,0.2-2,0.8l0.4,0.3l0.9,0.7l0.9,0.7
				c0.2,0.2,0.5,0.3,0.8,0.3C100,95.8,100.8,95.4,102,94.2"/>
			<path class="st6" d="M120,102.7c0.3-0.6,0.4-0.7,0.9-1.2c1.3-1.1,1.9-1.9,1.9-2.6v-0.5v-0.6c0-0.6,0.1-0.8,0.4-0.8
				c0.1,0,0.3,0.1,0.3,0.1l0.2,0.6c0.1,0.1,0.2,0.2,0.4,0.2c0.3,0,0.6-0.2,1.1-1.2c0.2-0.4,0.3-0.7,0.3-0.9c0-0.2,0-0.3-0.1-0.5
				c0-0.1-0.1-0.3-0.3-0.7c-0.1-0.2-0.2-0.6-0.2-0.7c0-0.3,0.2-0.5,0.4-0.5c0.1,0,0.3,0.1,0.3,0.1l0.4,0.5c0.1,0.1,0.1,0.2,0.2,0.2
				c0.2,0,0.5-0.2,0.6-0.4l0.4-0.7c0.1-0.2,0.1-0.3,0.1-0.4c0-0.2-0.1-0.3-0.4-0.4l-0.7-0.3c-0.8-0.3-1.4-1.6-1.4-2.9
				c0-0.1,0-0.3,0.1-0.6l0.3-0.8c0.1-0.3,0.1-0.5,0.1-0.8c0-0.5-0.1-0.9-0.5-1.4c-0.3-0.5-0.5-0.8-0.6-1c-0.3-0.7-0.4-0.9-0.7-0.9
				c-0.2,0-0.3,0.1-0.6,0.2l-0.5,0.3l-0.7,0.7l-0.7,0.3c-0.4,0.2-0.8,1-0.8,1.7c0,1,0.2,1.6,1.7,4.3c0.6,1.2,0.9,2,0.9,2.7
				c0,1.9-1.9,3.5-5.1,4.1c-3.8,0.8-4.6,1.4-5,3.8c0.7-0.3,0.9-0.4,2.1-0.4l0.7,0l0.1,0c0.6,0,0.7,0,1.1-0.6c0.5-0.6,0.9-1,1.5-1.3
				l0.7-0.3l0.6-0.3l0.2,0c0.2,0,0.3,0.1,0.3,0.2c0,0.2-0.2,0.4-0.4,0.8c-0.5,0.5-0.7,1.1-0.7,1.5
				C119.5,101.8,119.6,102.2,120,102.7"/>
			<path class="st6" d="M114.1,95.5c0.5,0.3,1.1,0.8,1.4,1.3c0.4,0.6,0.5,0.7,1,0.7c0.2,0,0.4,0,0.7-0.1l0.4-0.1
				c0.8-0.2,1-0.3,1-0.5c0-0.1-0.1-0.3-0.2-0.4l-0.6-0.5l-0.5-0.5c-0.3-0.3-1-0.5-1.5-0.5C115.3,94.9,114.8,95.1,114.1,95.5"/>
			<path class="st6" d="M129.2,98l0.3,0l0.5,0l0.4,0l0.3,0c0.5,0,0.7-0.1,0.9-0.2c0.3-0.2,0.6-0.6,0.9-1.1c0.1-0.2,0.2-0.4,0.2-0.5
				c0-0.3-0.3-0.5-0.8-0.5C130.5,95.7,129.7,96.4,129.2,98"/>
			<path class="st7" d="M111.8,65.8c0.1,0.4,0.3,0.8,0.5,0.8c0.2,0,0.5-0.7,1-1.5c0.7-1.1,1.2-2.1,1.2-2.7c0-0.2-0.1-0.3-0.2-0.3
				l-0.1,0l-0.5,0.5c-0.3,0.3-0.9,0.6-1.5,0.8c-0.6,0.2-0.8,0.4-0.8,0.8l0.1,0.4l0.4,0.8L111.8,65.8z"/>
			<path class="st7" d="M107.7,62.3c-0.2-0.1-0.4-0.2-0.5-0.2c-0.2,0-0.3,0.1-0.3,0.3l0,0.1c0,0.3,0.1,0.5,0.2,0.8
				c0.2,0.7,0.5,1.2,0.6,1.3l0.7,1.2c0.3,0.4,0.8,0.6,1,0.6l0,0c0.1,0,0.2-0.1,0.2-0.2l0.1-0.9l0.2-0.8l0-0.2c0-0.2-0.1-0.4-0.4-0.5
				l-0.8-0.4L107.7,62.3z"/>
			<path class="st7" d="M110.8,68.3l-0.2,0l-0.5,0c0,0-0.2-0.1-0.6-0.3c-0.2-0.1-0.4-0.2-0.7-0.2c-0.4,0-0.7,0.3-0.7,0.7
				c0,0.4,0.2,1,0.6,1.9c0.2,0.4,0.4,0.9,0.6,1.5c0.5,1.3,1,1.9,1.7,1.9c0.6,0,1.1-0.5,1.5-1.5l0.5-2.1c0.2-0.7,0.9-0.9,0.9-1.4
				c0-0.5-0.6-1-1.1-1l-0.3,0.1l-0.7,0.5L110.8,68.3z"/>
			<path class="st6" d="M110.8,69.6h-0.6c-0.1,0-0.2,0.1-0.2,0.1c-0.1,0.1-0.1,0.2-0.1,0.2l0.2,1.1l0.2,1c0.1,0.5,0.2,0.7,0.6,0.7
				c0.5,0,0.8-0.3,0.9-0.9l0.1-1c0.1-0.7,0.1-1,0.1-1.1c0-0.1-0.1-0.2-0.1-0.3c-0.1-0.1-0.2-0.1-0.2-0.1l0,0L110.8,69.6z"/>
		</g>
		<g>
			<path d="M47.2,168.8c0.4,1,0.5,1.5,0.6,2.2l0.1,2c0.1,2,0.7,2.9,2,2.9c0.4,0,0.8-0.1,1-0.3l0.5-0.5l0.2-0.1
				c0.3,0,0.5,0.2,0.5,0.6l-0.1,0.8c0,0.3,0,1.1,0.2,2.1c0.1,0.6,0.1,1.3,0.1,1.9c0,1-0.1,1.4-0.4,2.3c0.3,0.9,0.5,2,0.5,2.8
				c0,1-0.2,1.7-0.6,2.3c0.2,0.8,0.2,1.1,0.2,1.6c0,0.5-0.1,1.1-0.2,1.8c-0.2,1-0.2,1.7-0.2,2.2l0,0.1c0,0.3-0.1,0.4-0.3,0.4
				c-0.2,0-0.4-0.1-0.6-0.4c-0.3-0.4-0.5-0.5-0.7-0.5c-0.3,0-0.4,0.2-0.9,1.6c-0.1,0.4-0.5,1-1.1,1.7c-0.5,0.6-0.8,1-0.8,1.4
				c-0.1,0.6-0.2,0.9-0.3,1c-0.1,0.1-0.2,0.2-0.3,0.2l-0.1,0c-0.8,0-1.6-1.6-2.6-4.8c-0.3-0.9-0.6-1.3-1.1-1.3
				c-0.3,0-0.7,0.2-0.8,0.5L42,194c0,0.1-0.1,0.2-0.2,0.2c-0.4,0-0.9-0.7-1.3-1.5c-0.3-0.7-0.5-1.5-0.5-2.1c0-1.5,1.1-2.5,4.3-4.4
				c1.4-0.8,2-1.8,2-3.6c0-1.4-0.4-2.3-1.7-3.2c-1-0.7-1.6-1-2.1-1c-0.4,0-0.8,0.3-0.8,0.7c0,0.4,0.3,0.7,0.9,0.9
				c0.7,0.3,1,0.5,1,0.8c0,0.3-0.3,0.9-0.8,1.7c-0.5,0.8-0.8,1-1.5,1.5c-0.2,1.3-0.8,2.1-2.2,3c-0.3,0.8-0.4,1.1-0.9,1.7l-1,1.3
				c-0.3,0.4-0.6,1.1-0.7,1.4c-0.1,0.7-0.2,0.8-0.4,0.8c-0.4,0-1.1-0.7-1.9-1.6c-0.5-0.6-0.6-0.8-0.6-1.5c-0.5,0.4-0.6,0.4-1.6,0.6
				c-0.6,0.1-1,0.2-1.3,0.3c-0.7,0.4-0.9,0.5-1.1,0.5c-0.2,0-0.3-0.1-0.3-0.4l0-1c0-1.4,0.6-3.1,1.4-4.1c-0.8-0.7-1.6-1.1-2.3-1.2
				c-0.3,0-0.3-0.1-0.3-0.2c0-0.2,0.2-0.5,0.4-0.9c0.3-0.4,0.6-0.7,0.8-0.9c0.7-0.6,1.8-1,2.7-1c0.6,0,1.5,0.2,2.7,0.7
				c0.4,0.2,0.8,0.2,1.1,0.2c0.5,0,0.8-0.3,0.8-0.9c0-0.8-0.4-2.2-1.4-4.3c-0.6-1.4-0.9-2.4-0.9-3.1c0-1.6,0.8-3.3,1.7-3.8
				c-0.5-0.2-0.7-0.3-1-0.3c-0.5,0-0.8,0.1-1.4,0.5c-0.7,0.4-1.1,0.8-1.1,1c0,0.1,0.1,0.2,0.4,0.4c0.4,0.3,0.4,0.3,0.4,0.7
				c0,1.2-1,2.7-2.3,3.7c-0.3,1.6-1,2.6-2.5,3.3c-0.2,0.9-0.3,1.1-1,2.1c-1.2,1.7-1.5,2.2-1.7,3.2c-0.1,0.5-0.2,0.7-0.4,0.7
				c-0.2,0-0.6-0.3-1.1-0.8c-0.4-0.4-0.6-0.7-0.7-0.9c-0.2-0.3-0.3-0.6-0.5-1.5c-0.3,0.1-0.4,0.1-0.7,0.1l-0.7,0l-0.5,0
				c-1,0-2.1,0.2-2.7,0.6c-0.2,0.1-0.3,0.2-0.4,0.2c-0.3,0-0.5-0.6-0.5-1.4c0-1.7,0.5-3.1,1.6-4.6c-0.4-0.3-0.5-0.5-0.9-0.8
				c-0.2-0.2-0.3-0.3-0.4-0.3l-0.5-0.3c-0.2-0.1-0.3-0.2-0.3-0.3c0-0.2,0.7-0.9,1.5-1.4c0.9-0.6,1.6-0.8,2.3-0.8
				c0.8,0,1.2,0.2,2.1,1c0.7,0.6,1.1,0.8,1.4,0.8c0.2,0,0.5-0.2,0.7-0.4c0.2-0.2,0.2-0.5,0.2-0.7c0-0.9-1.1-2.4-2.2-3.2
				c-0.9-0.6-1.8-0.9-2.8-0.9c-1.3,0-2.4,0.6-2.9,1.7l-0.5,1.1c-0.1,0.3-0.3,0.4-0.4,0.4c-0.3,0-0.5-0.1-1.5-1.4l-1.2-1.4
				c-0.4-0.4-0.6-0.8-0.7-1.2c-0.1-0.3-0.2-0.6-0.2-0.6c0-0.1-0.2-0.2-0.5-0.4c-0.9-0.7-1.6-2-2-3.9c0-0.1-0.1-0.3-0.1-0.6
				c-1.1-1.4-1.8-3.1-1.8-4.6c0-0.2,0-0.3,0.1-0.6c-0.7-0.7-0.7-0.8-1.3-2.6c-0.4-1.3-0.6-1.8-1.1-2.4C6,152.4,6,152.3,6,152.2
				c0-0.3,0.4-0.5,1.1-0.6c0.6-0.1,0.7-0.1,0.9-0.1l0.9,0.1l-0.1-1.3c0-0.8,0.1-1.2,0.2-2.1c0.1-0.4,0.1-0.8,0.1-1
				c0-0.1,0-0.4-0.1-0.8c0-0.3-0.1-0.6-0.1-0.7c-0.1-0.2-0.1-0.3-0.1-0.4c0-0.2,0.1-0.2,0.3-0.2c0.1,0,0.3,0.1,0.6,0.2
				c0.8,0.4,1.5,0.8,2,1.2c1.6,1.3,2.9,3.2,2.9,4.4l0,0.4c-0.1,0.4-0.1,0.6-0.1,0.7c0,0.2,0.1,0.5,0.3,0.8l0.5,0.7
				c0.5,0.6,0.7,1.3,0.7,1.8c0,0.4-0.1,0.6-0.8,1.7c-0.6,0.8-0.8,1.4-0.8,2.1c0,0.8,0.3,1.9,0.9,3c0.5,1,1.2,1.5,1.8,1.5
				c1,0,1.5-0.9,1.7-3.4c0.1-1.3,0.2-2.5,0.4-3.5l0-0.6c0-0.3-0.1-0.5-0.5-0.9l-1.4-1.6c-1.3-1.6-1.7-2.4-1.7-3.5
				c0-1.3,0.8-2.2,2.1-2.2l0.6,0.1l0-0.4c0-0.3,0.1-0.7,0.2-1.3c0.3-1,0.7-1.8,0.9-1.8c0.1,0,0.2,0.1,0.5,0.2c0.1,0,0.4,0.2,0.8,0.3
				c0.3,0.1,0.4,0.2,0.9,0.5c0.2-0.8,0.4-1.2,0.7-1.6c0.6-0.8,1.3-1.4,1.5-1.4c0.1,0,0.4,0.2,0.8,0.6l0.9,0.9
				c0.1,0.2,0.3,0.5,0.5,0.9l0.2,0.4c0.2-0.1,0.4-0.3,0.6-0.3c0.4-0.2,0.6-0.4,0.7-0.4c0.6-0.3,0.9-0.4,0.9-0.4
				c0.2-0.2,0.4-0.2,0.5-0.2c0.2,0,0.2,0.3,0.6,1.8c0.2,1.1,0.3,1.3,0.3,2.1c1.5,0.2,2.2,1.1,2.2,2.7c0,1.5-0.7,3-2.3,4.7
				c-0.4,0.5-0.5,0.7-0.5,1.1c0,4.1,1.4,5.4,6.6,6c3.2,0.3,4.1,0.5,7.9,1.7c2,0.6,3.2,0.8,3.9,0.8c0.9,0,1.4-0.3,1.4-0.9
				c0-0.9-0.6-1.1-4.3-1.9c-8.6-1.8-12-4.8-12-10.5c0-4.1,3-7.1,7.1-7.1c1.8,0,3.4,0.5,5.9,2c2.3,1.4,2.8,1.6,3.4,1.6
				c0.6,0,0.9-0.4,0.9-1.4c0-0.7,0.2-1,0.6-1c0.4,0,0.9,0.4,1.4,1c0.8,0.9,1.1,1.4,1.1,2.6c0,1.7-0.9,2.8-2.7,3.3
				c-0.2,0.2-0.3,0.4-0.4,0.5c-1,1.1-1.8,1.4-3.3,1.4c-1.3,0-3-0.5-4.1-1.4l-2.2-1.6c-1-0.7-1.7-1-2.3-1c-1,0-1.5,0.6-1.5,1.5
				c0,0.9,0.6,1.7,1.6,2l2.1,0.7c0.7,0.2,1.1,0.4,2,0.8c0.5-0.1,0.8-0.1,1-0.1c1.3,0,2.7,0.4,3.9,1c0.4,0.2,0.7,0.3,0.8,0.4l1.2,0.3
				c2.6,0.7,4.8,3.7,4.8,6.6c0,3.3-2.1,5.3-5.6,5.3L47.2,168.8z"/>
			<path class="st6" d="M46.4,196.5l0.3-0.6l0.7-0.7c0.6-0.6,0.8-1.4,0.8-2.4c0-0.5-0.1-1-0.2-1.5c-0.1-0.4-0.2-0.7-0.2-0.8
				c0-0.3,0.2-0.6,0.4-0.6c0.1,0,0.2,0.1,0.4,0.2l0.7,0.8c0.4,0.5,0.6,0.6,1.1,0.7l0-0.7l0-0.8c0-1.1-0.4-2.4-1-3.2
				c-0.4-0.5-0.5-0.8-0.5-0.9c0-0.2,0.1-0.3,0.3-0.3c0,0,0.1,0,0.2,0.1c0.4,0.3,0.7,0.5,0.8,0.5c0.2,0,0.4-0.6,0.4-1.2
				c0-0.9-0.4-1.9-1-2.6c-0.3-0.4-0.5-0.6-0.6-0.7c-0.1-0.1-0.1-0.2-0.1-0.3c0-0.2,0.2-0.3,0.4-0.3c0.2,0,0.3,0,0.6,0.2
				c0.1,0.1,0.3,0.1,0.4,0.1c0.4,0,0.5-0.5,0.5-1.9l0-0.6l0-0.8c-0.1-1-0.1-1.2-0.6-1.2h-0.4c-2.3,0-3.3-1.4-3.9-5.3
				c-0.4-2.8-1.5-4.8-2.7-5.2c-0.8-0.3-1-0.4-1-0.6c0-0.1,0.2-0.3,0.4-0.3c0.2,0,0.6,0.1,0.9,0.2c1.9,0.7,3.4,1.1,4.8,1.1
				c2.2,0,4-1.6,4-3.7c0-1.6-0.8-3.2-2.1-4.5c-0.4-0.4-0.8-0.6-1.2-0.7l-0.1,0l-0.2,0.1l0.1,0.7l0.2,0.5l0.1,0.2
				c0,0.1-0.1,0.2-0.2,0.2c-0.1,0-0.3-0.1-0.3-0.2l-0.8-1.3c-0.7-1-2.1-1.8-3.2-1.8c-0.4,0-0.6,0.2-0.6,0.4c0,0.1,0.1,0.4,0.3,0.5
				c0.2,0.3,0.4,0.6,0.4,0.7l-0.1,0.2c0,0.1-0.1,0.2-0.2,0.2l0,0c-0.2,0-0.3-0.1-1.4-1.3c-0.8-1-2.5-1.9-3.4-1.9
				c-0.1,0-0.3,0.1-0.3,0.1c-0.1,0.1-0.1,0.1-0.1,0.2c0,0.1,0.1,0.3,0.3,0.5c0.3,0.3,0.5,0.6,0.5,0.7c0,0.1-0.1,0.2-0.3,0.2
				c-0.3,0-0.9-0.4-2-1.3c-1.7-1.4-2.5-2.7-2.5-4.2c0-1.8,1.3-3.2,2.9-3.2c1,0,2.2,0.5,3.1,1.1l2.3,1.7c1,0.8,2.3,1.2,3.7,1.2
				c0.3,0,0.6-0.1,0.8-0.2c0.2-0.1,0.3-0.2,0.3-0.3c0-0.1-0.2-0.1-0.4-0.2c-0.8-0.2-1.5-0.5-2-0.8l-2.3-1.8
				c-0.9-0.7-1.5-1.1-1.8-1.3c-1.2-0.6-1.5-0.8-1.5-0.9c0-0.1,0.1-0.1,0.3-0.1c0.1,0,0.3,0,0.4,0.1l1.2,0.5c0.4,0.2,1,0.6,2,1.2
				c2.5,1.7,3.8,2.2,5.2,2.2c1.4,0,2.4-1,2.4-2.3c0-0.3-0.1-0.6-0.2-0.8l-0.2-0.5c-0.1-0.2-0.2-0.3-0.3-0.2l-0.1,0.2l-0.1,1
				c0,0-0.1,0.2-0.1,0.3c-0.1,0.2-0.2,0.3-0.3,0.5c-0.3,0.2-0.5,0.3-0.9,0.3c-0.7,0-1.5-0.4-3.7-1.8c-2.2-1.4-4.2-2.1-5.8-2.1
				c-3.4,0-6.1,2.7-6.1,6c0,4.7,2.8,6.8,11.8,8.7c3.4,0.7,4.9,1.7,4.9,3.2c0,1.4-1.1,2.3-2.9,2.3c-0.5,0-1,0-1.3-0.1
				c-0.3-0.1-1.9-0.5-4.8-1.3c-2-0.6-4.2-0.9-6.2-0.9c-3.5,0-5.9,1-7.5,3.3c-0.2,0.3-0.4,0.4-0.5,0.4c-0.1,0-0.2-0.1-0.4-0.2
				l-0.7-0.5c-0.5-0.4-1.2-0.6-1.7-0.6c-0.4,0-0.7,0.1-1,0.4c-0.2,0.2-0.4,0.3-0.5,0.3c-0.3,0-0.7-0.6-1.1-1.3
				c-0.5-1.1-0.8-2.2-0.8-3.2c0-0.5,0.1-0.8,0.4-0.8c0.2,0,0.3,0.1,0.4,0.4l0.4,1.4c0.2,0.8,0.6,1.4,1,1.4c0.1,0,0.4-0.2,0.7-0.6
				c0.2-0.2,0.3-0.4,0.4-0.7c0.3-0.9,0.4-1,0.6-1c0.3,0,0.4,0.2,0.6,1c0,0.2,0.1,0.4,0.3,0.8c0.2,0.4,0.4,0.6,0.6,0.8
				c0.1,0.2,0.3,0.2,0.5,0.2c0.4,0,0.8-0.7,0.8-1.4l0-0.2l-0.1-0.9c0-0.3,0.1-0.4,0.2-0.4c0.1,0,0.2,0.1,0.3,0.2
				c0.2,0.3,0.5,0.5,0.8,0.7c0.3,0.2,0.5,0.2,0.7,0.2c0.1,0,0.3-0.1,0.5-0.2c0.1-0.1,0.2-0.3,0.2-0.4c0-0.1-0.2-0.3-0.7-0.8
				c-0.3-0.3-0.6-0.9-0.9-1.9c-0.1-0.4-0.3-0.6-0.4-0.6c0,0-0.1,0-0.3,0.1l-0.6,0.2l-0.4,0.2l-0.2,0c-0.2,0-0.4-0.1-0.4-0.3
				c0-0.2,0.4-0.7,0.9-1.1c0.4-0.3,0.6-0.8,0.6-1.3c0-0.8,0.2-1.4,0.3-1.4l0.1-1.6c0.1-0.8,0.4-2.4,0.7-3.2c0.1-0.2,0.1-0.3,0.2-0.3
				c0.1,0,0.2,0.4,0.2,0.7l0,0.2l0,0.5c0,0.6,0.1,0.9,0.3,0.9c0.2,0,0.4-0.3,0.6-0.8l0.4-1.1c0.1-0.3,0.2-0.6,0.2-0.9
				c0-0.9-0.5-1.6-1.3-1.6l-0.3,0.1c-0.2,0.1-0.3,0.1-0.3,0.1c-0.2,0-0.5-0.3-0.5-0.6l0-0.7l0-0.9l-0.2-1l0-0.5l-0.4,0.2l-0.5,0.4
				l-0.7,0.6L26,147c-0.1,0.1-0.2,0.1-0.3,0.1c-0.4,0-0.4-0.1-0.4-0.8v-0.2c0-0.6-0.3-1-1.2-2.2c-0.1-0.1-0.1-0.2-0.2-0.3l-0.2,0.3
				l-0.5,0.8l-0.5,1.3l-0.1,0.8c0,0.2-0.1,0.4-0.2,0.4c-0.1,0-0.3-0.1-0.4-0.3c-0.7-0.8-0.9-1-2-1.3l-0.1,0.3
				c-0.2,0.6-0.3,0.9-0.3,1l0,0.9v0.4l0,0.3c0,0.3-0.1,0.4-0.3,0.4l0,0c0,0-0.1-0.1-0.3-0.2c-0.1-0.1-0.3-0.1-0.6-0.1
				c-0.9,0-1.4,0.5-1.4,1.2c0,0.6,0.2,1,1.1,2.3c0.4,0.6,0.8,1,1,1c0.1,0,0.2-0.3,0.2-0.7l-0.1-0.6c-0.1-0.3-0.1-0.5-0.1-0.7
				c0-0.3,0.1-0.4,0.2-0.4c0.4,0,0.9,1.2,1,2.9l0.2,1.7c0.1,0.6,0.3,1.2,0.6,1.9c0.4,0.9,0.8,1.5,1.2,1.7c0.4,0.3,0.7,0.6,0.7,0.8
				c0,0.1-0.1,0.3-0.2,0.3c0,0-0.3-0.1-0.9-0.3l-0.4-0.1c-0.9,0-1.2,0.5-1.2,2.1c0,1.9,1.3,4.7,2.8,5.9l2.1,1.7
				c1.1,0.9,1.9,2.3,1.9,3.4c0,1.4-1.5,2.7-4.1,3.6l-1.5,0.6c-1.2,0.4-1.7,1.2-2.1,3.5c0.6-0.2,0.9-0.2,1.3-0.2l0.2,0l0.7,0
				c0.6,0,1.1-0.4,1.1-0.9v-0.4c0-0.1,0.2-0.3,0.4-0.4c0.4-0.2,0.6-0.3,0.7-0.3l0.5-0.4c0.1-0.1,0.2-0.1,0.3-0.1
				c0.1,0,0.3,0.1,0.3,0.3c0,0.1,0,0.3-0.1,0.4c-0.2,0.4-0.2,1-0.2,1.6c0,1.1,0.2,1.8,0.8,2.6c0.1-0.3,0.1-0.5,0.1-0.6
				c0.1-0.2,0.4-0.7,0.8-1.3c0.7-1,1.2-2.2,1.2-2.8l0-0.2l-0.1-1.1c0-0.2,0.1-0.4,0.2-0.5c0.1-0.1,0.2-0.1,0.3-0.1
				c0.2,0,0.3,0.1,0.5,0.5c0.1,0.3,0.2,0.4,0.3,0.4c0.2,0,0.5-0.4,0.7-0.9c0.2-0.4,0.2-0.7,0.2-1c0-0.2,0-0.4-0.1-0.6
				c-0.1-0.2-0.1-0.4-0.1-0.5c0-0.1,0-0.2,0.2-0.3c0.1-0.1,0.2-0.1,0.2-0.1c0.1,0,0.2,0,0.3,0.1l0.4,0.3c0.1,0.1,0.3,0.1,0.4,0.1
				c0.2,0,0.5-0.2,0.7-0.5c0.4-0.6,0.7-1.1,0.7-1.3c0-0.1-0.1-0.2-0.3-0.4c-0.9-0.7-1.5-1.6-1.5-2.5c0-0.2,0-0.4,0.1-0.7l0.5-1.3
				c0.2-0.6,0.4-1,0.4-1l0.1-0.1c0.2,0,0.3,0.1,0.3,0.4c0,0.2,0,0.3-0.1,0.5c-0.1,0.3-0.2,0.7-0.2,0.9c0,0.3,0.2,0.5,0.5,0.5
				c0.2,0,0.5-0.1,0.8-0.2c1.4-0.6,2.5-0.9,3.2-0.9c0.6,0,1,0.1,1.7,0.6c0.2,0.1,0.3,0.2,0.4,0.2c0.1,0,0.2-0.1,0.3-0.2
				c0.1-0.1,0.1-0.2,0.1-0.2c0-0.2-0.1-0.4-0.3-0.6c-0.2-0.3-0.3-0.5-0.3-0.7c0-0.1,0.1-0.2,0.3-0.2c0.7,0,1.9,2.3,3,6
				c0.9,2.9,1.1,3.2,3.9,4.8c2.3,1.3,3.2,2.6,3.2,4.8c0,2.1-0.6,4.8-1.8,8.3c-0.4,1.1-0.5,1.9-0.5,2.5c0,0.5,0.1,1,0.5,2.2
				c0.2,0.6,0.3,1,0.3,1.1C46.1,196,46.2,196.2,46.4,196.5"/>
			<path class="st6" d="M35.6,190c0.3-0.6,0.4-0.8,0.9-1.6c0.8-1.1,1-1.7,1-2.3v-0.7c0-0.7,0.1-1,0.4-1c0.1,0,0.2,0.1,0.2,0.1
				l0.2,0.4c0.1,0.1,0.2,0.2,0.3,0.2c0.1,0,0.4-0.2,0.5-0.4c0.3-0.5,0.5-1.2,0.5-1.7l0-0.5l0-0.5c0-0.3,0.1-0.4,0.4-0.4
				c0.2,0,0.3,0.1,0.4,0.4c0.1,0.2,0.2,0.4,0.4,0.4c0.1,0,0.3-0.1,0.4-0.3l0.4-0.6l0.3-0.4l0.1-0.2c0-0.1-0.1-0.2-0.4-0.4
				c-0.9-0.6-1.2-1.6-1.3-3.3c-0.1-1.3-0.1-2.2-0.2-2.6c0-0.1-0.3-0.8-0.8-2c-0.2-0.5-0.4-1-0.6-1.7c-0.1-0.4-0.2-0.6-0.6-0.6
				c-1.3,0-2.2,1.1-2.2,2.5c0,0.8,0.4,2.2,1,3.8c0.9,2.3,1.1,3.1,1.1,3.9c0,1.7-0.7,2.5-3,3.3c-2.7,1-3.9,2.3-4.4,4.8
				c0.2-0.1,0.4-0.1,0.5-0.2c0.3-0.1,0.5-0.2,0.6-0.2l0.7-0.2c0.6-0.2,1.2-0.5,1.3-0.9l0.2-0.7c0-0.2,0.1-0.3,0.3-0.3l0.4-0.2
				l0.4-0.2l0.1,0.2l-0.2,0.6c-0.1,0.2-0.1,0.6-0.1,1.1C34.8,188.6,35,189.2,35.6,190"/>
			<path class="st6" d="M10.5,146.9c0.1,0.3,0.1,0.4,0.1,0.5c0,0.1-0.1,0.5-0.2,1.2l-0.1,0.9c0,0.8,0.1,1.7,0.4,2.5
				c0.2,0.7,0.3,0.9,0.3,1.1l0,0.2c0,0.2-0.1,0.3-0.2,0.3c-0.1,0-0.3-0.1-0.5-0.3c-0.5-0.5-1.1-0.7-1.7-0.7c-0.2,0-0.5,0-0.8,0.1
				l0.2,0.5l0.7,1.7l1,1.5l1,0.7c0.1,0.1,0.2,0.2,0.3,0.3c0.1,0.1,0.1,0.2,0.1,0.3c0,0.1-0.1,0.2-0.2,0.2l-0.9,0
				c-0.1,0-0.3,0.1-0.3,0.2c0,0.2,0.1,0.6,0.4,1.4l0.5,1.4l0.8,0.7l0.8,0.6c0.2,0.2,0.4,0.4,0.4,0.5c0,0.1-0.1,0.3-0.2,0.3l-0.5,0
				c-0.2,0-0.2,0.1-0.2,0.4c0,0.3,0.3,1,0.9,1.8c0.7,1,1.2,1.3,2.1,1.3h0.7c0.3,0,0.5,0.2,0.5,0.4c0,0.2-0.1,0.3-0.4,0.4
				c-0.6,0.1-0.8,0.3-0.8,0.6c0,0.1,0.1,0.3,0.2,0.5l0.4,0.5c0.3,0.4,0.7,0.7,0.9,0.7c0.1,0,0.4-0.1,0.7-0.4c0.4-0.5,0.9-0.9,1.5-1
				c1.6-0.4,2-0.6,2-1c0-0.1-0.1-0.3-0.2-0.5c-0.5-0.9-0.7-1.5-0.7-2.3c0-0.6-0.2-1-0.4-1c-0.1,0-0.2,0.1-0.4,0.4
				c-0.4,0.6-1,1-1.6,1c-1.6,0-3.6-2.5-4.5-5.9c-0.2-0.8-0.3-1.7-0.3-2.5c0-0.9,0.1-1.9,0.3-2.8c0.3-1.4,0.5-2.1,0.5-2.3l0.1-0.6
				C13.2,149.5,12.2,148,10.5,146.9"/>
			<path class="st6" d="M13.9,153.3c-0.3,0.7-0.7,2.1-0.7,3c0,0.5,0.2,1,0.4,1c0.1,0,0.2-0.1,0.3-0.2l0.5-0.9
				c0.1-0.2,0.2-0.3,0.3-0.6c0.2-0.3,0.3-0.5,0.3-0.7C15,154.4,14.5,153.7,13.9,153.3"/>
			<path class="st6" d="M19,174.4c0.1,0.1,0.2,0.2,0.2,0.2c0.2,0.2,0.3,0.3,0.4,0.4c0.9,0.9,1,1,1.5,1c0.4,0,1.3-0.2,1.7-0.5
				c0.2-0.1,0.3-0.2,0.3-0.3c0-0.1-0.2-0.3-0.5-0.5l-0.5-0.5c-0.4-0.3-1-0.7-1.2-0.7C20.4,173.6,19.9,173.8,19,174.4"/>
			<path class="st6" d="M29.8,182.8c0.5,0.2,0.7,0.3,0.9,0.5c0.4,0.3,0.7,0.4,0.7,0.5c0.1,0.1,0.4,0.1,0.7,0.1c0.2,0,0.4,0,0.6-0.1
				l1-0.4l0.9-0.3c0.3-0.1,0.4-0.2,0.4-0.4c0-0.1-0.2-0.2-0.5-0.2c-0.2-0.1-0.4-0.1-0.7-0.2c-1.1-0.5-1.3-0.5-1.7-0.5
				C31.3,181.7,30.4,182.1,29.8,182.8"/>
			<path class="st6" d="M41.6,192.2c0.3-0.8,0.5-0.9,1.6-0.9c1.2-0.1,2.3-2.2,2.3-3.7c0-0.1,0-0.3-0.1-0.3c-0.1,0-0.2,0.1-0.3,0.2
				c-0.3,0.2-0.6,0.4-0.7,0.4l-1.4,0.6c-0.9,0.4-1.7,1.6-1.7,2.6C41.4,191.4,41.4,191.6,41.6,192.2"/>
			<path class="st7" d="M21.5,151.7l0.5,0.7c0.1,0.1,0.9,0.7,1,0.7c0.1,0,0.2-0.1,0.3-0.4l0.2-0.7l0-0.8c0-0.6-0.3-0.8-1.5-1.2
				c-0.3-0.1-0.4-0.1-0.7-0.2c-0.2-0.2-0.4-0.3-0.6-0.3c-0.1,0-0.2,0.1-0.2,0.1l0.1,0.2l0.2,0.7L21.5,151.7z"/>
			<path class="st7" d="M26.5,151.7l-0.6,1.1c-0.1,0.2-0.2,0.3-0.2,0.3l0,0c-0.2,0-0.5-0.6-0.5-1.2l-0.1-0.9
				c0.1-0.4,0.3-0.6,0.9-0.7c0.5-0.1,0.8-0.2,0.9-0.3c0.4-0.3,0.7-0.5,0.7-0.5l0.1,0c0.1,0,0.2,0.1,0.2,0.2l0,0.1l-0.3,0.8
				L26.5,151.7z"/>
			<path class="st7" d="M25.3,154.8l0.7-0.4c0.1-0.1,0.3-0.1,0.4-0.1c0.4,0,0.6,0.3,0.6,0.8c0,0.5-0.4,1.2-1,2.3
				c-0.6,1.1-1.1,1.9-1.6,1.9c-0.7,0-1.6-1.1-2.5-2.8c-0.2-0.4-0.4-0.9-0.4-1.3c0-0.6,0.3-0.9,0.8-0.9c0.2,0,0.4,0,0.5,0.1l0.4,0.3
				c0.4,0.2,0.8,0.4,1.2,0.4C24.7,155,25,155,25.3,154.8"/>
			<path class="st6" d="M24.2,156l-0.5-0.1l-0.1,0c-0.3,0-0.4,0.2-0.4,0.5c0,0.5,0.4,1.3,0.8,2c0.1,0.1,0.2,0.2,0.4,0.2
				c0.3,0,0.5-0.6,0.7-1.5l0.1-0.7l0-0.1c0-0.3-0.1-0.4-0.3-0.4l-0.1,0"/>
		</g>
		<g>
			<path d="M128.3,168.1c0.8,1.1,2,1.8,2.9,1.8c0.3,0,0.8-0.1,1.3-0.2c0.3-0.1,0.5-0.1,0.6-0.1c0.2,0,0.3,0.1,0.3,0.3
				c0,0.2-0.1,0.6-0.2,0.9c-0.1,0.4-0.2,0.6-0.3,0.8l-0.2,1l-0.5,0.8l-0.7,0.6l-0.2,0.2v0.4v0.2c0,1.1-0.3,1.8-1.3,2.4
				c-0.1,0-0.2,0.1-0.3,0.2l-0.1,0.4c-0.2,0.9-0.4,1.4-0.5,1.6c-0.1,0.2-0.4,0.7-0.9,1.3c-0.6,0.7-0.9,1.3-1.2,1.9
				c-0.2,0.5-0.3,0.6-0.6,0.6c-0.5,0-0.9-0.6-1-1.3c-0.1,0.1-0.2,0.2-0.2,0.3l-0.6,0.4l-0.9,0.6c-0.4,0.3-0.6,0.5-0.7,0.6l-0.5,0.5
				c-0.1,0.1-0.2,0.1-0.3,0.1c-0.2,0-0.5-0.4-0.7-1.2l-0.5-1.5c-0.1-0.4-0.2-0.9-0.2-1.5c0-0.8,0.1-1,0.3-1.7
				c-0.9,0.1-1.2,0.2-1.7,0.3c-0.1,0.1-0.3,0.1-0.4,0.1c-0.2,0-0.2-0.1-0.2-0.3c0-0.1,0.1-0.4,0.2-0.7l0.6-1.6
				c0.5-1.2,2-2.3,3.2-2.3c0.3,0,0.7,0.1,1.2,0.2c0.3,0.1,0.5,0.1,0.7,0.1c0.5,0,1-0.4,1-0.9c0-0.2-0.2-0.5-0.4-0.6
				c-0.1,0-0.6-0.2-1.7-0.5c-0.8-0.2-1.2-0.5-2.1-1.5c-0.6-0.7-0.9-0.9-1.1-0.9c-0.2,0-0.3,0.1-0.3,0.3l0,0.6l0,0.3
				c0,1.3-0.4,2.5-1.3,4.2l-1.3,2.4c-0.6,1.1-0.9,2-0.9,2.8c0,0.9,0.4,1.8,0.9,1.9l0.7,0.2c0.1,0,0.2,0.1,0.2,0.1
				c0.1,0.1,0.1,0.2,0.1,0.3c0,0.1-0.1,0.3-0.2,0.4c-0.1,0.1-0.4,0.5-0.8,1.1c-0.8,1-1.3,1.4-2.3,1.7c-0.6,1.4-1.5,2.2-3.1,2.7
				l-0.2,0.3c-0.6,1-1.8,1.9-2.6,1.9h-0.2c-0.1,0.9-0.7,1.7-1.6,2.4c-0.6,0.4-1,0.7-1.1,0.8c-0.1,0.1-0.1,0.2-0.2,0.4
				c-0.2,0.5-0.4,0.7-0.7,0.7c-0.5,0-0.9-0.5-1.2-1.4c-0.2,0.1-0.3,0.2-0.4,0.3c-0.5,0.4-0.8,0.6-0.9,0.6c-0.2,0.1-0.8,0.3-1.6,0.5
				c-1.1,0.3-2.1,0.8-2.4,1.2l-0.4,0.7l-0.2,0.1c-0.2,0-0.5-0.3-0.6-0.7c-0.3-1-0.4-2-0.4-2.6c0-1.7,0.5-2.7,2.2-4.4l0-0.4
				c0-2.6,2-4.3,4.9-4.3l0.5,0l1.6,0.1l0.1,0c0.9,0,1.6-0.3,2.5-1c1.1-0.9,1.5-1.5,1.5-2.5c0-0.3-0.1-0.7-0.4-1.9
				c-0.2-0.8-0.3-1.5-0.3-2.2c0-1.9,1.4-4.3,3.3-5.6c0.5-0.3,0.9-0.8,0.9-1.1c0-0.1-0.1-0.2-0.1-0.2c-0.1,0-0.3,0.1-0.6,0.4
				c-0.2,0.2-0.6,0.4-1.1,0.7l-0.7,0.4l-0.8,0.3c-0.3,0.1-0.4,0.2-0.4,0.4c0,0.1,0,0.2,0.1,0.4c0.1,0.2,0.1,0.3,0.1,0.3
				c0,0.1-0.1,0.3-0.2,0.5l-0.6,1.1c-0.6,1.1-1.1,1.5-1.9,1.9c-0.5,1.5-1.3,2.3-2.4,2.5c-0.9,1.8-1.7,2.4-3.2,2.6
				c-0.2,0.7-0.6,1.2-1.4,2.1c-0.3,0.4-0.5,0.6-0.6,0.7c-0.4,0.7-0.4,0.7-0.6,0.7c-0.2,0-0.7-0.3-1.1-0.7c-0.2-0.2-0.3-0.4-0.4-0.6
				l-0.4-0.7c-0.1-0.2-0.3-0.4-0.4-0.4l-0.3,0l-1,0.1c-0.6,0.1-1.6,0.6-1.9,1.1l-0.6,0.8c-0.1,0.1-0.1,0.1-0.2,0.1
				c-0.4,0-0.7-0.9-0.7-2.4c0-1.3,0.2-2.2,0.7-2.9l1.3-1.8c0.2-0.3,0.3-0.5,0.3-0.7c0-0.2-0.1-0.4-0.2-0.6c-0.3-0.3-0.5-0.5-0.7-0.6
				l-1-0.1c-0.2,0-0.2-0.1-0.2-0.1c0-0.1,0.1-0.2,0.2-0.3c0.3-0.4,0.7-0.8,1.2-1c1.2-0.7,1.9-1,2.7-1c0.8,0,1.7,0.3,2.4,0.8l1.4,0.9
				c0.2,0.1,0.4,0.2,0.7,0.2c0.6,0,1.1-0.4,1.5-1.2c0.4-0.8,0.6-1.5,0.6-2.2c0-1.8-1.3-3-3-3c-0.8,0-1.6,0.3-2.4,0.9
				c-0.2,0.2-0.4,0.4-0.5,0.5l-0.4,0.8c-0.1,0.2-0.2,0.3-0.3,0.3c-0.2,0-0.8-0.7-1.2-1.5c-0.2-0.5-0.5-1-0.7-1.7
				c-0.3-0.9-0.4-1.6-0.4-2.3l0.1-1.3c-0.6-1-0.8-1.7-0.8-2.9c0-0.4,0.1-0.8,0.3-1.6c-0.4-0.6-0.5-1.1-0.5-2.1l0-0.6l0.1-0.6
				l0.1-0.6c-0.4-0.6-0.6-1-1-3c-0.2-1.2-0.4-1.7-0.6-2c-0.1-0.1-0.1-0.2-0.1-0.3c0-0.3,0.6-0.5,1.4-0.5l0.7,0.1
				c-0.2-0.4-0.2-0.6-0.2-0.9c0-0.6,0.1-1.2,0.3-1.9c0.2-0.7,0.3-0.9,0.3-1.1c0-0.6-0.1-1.1-0.2-1.4l-0.4-0.9
				c-0.1-0.2-0.1-0.4-0.1-0.5c0-0.1,0.1-0.1,0.2-0.1c0.9,0,2.7,1,4,2.3c1.4,1.3,1.8,2.3,1.8,4.2l-0.1,1c1.3,1.1,1.8,2,1.8,3
				c0,0.7-0.2,1.2-0.9,1.9c-1.3,1.3-1.5,1.9-1.5,3.5c0,2.5,0.7,3.8,2.1,3.8c1.2,0,2.1-1.3,2.3-3.2l0.1-1.8c0-0.5,0.1-1,0.2-1.7
				c0.1-0.4,0.1-1,0.1-1.2c0-0.6-0.4-1.4-1.6-2.8c-1.3-1.5-1.8-2.4-1.8-3.5c0-1.4,1-2.5,2.3-2.5c0.3,0,0.5,0,0.9,0.3
				c0-0.8,0.1-1,0.5-2.1c0.4-0.9,0.8-1.5,0.9-1.5c0.1,0,0.2,0.1,0.3,0.2c0.2,0.2,0.4,0.4,0.6,0.5c0.3,0.2,0.4,0.3,0.5,0.3
				c0.1,0.1,0.2,0.2,0.4,0.4c0.3-1,0.6-1.5,1.4-2.4c0.7-0.6,0.9-0.8,1-0.8c0.1,0,0.2,0.1,0.3,0.2l0.6,0.7l0.8,0.9
				c0.3,0.3,0.4,0.6,0.6,1.4l0.5-0.3l0.7-0.4c0.1-0.1,0.3-0.2,0.6-0.4c0.1-0.1,0.2-0.1,0.3-0.1c0.1,0,0.2,0.1,0.2,0.3l0.3,1.1
				l0.6,1.2c0.2,0.4,0.2,0.6,0.2,1.2l0,0.3l0.3,0c0.9,0,1.7,1.1,1.7,2.3c0,1.7-1.3,3.8-3,4.9c-0.2,0.6-0.2,0.8-0.2,1.2
				c0,3.7,1,4.5,6.7,5.3c1.4,0.2,2.7,0.5,3.8,0.8c0.2,0.1,1.4,0.5,3.7,1.2c1.3,0.4,2.1,0.6,2.8,0.6c0.7,0,1.1-0.2,1.1-0.6
				c0-0.6-0.9-1.2-3.8-2.3l-4.1-1.6c-4.1-1.6-6.1-4.1-6.1-7.8c0-4.3,3.2-7.6,7.6-7.6c1.6,0,3.2,0.3,5.5,1.2c2.9,1.1,3.1,1.1,3.4,1.1
				c0.6,0,0.9-0.4,1-1.2c0.1-0.7,0.3-1,0.6-1c0.6,0,1.2,0.5,1.6,1.4c0.4,0.8,0.6,1.6,0.6,2.4c0,1.5-0.8,2.5-2.3,2.8
				c-1,1.3-2.2,1.9-3.8,1.9c-1.9,0-2.8-0.4-5.9-2.3c-1.1-0.7-1.6-0.9-2.4-0.9c-1.1,0-1.9,0.7-1.9,1.6c0,0.9,0.7,1.4,2.2,1.8
				c0.9,0.2,1.1,0.3,1.5,0.8c0.4-0.1,0.5-0.1,0.8-0.1c1.5,0,3.4,0.8,5,2.2c2.9,0.9,5.4,4,5.4,6.6c0,2.9-2.5,5.4-5.3,5.4
				C131.1,168.7,129.6,168.5,128.3,168.1"/>
			<path class="st6" d="M126.6,181l0.2-0.5l0.2-0.7c0-0.1,0.2-0.4,0.5-0.8c0.5-0.6,0.7-1.4,0.7-2.3c0-0.3-0.1-0.6-0.2-0.9
				c-0.1-0.2-0.1-0.3-0.1-0.4c0-0.1,0-0.1,0.1-0.2c0.1-0.1,0.1-0.1,0.2-0.1l0,0c0.1,0,0.3,0.1,0.5,0.3c0.2,0.2,0.4,0.4,0.5,0.4
				c0.2,0,0.4-0.4,0.6-0.9c0.1-0.3,0.1-0.4,0.1-0.5c0-0.2-0.2-0.8-0.4-1.3c-0.1-0.2-0.1-0.3-0.1-0.5c0-0.2,0.1-0.3,0.3-0.3
				c0.1,0,0.4,0.1,0.6,0.4c0.1,0.1,0.3,0.2,0.4,0.2c0.3,0,0.5-0.3,0.7-1c0.1-0.5,0.2-0.7,0.2-0.7c0-0.1-0.1-0.2-0.2-0.2l-0.2,0
				l-0.6,0.1c-0.9,0-2.1-0.6-2.6-1.3l-1.3-1.6c-0.5-0.6-1.2-1.5-1.2-1.5l-1.1-0.7c-0.2-0.1-0.3-0.3-0.3-0.4c0-0.2,0.2-0.3,0.4-0.3
				c0.2,0,1,0.3,2.4,0.9c1.3,0.6,3.5,1,4.7,1c2.2,0,4.1-1.8,4.1-4c0-1.2-0.5-2.3-1.8-3.8c-0.2-0.3-0.7-0.6-0.9-0.6
				c-0.2,0-0.3,0.1-0.3,0.3c0,0.1,0,0.3,0.1,0.5c0.1,0.1,0.1,0.3,0.1,0.4c0,0.2-0.1,0.3-0.2,0.3c-0.3,0-0.6-0.5-0.8-1.3
				c-0.3-1-0.9-1.7-2.3-2.4c-0.5-0.3-1.2-0.5-1.5-0.5c-0.1,0-0.2,0.1-0.2,0.2c0,0.2,0.1,0.4,0.2,0.6c0.2,0.3,0.3,0.6,0.4,0.9l0,0
				c0,0.2-0.1,0.3-0.3,0.3c-0.3,0-0.4-0.1-1-1.1c-0.4-0.5-1.3-1.2-2.1-1.6c-0.3-0.1-0.5-0.2-0.8-0.2l0,0c-0.2,0-0.3,0.1-0.3,0.2
				c0,0,0.1,0.2,0.2,0.4l0.1,0.3c0,0.1-0.1,0.3-0.2,0.3c-0.3,0-1.1-0.7-1.8-1.5c-0.7-0.9-1.2-1.9-1.2-2.8c0-1.8,1.7-3.4,3.6-3.4
				c0.5,0,0.9,0.1,1.2,0.2l1.6,0.8l1.9,1.3c1.1,0.7,2.6,1.3,3.5,1.3c0.3,0,0.6,0,1.5-0.3c0.5-0.1,0.7-0.3,0.7-0.5l0,0l-0.2-0.1
				l-1-0.1c-0.6-0.1-1.9-0.6-2.9-1.3l-2.1-1.4l-1.9-0.8c-0.1-0.1-0.2-0.2-0.2-0.2c0-0.1,0.1-0.2,0.2-0.2c0,0,0.2,0,0.5,0.1l1.8,0.5
				c0.4,0.1,1.2,0.5,2.1,1c1.9,1,3.2,1.5,4.1,1.5c1.1,0,1.9-0.7,1.9-1.7c0-0.3-0.1-0.9-0.2-1.3c-0.1-0.2-0.2-0.4-0.3-0.6
				c-0.1-0.1-0.2-0.2-0.2-0.2c-0.1,0-0.2,0.1-0.2,0.4l0,0.3l0,0.3c0,0.9-0.3,1.2-1.3,1.2c-0.8,0-1.8-0.3-4.2-1.3
				c-2.2-0.9-3.6-1.2-5-1.2c-3.5,0-6.6,2.9-6.6,6.1c0,2.8,1.9,5,5.7,6.6l4,1.6c3.3,1.3,4.5,2.3,4.5,3.6c0,1.1-1,1.7-2.5,1.7
				c-0.7,0-1.5-0.2-3-0.7c-3.7-1.2-6.1-1.7-8.2-1.7c-3.5,0-5.9,0.9-7.9,3c-0.3,0.3-0.4,0.4-0.6,0.4c-0.2,0-0.3-0.1-0.7-0.3
				c-0.4-0.2-0.7-0.3-1-0.3c-0.3,0-0.9,0.3-1.1,0.6l-0.5,0.6c-0.1,0.2-0.3,0.3-0.4,0.3c-0.3,0-0.9-0.6-1.3-1.3
				c-0.2-0.4-0.4-0.8-0.5-1.2c-0.1-0.3-0.1-0.8-0.1-1.3l0-0.9l0.1-0.9c0.1-0.4,0.1-0.7,0.1-0.8c0-0.1,0.1-0.2,0.2-0.2
				c0.2,0,0.3,0.2,0.3,0.7l0,0.3l0,0.2c0,1.3,0.5,2.5,1.1,2.5c0.5,0,0.9-0.8,1.2-2.4c0.1-0.3,0.2-0.5,0.4-0.5c0.2,0,0.3,0.2,0.4,0.9
				c0.1,0.5,0.4,1.1,0.7,1.5c0.2,0.2,0.4,0.4,0.5,0.4c0.4,0,0.6-0.6,0.8-1.9c0.1-0.5,0.2-0.8,0.4-0.8c0.1,0,0.1,0,0.2,0.1
				c0,0,0.1,0.2,0.3,0.5c0.1,0.2,0.3,0.3,0.5,0.5c0.2,0.1,0.4,0.2,0.5,0.2c0.1,0,0.3-0.1,0.4-0.2c0.2-0.2,0.3-0.3,0.3-0.4
				c0-0.1-0.1-0.2-0.3-0.4c-0.3-0.3-0.5-0.8-0.8-1.5c-0.2-0.5-0.3-0.9-0.4-1.1c-0.1-0.2-0.2-0.3-0.2-0.3l-0.1,0l-0.3,0
				c-0.1,0-0.4,0.1-1,0.3l-0.3,0c-0.1,0-0.2-0.1-0.2-0.2c0-0.1,0.2-0.4,0.4-0.5c1.2-0.9,1.9-2.5,2.1-4.8c0.2-1.4,0.3-1.9,0.9-2.8
				c0.1-0.2,0.2-0.3,0.3-0.3c0.2,0,0.3,0.1,0.3,0.4c0,0.2-0.1,0.4-0.2,0.7c-0.1,0.2-0.1,0.4-0.1,0.6l0,0.2l0.1,0.3l0.5-0.2l0.6-0.6
				c0.3-0.4,0.6-1.3,0.6-1.9c0-0.4-0.1-0.8-0.4-1.1c-0.3-0.3-0.5-0.5-0.7-0.5l-0.3,0l-0.3,0c-0.3,0-0.5-0.1-0.5-0.3l0.1-0.4l0-0.5
				l-0.3-1.2l-0.2-0.6l-0.1-0.5l-0.3,0.2l-0.7,0.4c-0.2,0.1-0.4,0.3-0.6,0.5c-0.7,0.8-0.7,0.8-1,0.8c-0.2,0-0.3-0.1-0.3-0.2l0-0.2
				c0.1-0.4,0.1-0.7,0.1-1c0-0.8-0.6-2-1.3-2.7c-1,0.9-1.5,2-1.5,2.9v0.6c0,0.2-0.1,0.3-0.2,0.3h0c-0.1,0-0.2-0.1-0.3-0.2l-0.6-0.7
				c0-0.1-0.3-0.3-0.7-0.6c-0.1-0.1-0.2-0.2-0.4-0.3l-0.2,0.4c-0.5,0.9-0.6,1.5-0.7,2.2c0,0.6-0.1,0.8-0.2,0.8c-0.1,0-0.2,0-0.3-0.1
				c-0.7-0.4-0.8-0.4-1.1-0.4c-0.8,0-1.4,0.6-1.4,1.5c0,0.3,0.2,0.9,0.6,1.6c0.4,0.8,1.1,1.5,1.3,1.5c0.1,0,0.1-0.1,0.1-0.3l0-0.1
				l0-0.8l-0.1-0.6l0-0.1c0-0.2,0.1-0.3,0.2-0.3c0.4,0,0.8,1.2,1.1,3.7c0.3,2.2,0.9,3.7,1.8,4.5c0.2,0.2,0.4,0.4,0.4,0.5
				c0,0.1-0.1,0.1-0.2,0.1c-0.1,0-0.3-0.1-0.6-0.2c-0.2-0.1-0.3-0.1-0.5-0.1c-0.5,0-1,0.5-1.1,1.1l-0.4,2.7l-0.3,3.7
				c-0.1,0.7,0,1.7,0.3,2.8c0.2,1,0.3,1.7,0.3,2.2c0,2.8-1.7,5-4.6,5.9l-3,0.9c-1.9,0.6-2.8,1.8-3,4.1c0.5-0.4,0.6-0.4,1.4-0.6
				l0.9-0.1c0.4-0.1,0.6-0.1,0.8-0.2c0.1-0.1,0.3-0.2,0.5-0.5l0.8-0.9c0.3-0.3,0.6-0.5,0.7-0.5c0.1,0,0.2,0.1,0.2,0.3
				c0,0.2-0.1,0.4-0.3,0.8c-0.2,0.3-0.3,0.8-0.3,1.2c0,0.6,0.2,1,0.8,1.8c0.1-0.3,0.1-0.5,0.2-0.6c0.1-0.1,0.3-0.5,0.7-1
				c0.6-0.8,1.1-1.7,1.1-2.1c0-0.7,0.1-1,0.3-1c0.2,0,0.2,0,0.3,0.4c0,0.1,0.1,0.2,0.1,0.3c0.1,0.1,0.2,0.2,0.3,0.2
				c0.1,0,0.2-0.1,0.4-0.2c0.3-0.2,0.6-0.4,0.7-0.7c0.2-0.2,0.3-0.5,0.5-0.8c0.2-0.4,0.2-0.7,0.2-0.9l0-0.6c0-0.2,0.1-0.3,0.2-0.3
				c0.1,0,0.3,0.2,0.5,0.5c0.1,0.2,0.2,0.2,0.3,0.2h0c0.2,0,0.3-0.1,0.4-0.2c0.6-0.6,0.9-1.2,0.9-1.7l0-0.9l-0.2-0.7l0-0.1
				c0-0.1,0.1-0.3,0.2-0.3c0.2,0,0.4,0.3,0.8,1c0.1,0.3,0.3,0.5,0.4,0.5c0.2,0,0.4-0.2,0.8-0.8l0.4-0.6c0.1-0.1,0.1-0.3,0.1-0.5
				c0-0.2,0-0.3-0.1-0.5l-0.4-0.6c-0.1-0.1-0.1-0.3-0.1-0.5c0-0.6,0.2-1.4,0.7-2.2c0.3-0.6,0.5-1,0.6-1.2c0.1-0.2,0.2-0.3,0.3-0.3
				c0.1,0,0.2,0.1,0.2,0.2l0,0.5v0.4v0.4c0.1,0.2,0.2,0.2,0.4,0.2c0.1,0,0.3,0,0.5-0.1l1.2-0.4c0.3-0.1,0.6-0.3,1.1-0.5
				c1.8-1,2.4-1.2,3.3-1.2c0.5,0,1.2,0.2,2.2,0.7c0.2,0.1,0.4,0.1,0.5,0.1c0.1,0,0.3-0.1,0.4-0.2c0.1-0.1,0.1-0.2,0.1-0.4
				c0-0.2-0.1-0.4-0.2-0.6c-0.1-0.3-0.3-0.6-0.3-0.7c0-0.1,0.1-0.2,0.2-0.2c0.1,0,0.3,0.1,0.4,0.2c0.1,0.2,0.5,0.8,1.1,1.9
				c0.9,1.5,2,2.6,3,2.8l2,0.5c0.6,0.1,0.8,0.4,0.8,1.2c0,1.4-0.7,2.7-1.9,3.5l-1.7,1.1c-0.6,0.4-1.1,1.5-1.1,2.4
				c0,0.6,0.1,1.6,0.3,2.4l0.3-0.3l0.8-0.5l0.7-0.7l0.4-1l0.4-0.9c0.2-0.5,0.4-0.7,0.5-0.7c0.2,0,0.3,0.3,0.3,0.7l0,0.1l0,0.2
				C126,179.7,126.1,180,126.6,181"/>
			<path class="st6" d="M99,194.3c0-2.2,0.8-3.2,4-4.8c6.3-3.2,9.8-6.2,9.8-8.4c0-0.5-0.1-1.1-0.6-2.5c-0.3-0.9-0.4-1.6-0.4-2
				c0-1,0.8-2.6,1.9-3.6l0.9-0.8c0.5-0.4,0.8-1.1,0.8-1.5l0-0.2l0-0.3c0-0.5,0.2-0.6,0.7-0.7l0.4,0c0.2-0.1,0.3-0.1,0.4-0.1
				c0.2,0,0.3,0.1,0.4,0.2l0.2,0.4l0.3,0.4c0.1,0.1,0.2,0.2,0.3,0.2c0.1,0,0.2,0,0.4-0.1c0.2-0.1,0.4-0.2,0.6-0.2
				c0.2,0,0.4,0.1,0.4,0.4c0,0.9-0.6,2.3-1.7,3.7c-1.8,2.4-2.4,3.7-2.4,5.3c0,1.2,0.3,2.3,1,3.2c0.1,0.2,0.2,0.3,0.2,0.3
				c0,0.1-0.1,0.3-0.3,0.6c-0.1,0.1-0.2,0.2-0.3,0.4c-0.4,0.5-0.6,0.7-0.9,0.7c-0.2,0-0.4-0.2-0.4-0.4l-0.2-0.5
				c-0.1-0.1-0.2-0.2-0.3-0.2c0,0-0.1,0.1-0.2,0.2c-0.1,0.2-0.2,0.3-0.2,0.5v0.8c0,0.3-0.1,0.6-0.3,0.9c-0.2,0.2-0.4,0.5-0.7,0.7
				c-0.2,0.2-0.3,0.2-0.4,0.2c-0.1,0-0.3-0.1-0.3-0.4l-0.3-0.9c0-0.1-0.1-0.2-0.2-0.2c-0.2,0-0.3,0.3-0.3,0.7
				c-0.1,1.1-0.3,1.7-0.6,2l-0.7,0.6c-0.2,0.2-0.5,0.3-0.6,0.3c-0.1,0-0.3-0.1-0.3-0.2l-0.3-0.7c0-0.1-0.1-0.1-0.2-0.1
				c-0.2,0-0.3,0.4-0.4,1.1c-0.2,1.7-0.5,2.4-1.4,3.1c-0.7,0.5-0.9,0.7-1.2,1.3c-0.4-0.6-0.6-1.1-0.6-1.9c0-0.4,0.1-0.7,0.2-0.9
				c0.2-0.3,0.3-0.6,0.3-0.8c0-0.1-0.1-0.2-0.2-0.2c0,0-0.1,0.1-0.2,0.2c-0.1,0.2-0.3,0.3-0.6,0.5c-0.8,0.5-1,0.7-1.2,1.6
				c-0.3,1.3-0.9,1.8-2.1,2.1c-1.6,0.3-1.7,0.4-2.2,0.9L99,194.3z"/>
			<path class="st6" d="M96,146.3v0.5l0,0.7c0,0.2,0,0.4-0.1,0.8c-0.1,0.6-0.2,0.9-0.2,1.1c0,0.9,0.1,1.3,0.7,2.3
				c0.3,0.5,0.5,1.1,0.5,1.6c0,0.2-0.1,0.3-0.2,0.3c-0.1,0-0.2,0-0.2-0.1l-0.4-0.5c-0.3-0.4-0.6-0.5-1.3-0.5l-0.8,0.1
				c0.3,0.8,0.4,1.1,0.6,1.6c0.4,1.5,0.4,1.6,1.3,2.4c0.8,0.8,0.9,0.8,0.9,1.1c0,0.2-0.1,0.4-0.3,0.4l-0.3,0l-0.2,0
				c-0.3,0-0.5,0.5-0.5,1c0,0.3,0.1,0.8,0.3,1.2c0.1,0.3,0.2,0.5,0.3,0.6l0.5,0.5c0.1,0.1,0.2,0.3,0.2,0.5c0,0.2-0.1,0.4-0.3,0.4
				c-0.1,0-0.2-0.1-0.4-0.2c-0.1-0.1-0.2-0.1-0.3-0.1c-0.2,0-0.3,0.1-0.3,0.4l0.1,0.7l0.3,1.2c0.1,0.3,0.2,0.6,0.5,0.9
				c0.2,0.3,0.5,0.5,0.7,0.6c0.6,0.3,0.9,0.4,0.9,0.4c0.1,0.1,0.1,0.2,0.1,0.4c0,0.2-0.1,0.3-0.3,0.3c-0.1,0-0.2,0-0.5-0.1l-0.5,0
				c-0.5,0-0.5,0-0.5,0.4c0,0.2,0,0.5,0.1,0.7l0.2,0.7c0.2,0.8,0.5,1.2,0.7,1.2c0.1,0,0.2-0.1,0.3-0.2c0.7-0.5,2-1,2.9-1
				c0.9,0,1.9,0.1,2.2,0.2c0.2,0.1,0.4,0.1,0.4,0.1c0.1,0,0.2-0.1,0.2-0.5l0.1-0.8l0.2-1.4l0.1-1.1V164c-0.2,0.1-0.3,0.3-0.4,0.3
				c-0.8,0.7-1.3,1-2.1,1c-2.1,0-3.4-2.4-3.4-6.6c0-1.7,0.3-4.2,0.7-7c0.1-0.6,0.1-1,0.1-1.3C98.6,148.8,97.7,147.3,96,146.3"/>
			<path class="st6" d="M99.1,156.7l0.4-0.4l0.4-0.4c0.3-0.3,0.6-1,0.6-1.4c0-0.2,0-0.4-0.2-0.7c-0.2-0.3-0.5-0.7-0.7-0.7
				c-0.2,0-0.3,0.4-0.4,1l-0.1,0.7l-0.1,0.7l0,0.7V156.7z"/>
			<path class="st6" d="M95,175.8c0.5,0.2,0.6,0.3,1.1,0.8c0.6,0.8,1,0.9,1.9,0.9c0.2,0,0.5,0,0.7-0.1l0.6-0.2l0.5-0.1
				c0.2-0.1,0.4-0.2,0.4-0.2c0-0.1-0.4-0.4-0.9-0.8c-0.4-0.3-0.7-0.5-1.1-0.7c-0.4-0.2-0.7-0.3-1.1-0.3
				C96.3,175.2,95.7,175.4,95,175.8"/>
			<path class="st6" d="M101.3,188.9c0-1.5,1.5-2.7,3.3-2.7c0.9,0,1.4,0.2,1.4,0.5c0,0.2-0.4,0.6-1.3,1c-0.1,0-0.5,0.3-1.4,0.7
				c-0.9,0.5-1.2,0.7-2.1,1L101.3,188.9z"/>
			<path class="st6" d="M120.3,177.6c0.7-0.1,0.9-0.3,1.2-0.3l0.8,0c0.1,0,0.3-0.2,0.6-0.4c0.1-0.1,0.4-0.3,0.7-0.5
				c0.9-0.6,1-0.7,1-0.9c0-0.3-0.4-0.4-1.2-0.4C121.9,175.2,121,175.9,120.3,177.6"/>
			<path class="st7" d="M106.2,149.2l0.7,0.4c0.4,0.2,0.7,0.4,0.9,0.5c0.7,0.3,1,0.4,1,0.7c0,0.1,0,0.3-0.1,0.5
				c-0.1,0.2-0.1,0.4-0.1,0.7c-0.1,0.6-0.5,0.8-0.7,0.8c-0.3,0-0.6-0.5-1.2-1.4c-0.2-0.4-0.6-1.2-0.7-1.9l0-0.2
				c0-0.1,0.1-0.2,0.2-0.2"/>
			<path class="st7" d="M112.5,150.8l-1.1,1.1c-0.4,0.5-0.4,0.9-0.5,1c-0.1,0.1-0.2,0.1-0.3,0.1l-0.1,0c-0.3,0-0.5-0.2-0.5-0.5
				l0-0.8l0-0.8v0c0-0.3,0.2-0.5,0.4-0.5l1-0.3l1-0.5c0.3-0.1,0.4-0.2,0.4-0.2c0.1,0,0.2,0.1,0.2,0.3c0,0.1,0,0.2-0.1,0.3
				L112.5,150.8z"/>
			<path class="st7" d="M107.8,154l0.7,0.5c0.2,0.1,0.4,0.2,0.6,0.2c0.3,0,0.7-0.1,1.1-0.3l0.6-0.3c0.1-0.1,0.3-0.1,0.4-0.1
				c0.4,0,0.7,0.4,0.7,0.9c0,0.7-0.5,1.4-1.2,2.4l-0.5,1.1c-0.4,0.6-0.7,0.8-1,0.8c-0.6,0-0.8-0.3-1.7-2c-0.6-1.2-0.8-1.9-0.8-2.5
				c0-0.5,0.3-0.8,0.6-0.8C107.4,153.9,107.6,153.9,107.8,154"/>
			<path class="st6" d="M108.4,156.6l0,0.9c0,0.4,0.4,0.8,0.7,0.8c0.4,0,0.7-0.7,0.9-1.6c0.1-0.5,0.1-0.5,0.1-0.6
				c0-0.3-0.1-0.4-0.6-0.4l-0.2,0H109l-0.2,0c-0.3,0-0.4,0.2-0.4,0.8"/>
		</g>
		<g>
			<path d="M55.9,135.5h4.6v9.4h5.4v-9.3h13.5v9.3h5.4v-9.3h4.6v-24.2h-5.2l-0.2-0.3c-0.6-0.9-1.5-1.4-2.5-1.4c-1,0-1.9,0.6-2.5,1.7
				h-3.8c-0.4-1-1.4-1.7-2.5-1.7c-1.2,0-2.2,0.6-2.7,1.7h-4c-0.7-1.2-1.4-1.7-2.6-1.7c-1.2,0-1.9,0.5-2.5,1.7h-4.9V135.5z"/>
			<rect x="57.9" y="113.4" class="st5" width="29.6" height="20.3"/>
			<path class="st6" d="M61,118c-0.8,0-1.4,0.6-1.4,1.4c0,0.8,0.6,1.4,1.4,1.4c0.8,0,1.4-0.6,1.4-1.4C62.4,118.7,61.7,118,61,118"/>
			<path d="M61,121c-0.9,0-1.6-0.7-1.6-1.6c0-0.9,0.7-1.6,1.6-1.6c0.9,0,1.6,0.7,1.6,1.6C62.6,120.3,61.8,121,61,121z M61,118.2
				c-0.7,0-1.2,0.5-1.2,1.2c0,0.7,0.5,1.2,1.2,1.2c0.7,0,1.2-0.5,1.2-1.2C62.2,118.8,61.6,118.2,61,118.2z"/>
			<path class="st6" d="M84.2,118c-0.8,0-1.4,0.6-1.4,1.4c0,0.8,0.6,1.4,1.4,1.4c0.8,0,1.4-0.6,1.4-1.4C85.6,118.7,85,118,84.2,118"
				/>
			<path d="M84.2,121c-0.9,0-1.6-0.7-1.6-1.6c0-0.9,0.7-1.6,1.6-1.6c0.9,0,1.6,0.7,1.6,1.6C85.8,120.3,85.1,121,84.2,121z
				 M84.2,118.2c-0.7,0-1.2,0.5-1.2,1.2c0,0.7,0.5,1.2,1.2,1.2c0.7,0,1.2-0.5,1.2-1.2C85.5,118.8,84.9,118.2,84.2,118.2z"/>
			<path class="st6" d="M61,129.1c-0.8,0-1.4,0.6-1.4,1.4s0.7,1.4,1.5,1.4c0.7,0,1.4-0.6,1.4-1.4S61.7,129.1,61,129.1"/>
			<path d="M61,132.1c-0.9,0-1.7-0.7-1.7-1.6c0-0.9,0.7-1.6,1.6-1.6c0.9,0,1.6,0.7,1.6,1.6C62.6,131.4,61.9,132.1,61,132.1z
				 M61,129.3c-0.7,0-1.2,0.5-1.2,1.2c0,0.7,0.6,1.2,1.3,1.2c0.6,0,1.2-0.5,1.2-1.2C62.2,129.8,61.6,129.3,61,129.3z"/>
			<path class="st6" d="M84.2,129.1c-0.8,0-1.4,0.6-1.4,1.4s0.6,1.4,1.4,1.4c0.8,0,1.4-0.6,1.4-1.4S85,129.1,84.2,129.1"/>
			<path d="M84.2,132.1c-0.9,0-1.6-0.7-1.6-1.6c0-0.9,0.7-1.6,1.6-1.6c0.9,0,1.6,0.7,1.6,1.6C85.8,131.4,85.1,132.1,84.2,132.1z
				 M84.2,129.3c-0.7,0-1.2,0.5-1.2,1.2c0,0.7,0.5,1.2,1.2,1.2c0.7,0,1.2-0.5,1.2-1.2C85.5,129.8,84.9,129.3,84.2,129.3z"/>
			<path class="st6" d="M65.4,124.8c1.9,2.4,4.3,3.6,7.3,3.6c2.8,0,4.7-1,6.9-3.6c-2.2-2.3-4.3-3.2-7-3.2
				C69.7,121.5,67.1,122.7,65.4,124.8"/>
			<path d="M66.8,124.8c2-1.5,3.6-2.2,5.7-2.2c2.1,0,3.6,0.6,5.6,2.2c-1.8,1.7-3.3,2.4-5.7,2.4C70.3,127.2,68.4,126.4,66.8,124.8"/>
			<path class="st6" d="M69.2,124.3c1.2,0.7,2.1,1,3.2,1c1.3,0,2.4-0.3,3.4-1c-1.1-0.5-2.2-0.8-3.4-0.8
				C71.3,123.5,70.2,123.8,69.2,124.3"/>
			<rect x="57.5" y="114.4" class="st7" width="30.5" height="1"/>
			<path d="M88,115.5H57.4v-1.2H88V115.5z M57.5,115.4h30.3v-0.9H57.5V115.4z"/>
			<path class="st6" d="M62.1,113.1v2.4v0.5c0,0.7,0.5,1.2,1.3,1.2c0.8,0,1.3-0.4,1.3-1.2v-0.5v-2.3c0-1.1-0.5-1.8-1.2-1.8
				c-0.1,0-0.4,0.1-0.6,0.1c-0.2,0.1-0.3,0.1-0.3,0.2c-0.1,0.1-0.2,0.2-0.3,0.4c-0.1,0.3-0.2,0.4-0.2,0.5"/>
			<path class="st6" d="M71.3,115.5v0.5c0,0.7,0.5,1.2,1.3,1.2c0.8,0,1.3-0.4,1.3-1.2v-0.5v-2.4c0-1.1-0.5-1.8-1.2-1.8
				c-0.8,0-1.4,0.7-1.4,1.7"/>
			<path class="st6" d="M80.2,113.1v2.4v0.5c0,0.7,0.5,1.2,1.3,1.2c0.8,0,1.3-0.4,1.3-1.2v-0.5v-2.3c0-1.1-0.5-1.8-1.2-1.8
				c-0.1,0-0.4,0.1-0.6,0.1c-0.2,0.1-0.3,0.1-0.3,0.2c-0.1,0.1-0.2,0.2-0.3,0.4c-0.1,0.3-0.2,0.4-0.2,0.5"/>
			<rect x="61.5" y="137.7" class="st6" width="2.8" height="3.6"/>
			<rect x="61.5" y="142" class="st6" width="2.8" height="1.1"/>
			<rect x="80.4" y="137.7" class="st6" width="2.8" height="3.6"/>
			<rect x="80.4" y="142" class="st6" width="2.8" height="1.1"/>
		</g>
	</g>
</g>
</svg>
