<?xml version="1.0" encoding="utf-8"?>
<!-- Generator: Adobe Illustrator 25.1.0, SVG Export Plug-In . SVG Version: 6.00 Build 0)  -->
<svg version="1.1" id="Layer_1" xmlns="http://www.w3.org/2000/svg" xmlns:xlink="http://www.w3.org/1999/xlink" x="0px" y="0px"
	 viewBox="0 0 1009.1 398.7" style="enable-background:new 0 0 1009.1 398.7;" xml:space="preserve">
<style type="text/css">
	.st0{fill:#272D65;}
	.st1{font-family:'Tahoma';}
	.st2{font-size:56.3708px;}
	.st3{fill:none;}
</style>
<g>
	<path class="st0" d="M174,135.8L174,135.8c-2.3,0-4.4,1.9-4.4,4.4c0,2.3,2.1,4.2,4.4,4.2c2.5,0,4.4-1.9,4.4-4.2
		C178.4,137.6,176.5,135.8,174,135.8z"/>
	<path class="st0" d="M192.9,149L192.9,149c-2.3,0-4.4,1.9-4.4,4.4c0,2.3,2.1,4.2,4.4,4.2c2.3,0,4.4-1.9,4.4-4.2
		C197.3,150.8,195.3,149,192.9,149z"/>
	<path class="st0" d="M155,149L155,149c-2.3,0-4.4,1.9-4.4,4.4c0,2.3,2.1,4.2,4.4,4.2c2.5,0,4.4-1.9,4.4-4.2
		C159.4,150.8,157.5,149,155,149z"/>
	<path class="st0" d="M129.9,66L129.9,66c-1.6,0-3,0.5-4.2,1.2c-1.4,0.5-2.5,0.9-3.9,0.9s-2.3-0.2-3.5-2.1c-0.2-0.2-0.5-0.2-0.7,0
		l-3.2,2.1c0,0-0.2,0-0.2,0.2c0,0,0,0.2,0.2,0.2c1.9,3,4.2,4.4,7.4,4.4c2.3,0,4.4-0.9,5.8-1.6c1.2-0.5,1.9-0.7,2.3-0.7
		c0.7,0,1.2,0.5,1.9,1.4c0.2,0.2,0.5,0.2,0.7,0l3-2.5c0-0.2,0-0.2,0-0.5v-0.2C133.6,67,131.8,66,129.9,66z"/>
	<path class="st0" d="M84.5,37.5L84.5,37.5H114c-0.9,3.2-0.5,6.7,1.2,9.5c3,5.3,9.5,8.8,17.1,8.8h15.1c0.2,0,0.5-0.2,0.5-0.2
		c0-0.2,0-0.2,0-0.5l-8.6-19.9c0-0.2-0.2-0.5-0.5-0.2l-1.9,0.7c-2.1,0.7-4.4,1.9-6.3,2.8c-2.3-3-5.3-4.9-9.5-5.6
		c1.4-4.2,1.4-7.2,0-10c-1.6-2.8-5.1-4.4-10.2-5.1c-7.2-0.7-11.4-2.6-15.1-6.3L94,9.5c0,0-0.2,0-0.5,0c0,0-0.2,0-0.2,0.2L92.2,12
		c-2.1,3.7-2.6,9.5,0,13.9c-3.2,2.3-5.6,5.1-6.9,8.3l-0.9,2.5c-0.2,0.2,0,0.5,0,0.5C84.3,37.5,84.5,37.5,84.5,37.5z M119.1,37.5
		L119.1,37.5c4.2,0.2,6.9,2.1,8.8,5.3l1.2,1.6c0,0.2,0.2,0.2,0.5,0l1.6-0.9c0,0,2.8-1.4,5.3-2.6l4.4,10h-8.6c-5.8,0-10.9-2.5-13-6.3
		C117.9,42.6,117.9,40.1,119.1,37.5z M91.7,32.7L91.7,32.7c1.4-1.6,3.2-3,5.1-4.2l2.3-1.4l0.2-0.2c0-0.2,0-0.2-0.2-0.5l-1.9-1.6
		c-1.6-1.6-2.3-4.4-1.9-7.4c3.7,3,8.3,4.6,14.8,5.3c2.6,0.2,5.6,0.9,6.7,2.8c0.9,1.4,0.5,3.7-0.9,7.2H91.7z"/>
	<path class="st0" d="M212.4,68.8L212.4,68.8v0.2c0,0.2,0,0.2,0,0.5l3,2.5c0.2,0.2,0.5,0.2,0.7,0c0.7-0.9,1.2-1.4,1.9-1.4
		c0.5,0,1.2,0.2,2.3,0.7c1.6,0.7,3.5,1.6,5.8,1.6c3.2,0,5.6-1.4,7.6-4.4v-0.2c0-0.2-0.2-0.2-0.2-0.2l-3.2-2.1
		c-0.2-0.2-0.5-0.2-0.7,0c-1.2,1.9-2.1,2.1-3.5,2.1c-1.4,0-2.6-0.5-3.9-0.9c-1.2-0.7-2.5-1.2-4.2-1.2C216.1,66,214.3,67,212.4,68.8z
		"/>
	<path class="st0" d="M200.6,55.8L200.6,55.8h15.1c7.6,0,14.1-3.5,17.1-8.8c1.9-2.8,2.1-6.3,1.2-9.5h29.4c0,0,0.2,0,0.2-0.2
		c0.2,0,0.2-0.2,0-0.5l-0.9-2.5c-1.4-3.2-3.7-6-6.9-8.3c2.5-4.4,2.1-10.2,0.2-13.9l-1.4-2.3c0-0.2-0.2-0.2-0.2-0.2
		c-0.2,0-0.5,0-0.5,0l-1.9,2.1c-3.7,3.7-7.9,5.6-14.8,6.3c-5.3,0.7-8.8,2.3-10.4,5.1c-1.4,2.8-1.4,5.8,0,10
		c-3.9,0.7-7.2,2.5-9.5,5.6c-1.9-0.9-4.2-2.1-6.3-2.8l-1.9-0.7c-0.2-0.2-0.5,0-0.5,0.2l-8.6,19.9c0,0.2,0,0.2,0,0.5
		C200.4,55.6,200.4,55.8,200.6,55.8z M230.9,25.5L230.9,25.5c1.2-1.9,4.2-2.5,6.7-2.8c6.5-0.7,11.1-2.3,14.8-5.3
		c0.5,3-0.2,5.8-1.9,7.4l-1.9,1.6c0,0.2-0.2,0.2-0.2,0.5c0.2,0,0.2,0.2,0.2,0.2l2.3,1.4c2.1,1.2,3.7,2.6,5.1,4.2h-24.3
		C230.5,29.2,230.2,26.9,230.9,25.5z M211.5,41L211.5,41c2.3,0.9,4.9,2.3,5.3,2.6l1.6,0.9c0.2,0.2,0.5,0.2,0.7,0l0.9-1.6
		c1.9-3.2,4.6-5.1,8.8-5.3c1.2,2.5,1.2,5.1-0.2,7.2c-2.1,3.7-7.2,6.3-13,6.3h-8.6L211.5,41z"/>
	<path class="st0" d="M348.1,61.2L348.1,61.2c-0.2-0.2-0.2-0.2-0.5-0.2h-57.4c-0.2,0-0.2,0-0.5,0v0.2v2.1
		c0.2,16.2-8.6,30.1-16.7,37.5c-1.2-4.2-2.1-8.3-2.1-10.7c8.3-10.9,9.3-19,9.3-24.3c0-1.6-0.5-4.2-0.9-6l6-19.5c0.2,0,0-0.2,0-0.2
		c0-0.2-0.2-0.2-0.5-0.2l-3,0.5c-1.4,0.2-12.5,2.1-20.6,3.7c-6,1.4-11.8,2.8-16.2,7.6l-3.7,3.7c-1.2,0.9-1.4,1.4-2.8,1.4h-5.3
		c-2.8,0-5.6,1.6-7.4,4.4c0,0-0.2,0.2,0,0.2c0,0.2,0,0.2,0,0.2l3.5,2.1c0.2,0.2,0.5,0.2,0.5,0c0.9-1.4,2.3-2.3,3.5-2.3h5.3
		c3.2,0,4.6-1.2,6.3-2.8l3.7-3.7c3.5-3.7,8.3-5.1,13.7-6.3c5.3-0.9,12-2.1,16.7-3l-4.4,14.1c-0.2,0-0.2,0,0,0.2v0.5
		c0.5,1.4,1.2,4.2,1.2,5.3c0,8.8-3.7,22.9-34.3,44.3L217,126.7v-7.9c0.5-0.2,0.9,0,1.9,0c0.5,0,1.2,0,1.9,0c1.6,0,3.2-0.5,4.6-1.4
		l16.2-13.7c0.2,0,0.2,0,0.2-0.2v-0.9c0-11.8,5.1-15.8,9.7-19.5c3.2-2.3,6.5-5.1,6.5-10c0-4.9-4.2-8.1-10.9-8.1
		c-6.3,0-11.3,2.5-13.2,7c-1.4,3.2-0.5,6.7,2.1,9.5l0.2,0.2l0.2-0.2l2.8-2.8c0.2-0.2,0.2-0.5,0-0.5c-1.2-1.4-1.6-3-0.9-4.4
		c0.7-1.9,3.5-4.2,8.8-4.2c0.9,0,6.3,0.2,6.3,3.5c0,2.5-1.9,3.9-4.9,6.3c-4.6,3.7-11.1,8.6-11.6,22l-14.4,12
		c-0.5,0.5-1.2,0.7-2.1,0.7c-0.2,0-0.7,0-1.2-0.2c-0.5,0-1.2,0-1.6,0c-0.2,0-0.5,0-0.7,0v-10.9h14.8c0.2,0,0.5-0.2,0.5-0.5
		c0-1.4,0-2.5,0.2-3.9c0,0,0-0.2-0.2-0.2c0-0.2-0.2-0.2-0.2-0.2H217v-8.6c0.7,0.2,1.2,0.7,2.1,1.6c1.4,1.6,3.7,3.7,7.4,3.7h6
		c0.2,0,0.5,0,0.5-0.2c0.2-1.4,0.7-2.8,1.2-3.9c0,0,0-0.2-0.2-0.5h-0.2h-7.2c-1.6,0-2.6-0.9-4.2-2.3c-1.2-1.4-2.8-3-5.6-3.2h-85.7
		h-0.2c-2.6,0.2-4.2,1.9-5.3,3.2c-1.6,1.4-2.5,2.3-4.2,2.3h-7.2H114c-0.2,0.2-0.2,0.5,0,0.5c0.2,1.2,0.7,2.5,0.9,3.9
		c0,0.2,0.2,0.2,0.5,0.2h6c3.7,0,6-2.1,7.4-3.7c0.9-0.9,1.4-1.4,2.1-1.6v8.6h-15.1c0,0-0.2,0-0.2,0.2l-0.2,0.2
		c0.2,1.4,0.2,2.5,0.2,3.9c0,0.2,0.2,0.5,0.5,0.5h14.8V114c-0.2,0-0.5,0-0.7,0c-0.5,0-1.2,0-1.6,0c-0.5,0.2-0.9,0.2-1.2,0.2
		c-0.9,0-1.4-0.2-2.1-0.7l-14.4-12c-0.5-13.4-6.9-18.3-11.6-22c-3-2.3-4.9-3.7-4.9-6.3c0-3.2,5.3-3.5,6.3-3.5c5.3,0,8.1,2.3,8.8,4.2
		c0.7,1.4,0.2,3-0.9,4.4c-0.2,0-0.2,0.2,0,0.5l2.8,2.8l0.2,0.2c0.2,0,0.2-0.2,0.2-0.2c2.8-2.8,3.5-6.3,2.1-9.5
		c-1.9-4.4-6.7-7-13.2-7c-6.7,0-10.9,3.2-10.9,8.1c0,4.9,3.2,7.6,6.5,10c4.6,3.7,9.7,7.6,9.7,19.5v0.9c0,0.2,0.2,0.2,0.2,0.2
		l16.2,13.7c1.4,0.9,3,1.4,4.9,1.4c0.5,0,1.2,0,1.6,0c0.7,0,0.9,0,1.2,0c0.2,0,0.5,0,0.7,0v7.9l-24.1-16.7
		C76,88.7,72.3,74.6,72.3,65.8c0-1.2,0.7-3.9,1.2-5.3l0.2-0.5c0-0.2,0-0.2,0-0.2l-4.4-14.1c4.6,0.9,11.1,2.1,16.4,3
		c5.3,1.2,10.4,2.5,13.7,6.3l3.7,3.7c1.6,1.6,3.2,2.8,6.3,2.8h5.3c1.2,0,2.5,0.9,3.5,2.3c0,0.2,0.5,0.2,0.5,0l3.5-2.1
		c0,0,0,0,0.2-0.2c0,0,0-0.2-0.2-0.2c-1.9-2.8-4.6-4.4-7.4-4.4h-5.3c-1.4,0-1.6-0.5-2.8-1.4l-3.7-3.7c-4.2-4.9-10.2-6.3-16.2-7.6
		c-8.1-1.6-19.2-3.5-20.6-3.7l-3-0.5c-0.2,0-0.2,0-0.5,0.2v0.2l6,19.5c-0.5,1.9-0.9,4.4-0.9,6c0,5.3,0.9,13.4,9.5,24.3
		c-0.2,2.3-1.2,6.5-2.3,10.7c-8.1-7.4-16.9-21.3-16.7-37.5v-2.1v-0.2c-0.2,0-0.2,0-0.5,0H0.2c0,0-0.2,0-0.2,0.2c0,0.2,0,0.2,0,0.5
		l4.2,3.5c9.5,7.6,20.4,18.1,21.3,29.7l0.2,1.6c0,0,0,0.2,0.2,0.2l1.6,0.2c11.6,1.9,18.3,11.8,17.4,20.2l-0.5,2.5
		c0,0.2,0,0.2,0.2,0.5h0.2l2.8-0.5c2.3-0.5,4.4-0.5,6.3-0.5c4.6,0,8.3,1.2,11.6,3.5c-10.7,21.3-18.3,32.2-22.7,32.2
		c-1.4,0-2.1-0.7-2.1-2.1c0-2.5,1.9-5.6,3.7-8.6c2.1-3.5,4.4-6.9,4.4-10.9c0-5.1-3.7-8.1-9.7-8.1h-3.5v-3.7c0,0,0-0.2-0.2-0.2
		c-0.2-0.2-0.2-0.2-0.5,0l-10.2,6c-0.2,0.2-0.2,0.2-0.2,0.5c0,0.2,0,0.2,0.2,0.2l10.2,6.3c0.2,0,0.2,0,0.5,0
		c0.2-0.2,0.2-0.2,0.2-0.5V130h3.5c4.9,0,4.9,2.3,4.9,3.2c0,2.6-1.9,5.6-3.5,8.3c-2.3,3.7-4.4,7.2-4.4,11.1c0,3.2,2.1,6.9,6.7,6.9
		c3.9,0,7.6-3,12.3-9.3c3.7-5.1,8.1-12.7,14.1-24.6c1.2,1.4,2.1,2.8,3,4.4l1.4,2.1l0.2,0.2c0.2,0,0.2,0,0.5-0.2l1.6-1.6
		c3-2.8,7.2-7.9,10-17.4v-0.2c-0.2-0.2-0.2-0.2-0.2-0.2l-3.9-1.2c-0.2,0-0.5,0-0.5,0.2c-1.6,5.6-3.7,10-6.5,13.2
		c-6.3-8.3-14.4-11.8-25-10.7c-0.2-11.4-10.4-19.9-19.7-22c-1.4-8.6-7.2-17.1-17.8-26.9h41.2c0.7,22,15.5,37.3,21.1,41.2l2.1,1.4
		c0.2,0.2,0.5,0.2,0.5,0.2c0.2,0,0.2-0.2,0.2-0.2l0.9-2.5c1.2-3.7,2.3-7.4,3-10.7c5.3,5.8,12.3,11.8,20.8,17.8
		c-5.3,14.1-13.9,19.2-18.5,21.1l-1.6,0.7c-0.2,0-0.2,0.2-0.2,0.5l0.5,1.9c4.2,13.4-0.7,17.6-6,22c-3.5,2.8-6.9,5.8-6.9,11.4
		c0,5.3,3.2,8.1,6,10.7c1.4,1.2,2.5,2.1,3.7,3.5H63.7v-13.7c0-4.2,1.4-7.6,2.8-11.1c1.9-5.6,3.9-11.4,0.2-17.6
		c0-0.2-0.2-0.2-0.2-0.2c-0.2,0-0.5,0-0.5,0.2c-0.9,1.4-1.6,2.8-2.3,3.9c-0.2,0.2-0.2,0.2-0.2,0.5c1.2,3.7,0,7.4-1.6,11.6
		c-1.4,3.7-2.8,7.9-2.8,12.7v18.1c0,0.2,0.2,0.2,0.5,0.2h20.8v18.5c0,0.2,0.2,0.5,0.5,0.5h13.4v9c0,0.2,0.2,0.5,0.5,0.5h158.4
		c0.2,0,0.5-0.2,0.5-0.5v-9h13.4c0.2,0,0.5-0.2,0.5-0.5v-18.5h21.1c0.2,0,0.2,0,0.2-0.2v-18.1c0-4.9-1.4-9-2.8-12.7
		c-1.6-4.2-2.8-7.9-1.6-11.6c0,0,0-0.2,0-0.5c-0.9-1.2-1.6-2.5-2.6-3.9c0-0.2-0.2-0.2-0.2-0.2c-0.2,0-0.5,0-0.5,0.2
		c-3.7,6.3-1.6,12,0.5,17.6c1.2,3.5,2.6,7,2.6,11.1v13.7h-15.1c0.9-1.4,2.1-2.3,3.5-3.5c2.8-2.5,6-5.3,6-10.7
		c0-5.6-3.5-8.6-6.9-11.4c-5.1-4.4-10.2-8.6-6-22l0.5-1.9c0-0.2,0-0.5-0.2-0.5l-1.6-0.7c-4.6-1.9-13.2-6.9-18.5-21.1
		c8.6-6,15.5-12,21.1-17.8c0.5,3.2,1.6,7,2.8,10.7l0.9,2.5c0,0,0,0.2,0.2,0.2c0.2,0,0.2,0,0.5-0.2l2.1-1.4
		c5.6-3.9,20.4-19.2,21.1-41.2h41.2C325,75.3,319.2,83.9,318,92.5c-9.5,2.1-19.5,10.7-19.9,22c-10.7-1.2-18.8,2.3-24.8,10.7h-0.2
		c-2.8-3.2-4.9-7.6-6.5-13c0-0.2-0.2-0.5-0.5-0.5l-3.7,1.2c-0.2,0-0.2,0-0.5,0.2v0.2c2.8,9.5,6.9,14.6,10,17.4l1.6,1.6
		c0.2,0.2,0.2,0.2,0.5,0.2l0.2-0.2l1.4-2.1c0.9-1.6,2.1-3,3-4.2v-0.2v0.2c10.7,20.6,18.5,33.6,26.4,33.6c4.6,0,6.7-3.7,6.7-6.9
		c0-3.9-2.1-7.4-4.4-11.1c-1.6-2.8-3.5-5.8-3.5-8.3c0-0.9,0-3.2,4.9-3.2h3.5v3.7c0,0.2,0,0.5,0.2,0.5c0.2,0,0.2,0,0.5,0l10.2-6
		c0.2-0.2,0.2-0.2,0.2-0.5c0-0.2,0-0.2-0.2-0.5l-10.2-6c-0.2-0.2-0.2-0.2-0.5,0c-0.2,0-0.2,0.2-0.2,0.2v3.9h-3.5
		c-6,0-9.7,2.8-9.7,7.9c0,3.9,2.3,7.4,4.4,10.9c1.9,3,3.7,6,3.7,8.6c0,1.4-0.7,2.1-2.1,2.1c-4.4,0-12-10.9-22.7-32.2
		c3.2-2.3,7.2-3.5,11.6-3.5c1.9,0,4.2,0,6.3,0.5l2.8,0.5c0,0.2,0.2,0,0.2,0c0.2,0,0.2-0.2,0.2-0.5L303,117
		c-0.9-8.3,5.8-18.3,17.4-20.2l1.6-0.2c0.2,0,0.5-0.2,0.5-0.2v-1.6c0.9-11.6,11.8-22,21.3-29.7l4.2-3.5
		C348.1,61.4,348.1,61.4,348.1,61.2z M135.7,89.4L135.7,89.4h76.7v29.4h-76.7V89.4z M172.6,193.9L172.6,193.9
		c-13.7-0.5-22.2-8.8-27.1-15.8L174,155l29,23.4c-6.7,10-16,15.3-27.8,15.5H172.6z M174.2,149L174.2,149c0-0.2-0.2-0.2-0.5,0
		l-30.6,25c-2.8-5.1-4.9-10.9-6-16.9L174,127l37.1,30.4v-0.2c-1.2,6.3-3,12.3-5.6,17.1L174.2,149z M177.4,123.5L177.4,123.5h35v19.7
		c0,3-0.2,5.8-0.5,8.6L177.4,123.5z M135.7,123.5L135.7,123.5h34.7l-34.3,28.3c-0.5-2.8-0.5-5.8-0.5-8.6V123.5z M78.5,177.3
		L78.5,177.3c-3-2.6-4.6-3.9-4.6-7c0-3.2,2.1-4.9,5.3-7.9c2.8-2.3,6-4.9,7.9-9c1.9-4.4,1.9-9.5,0.2-15.8c8.1-3.9,14.8-11.8,19-22
		l24.6,16.9v10.7c0,4.2,0.2,8.3,0.9,12.3c-3.7,2.5-6,4.2-8.1,4.2c-0.9,0-1.6-0.2-2.5-0.7c-3.9-2.3-4.2-6-3.9-12.5c0-0.9,0-1.9,0-2.8
		c0-7.9-3.7-15.1-9.5-19.2c-0.2,0-0.2,0-0.5,0c0,0-0.2,0-0.2,0.2c-0.7,1.2-1.4,2.3-2.1,3.2c0,0.2,0,0.5,0.2,0.7
		c4.4,3,7.2,8.8,7.2,15.1c0,0.9,0,1.9,0,2.8c-0.2,6.5-0.2,13,6.7,16.7c1.4,0.9,3,1.2,4.6,1.2c3,0,6-1.6,9.3-3.7
		c0.2,0.7,0.2,1.4,0.5,2.1l-6,9.5l-14.6-7.2c-6.5-3.7-8.1-8.8-9.5-14.1c-1.4-4.2-2.8-9-7.2-12.7c-0.2-0.2-0.5-0.2-0.5,0
		c-1.2,0.7-2.3,1.4-3.5,2.1c-0.2,0-0.2,0.2-0.2,0.2c0,0.2,0,0.5,0,0.5c4.2,3,5.3,6.9,6.7,11.4c1.6,5.8,3.5,12.3,11.8,16.9l18.3,9
		h0.2c0.2,0,0.2,0,0.5-0.2l5.8-9.5c1.6,4.4,3.7,8.6,6.3,12c3.9,6,8.6,10.4,13.9,13.4h-36.1v-9c0-0.2-0.2-0.5-0.5-0.5H84.3
		C82.9,181.2,80.6,179.1,78.5,177.3z M85.2,203.2L85.2,203.2v-14.1h29.2v4.9H94.7c-0.2,0-0.5,0.2-0.5,0.5v8.8H85.2z M248.8,212.7
		L248.8,212.7H99.1v-13.9h73.2c0.5,0,1.2,0,1.6,0c0.7,0,1.4,0,1.9,0h73V212.7z M262.7,203.2L262.7,203.2h-9v-8.8
		c0-0.2-0.2-0.5-0.5-0.5h-19.7v-4.9h29.2V203.2z M260.6,137.6L260.6,137.6c-1.6,6.3-1.6,11.4,0.2,15.8c1.9,4.2,5.1,6.7,7.9,9
		c3.2,3,5.3,4.6,5.3,7.9c0,3-1.6,4.6-4.6,7c-2.1,1.9-4.4,3.9-5.8,7.2h-34.5c-0.2,0-0.5,0.2-0.5,0.5v9h-35.2
		c9.3-5.3,15.8-14.4,19.5-25l5.8,9c0,0.2,0,0.2,0.2,0.2h0.2l18.1-9h0.2c8.3-4.6,10.2-11.1,11.8-16.9c1.4-4.4,2.5-8.3,6.7-11.4
		l0.2-0.2c-0.2-0.2-0.2-0.5-0.2-0.5c-1.4-0.7-2.6-1.4-3.5-2.1c-0.2-0.2-0.5-0.2-0.7,0c-4.4,3.7-5.8,8.6-6.9,12.7
		c-1.6,5.3-3.2,10.4-9.7,14.1l-14.6,7.2l-5.8-9.3c0.2-0.7,0.5-1.4,0.5-2.1c3.2,2.1,6,3.5,9.3,3.5c1.4,0,3-0.2,4.4-1.2
		c6.9-3.7,6.9-10.2,6.7-16.7c0-0.9,0-1.9,0-2.8c0-6.3,2.8-12,7.2-15.1c0.2-0.2,0.2-0.5,0.2-0.7c-0.7-0.9-1.4-2.1-2.1-3.2
		c0-0.2,0-0.2-0.2-0.2h-0.2c-6,4.2-9.7,11.4-9.7,19.2c0,0.9,0,1.9,0.2,3c0,6.3,0,10-4.2,12.3c-0.9,0.5-1.6,0.7-2.6,0.7
		c-2.1,0-4.4-1.6-8.1-4.2c0.7-3.9,0.9-8.1,0.9-12.3v-10.7l24.6-16.9C245.8,125.8,252.7,133.7,260.6,137.6z"/>
	<path class="st0" d="M160.1,70.2L160.1,70.2c0,0,0.2,0.2,0.5,0.2h28.3l0.2-0.2l0.7-0.7c3.7-5.3,5.6-10.9,5.6-16.5
		c0-10.9-8.6-18.8-20.2-18.8c-3.2,0-6.7,0.5-10.2,1.9h-0.7v0.2l-12,15.1c-0.2,0.2-0.2,0.5-0.2,0.5L160.1,70.2z M182.5,40.5
		L182.5,40.5c4.9,2.3,7.9,7,7.9,12.5c0.2,4.2-1.2,8.6-3.9,12.5h-7.2l-5.8-13.2L182.5,40.5z M167,40.3L167,40.3
		c3.7-1.2,7.2-1.6,10.4-1.2l-7.9,10.7h-10L167,40.3z M169.1,54.5L169.1,54.5l4.9,11.1h-10.7l-4.9-11.1H169.1z"/>
	<path class="st0" d="M172.1,29.7L172.1,29.7c1.2-0.2,2.5-0.2,3.7,0c0.2,0,0.2-0.2,0.5-0.2v-0.2v-7.6h20.4c0,0,0.2,0,0.2-0.2
		c0,0,0.2-0.2,0-0.2l-0.7-2.5c-1.2-3.7-2.5-9.3,0-15.3l0.9-2.8c0,0,0-0.2,0-0.5c0,0-0.2,0-0.5,0h-24.6c-0.2,0-0.5,0-0.5,0.5v28.7
		v0.2C171.9,29.7,171.9,29.7,172.1,29.7z M176.3,4.6L176.3,4.6h14.4c-0.9,3.9-0.9,7.9,0,12.3h-14.4V4.6z"/>
	<path class="st0" d="M157.5,75.1L157.5,75.1c-0.2,0-0.5,0.2-0.5,0.5v3.9c0,0.2,0.2,0.5,0.5,0.5h32.9c0.2,0,0.5-0.2,0.5-0.5v-3.9
		c0-0.2-0.2-0.5-0.5-0.5H157.5z"/>
	<path class="st0" d="M195.7,109.4L195.7,109.4c-0.9,0-1.4-0.5-1.9-4.6c-0.2-3.2-0.7-7.4-4.2-9.7c0-0.2-0.2-0.2-0.2-0.2
		c-0.2,0-0.2,0.2-0.2,0.2l-2.1,3.5c-0.2,0,0,0.2,0,0.5c1.4,1.2,1.9,3.2,2.1,6.3c0.2,3.5,0.7,8.8,6.5,9c0.2,0,0.2,0,0.2,0
		c0.2-0.2,0.2-0.2,0.2-0.5v-3.9C196.2,109.6,196,109.4,195.7,109.4z"/>
	<path class="st0" d="M206.8,95L206.8,95c0,0,0-0.2-0.2-0.2c0,0-0.2,0-0.2,0.2c-3.5,2.3-3.9,6.5-4.2,9.7c-0.5,4.2-0.9,4.6-1.9,4.6
		c-0.2,0-0.5,0.2-0.5,0.5v3.9c0,0.2,0,0.2,0.2,0.5c0,0,0,0,0.2,0c5.8-0.2,6.3-5.6,6.5-9c0.2-3,0.7-5.1,2.1-6.3c0-0.2,0.2-0.5,0-0.5
		L206.8,95z"/>
	<path class="st0" d="M150.1,94.1L150.1,94.1c-6,0-10.9,4.9-10.9,10.7c0,3.7,1.9,7,4.9,9h0.2c0.2,0,0.2,0,0.5-0.2l1.9-3.2
		c0.2-0.2,0.2-0.5,0-0.7c-1.6-1.2-2.5-2.8-2.5-4.9c0-3.2,2.5-6,6-6c3.2,0,6,2.8,6,6c0,2.1-0.9,3.7-2.5,4.9c-0.2,0.2-0.2,0.5-0.2,0.7
		l2.1,3.2c0,0.2,0.2,0.2,0.2,0.2c0.2,0,0.2,0,0.5,0c3-2.1,4.6-5.3,4.6-9C160.8,98.9,155.9,94.1,150.1,94.1z"/>
	<path class="st0" d="M184.4,103.3L184.4,103.3h-3.9c-0.2,0-0.5,0.2-0.5,0.5c-0.2,3.2-2.8,5.6-6,5.6c-3.2,0-5.8-2.3-6-5.6
		c0-0.2-0.2-0.5-0.5-0.5h-3.9l-0.2,0.2v0.2c0.2,5.8,4.9,10.4,10.7,10.4c5.8,0,10.7-4.6,10.9-10.4l-0.2-0.2L184.4,103.3z"/>
	<path class="st0" d="M172.1,105.9L172.1,105.9h3.7c0.5,0,0.5,0,0.5-0.2V94.8c0-0.2,0-0.5-0.5-0.5h-3.7c-0.2,0-0.5,0.2-0.5,0.5v10.9
		C171.6,105.9,171.9,105.9,172.1,105.9z"/>
	<path class="st0" d="M185.5,173.6L185.5,173.6v-3.9c0-0.2-0.2-0.5-0.5-0.5h-22.2c-0.2,0-0.5,0.2-0.5,0.5v3.9c0,0.2,0.2,0.5,0.5,0.5
		h8.8v14.8c0,0.2,0,0.5,0.2,0.5h3.9c0.2,0,0.5-0.2,0.5-0.5V174h8.8C185.3,174,185.5,173.8,185.5,173.6z"/>
	<path class="st0" d="M166.8,178.4L166.8,178.4h-9c-0.2,0-0.5,0.2-0.5,0.5c0,2.8,2.3,5.1,4.9,5.1c2.8,0,5.1-2.3,5.1-5.1
		C167.2,178.6,167,178.4,166.8,178.4z"/>
	<path class="st0" d="M190.2,178.4L190.2,178.4h-9c-0.2,0-0.5,0.2-0.5,0.5c0,2.8,2.3,5.1,5.1,5.1c2.6,0,4.9-2.3,4.9-5.1
		C190.6,178.6,190.4,178.4,190.2,178.4z"/>
	<path class="st0" d="M109.1,202.5L109.1,202.5h-5.3l-0.2,0.2v1.2c0,0.2,0.2,0.2,0.2,0.2h1.9v4.6h1.4c0.2,0,0.2,0,0.2,0v-4.6h1.9
		c0,0,0,0,0-0.2v-1.2V202.5z"/>
	<path class="st0" d="M116,202.5L116,202.5h-1.4c-0.2,0-0.2,0.2-0.2,0.2v2.1h-2.1v-2.1v-0.2H111c-0.2,0-0.2,0.2-0.2,0.2v6
		c0,0,0,0,0.2,0h1.4v-2.3h2.1v2.3c0,0,0,0,0.2,0h1.4h0.2v-6L116,202.5z"/>
	<path class="st0" d="M122.3,202.5L122.3,202.5h-4.2c-0.2,0-0.2,0.2-0.2,0.2v6c0,0,0,0,0.2,0h3.9c0.2,0,0.2,0,0.2,0v-1.2
		c0-0.2,0-0.2-0.2-0.2h-2.6v-0.9h2.3c0,0,0.2,0,0.2-0.2v-1.2h-0.2h-2.3v-0.9h2.3c0.2,0,0.2,0,0.2-0.2l0.2-1.2
		C122.3,202.5,122.3,202.5,122.3,202.5z"/>
	<path class="st0" d="M139.7,202.5L139.7,202.5c-2.1,0-3.5,1.4-3.5,3.2c0,1.9,1.4,3.2,3.5,3.2c1.9,0,3.2-1.4,3.2-3.2
		C142.9,203.9,141.5,202.5,139.7,202.5z M139.7,207.4L139.7,207.4c-1.2,0-1.6-0.7-1.6-1.6c0-1.2,0.5-1.9,1.6-1.9
		c0.9,0,1.6,0.7,1.6,1.9C141.3,206.7,140.6,207.4,139.7,207.4z"/>
	<path class="st0" d="M148,206.2L148,206.2c0.7-0.2,1.2-0.9,1.2-1.6c0-1.2-0.9-2.1-2.1-2.1h-2.3c-0.2,0-0.2,0.2-0.2,0.2v6
		c0,0,0,0,0.2,0h1.4h0.2v-2.3l1.4,2.3h0.2h1.6c0.2,0,0.2,0,0.2,0c0-0.2,0-0.2,0-0.2L148,206.2z M146.4,204.1L146.4,204.1h0.5
		c0.2,0,0.5,0,0.5,0.5c0,0.5-0.2,0.5-0.5,0.5h-0.5V204.1z"/>
	<path class="st0" d="M155.7,207.4L155.7,207.4h-2.8v-4.6l-0.2-0.2h-1.4c-0.2,0-0.2,0.2-0.2,0.2v6c0,0,0,0,0.2,0h4.2h0.2l0.2-1.2
		c0-0.2,0-0.2,0-0.2S155.9,207.4,155.7,207.4z"/>
	<path class="st0" d="M159.6,202.5L159.6,202.5h-2.1l-0.2,0.2v6h0.2h2.1c2.1,0,3.5-1.2,3.5-3C163.1,203.9,161.7,202.5,159.6,202.5z
		 M159.8,207.4L159.8,207.4h-0.7v-3.2h0.7c0.7,0,1.6,0.5,1.6,1.6C161.4,206.9,160.5,207.4,159.8,207.4z"/>
	<path class="st0" d="M168.6,202.5L168.6,202.5h-1.4v0.2v6h1.4c0.2,0,0.2,0,0.2,0v-6C168.9,202.7,168.9,202.5,168.6,202.5z"/>
	<path class="st0" d="M173.5,205.3L173.5,205.3l-1.2-0.7c-0.2-0.2-0.2-0.2-0.2-0.5c0,0,0.2-0.2,0.5-0.2c0.5,0,0.9,0.2,1.6,0.7
		c0,0,0,0,0.2,0c0,0,0,0,0-0.2V203c-0.5-0.2-1.2-0.5-1.9-0.5c-1.4,0-2.1,0.7-2.1,1.9c0,0.7,0.2,1.2,0.9,1.6l0.9,0.5
		c0.5,0.2,0.7,0.5,0.7,0.7c0,0.2-0.5,0.5-0.7,0.5c-0.5,0-1.2-0.2-1.6-0.7h-0.2c0,0,0,0,0,0.2v1.4c0.5,0.5,1.4,0.5,1.9,0.5
		c1.4,0,2.3-0.7,2.3-1.9C174.6,206,174,205.5,173.5,205.3z"/>
	<path class="st0" d="M181.6,202.5L181.6,202.5c-1.9,0-3.2,1.4-3.2,3.2c0,1.9,1.4,3.2,3.2,3.2c2.1,0,3.5-1.4,3.5-3.2
		C185.1,203.9,183.7,202.5,181.6,202.5z M181.6,207.4L181.6,207.4c-0.9,0-1.6-0.7-1.6-1.6c0-1.2,0.7-1.9,1.6-1.9
		c1.2,0,1.6,0.7,1.6,1.9C183.2,206.7,182.8,207.4,181.6,207.4z"/>
	<path class="st0" d="M191.8,202.5L191.8,202.5h-1.2c-0.2,0-0.2,0.2-0.2,0.2v3.7c0,0.7-0.5,1.2-1.2,1.2c-0.7,0-0.9-0.5-0.9-1.2v-3.7
		l-0.2-0.2h-1.4c-0.2,0-0.2,0.2-0.2,0.2v3.9c0,1.4,1.2,2.3,2.8,2.3c1.6,0,2.8-0.9,2.8-2.3v-3.9C192,202.7,192,202.5,191.8,202.5z"/>
	<path class="st0" d="M197.1,206.2L197.1,206.2c0.7-0.2,1.2-0.9,1.2-1.6c0-1.2-0.9-2.1-2.1-2.1h-2.3l-0.2,0.2v6h0.2h1.4h0.2v-2.3
		l1.4,2.3c0.2,0,0.2,0,0.2,0h1.6c0.2,0,0.2,0,0.2,0c0-0.2,0-0.2,0-0.2L197.1,206.2z M195.5,204.1L195.5,204.1h0.5
		c0.2,0,0.7,0,0.7,0.5c0,0.5-0.5,0.5-0.7,0.5h-0.5V204.1z"/>
	<path class="st0" d="M209.6,202.7L209.6,202.7c0,0,0-0.2-0.2-0.2h-1.6c0,0,0,0.2-0.2,0.2l-0.9,3.9l-1.2-3.9l-0.2-0.2h-1.6l-0.2,0.2
		l-0.7,6h1.4c0.2,0,0.2,0,0.2,0l0.5-3l0.9,3h1.6c0,0,0,0,0.2,0l0.7-3.2l0.2,0.2l0.2,3h0.2h1.4h0.2c0,0,0,0,0-0.2L209.6,202.7z"/>
	<path class="st0" d="M215.6,202.7L215.6,202.7v-0.2H214v0.2l-2.3,5.8c0,0.2,0,0.2,0,0.2h1.6l0.5-1.2h2.1l0.5,1.2h1.6v-0.2
		L215.6,202.7z M215.4,206.2L215.4,206.2h-1.2l0.5-1.6L215.4,206.2z"/>
	<path class="st0" d="M222.8,206.2L222.8,206.2c0.7-0.2,1.2-0.9,1.2-1.6c0-1.2-0.9-2.1-2.1-2.1h-2.3c-0.2,0-0.2,0.2-0.2,0.2v6
		c0,0,0,0,0.2,0h1.4h0.2v-2.3l1.4,2.3h0.2h1.6c0.2,0,0.2,0,0.2,0c0-0.2,0-0.2,0-0.2L222.8,206.2z M221.2,204.1L221.2,204.1h0.5
		c0.2,0,0.5,0,0.5,0.5c0,0.5-0.2,0.5-0.5,0.5h-0.5V204.1z"/>
	<path class="st0" d="M228.8,205.5L228.8,205.5l2.5-2.5c0-0.2,0-0.2,0-0.2v-0.2h-1.9c0,0,0,0,0,0.2l-1.9,1.9v-1.9l-0.2-0.2h-1.4
		c-0.2,0-0.2,0.2-0.2,0.2v6c0,0,0,0,0.2,0h1.4h0.2v-2.3l1.9,2.3h0.2h1.9c0-0.2,0-0.2,0-0.2L228.8,205.5z"/>
	<path class="st0" d="M237.2,202.5L237.2,202.5h-3.9c-0.2,0-0.2,0.2-0.2,0.2v6c0,0,0,0,0.2,0h3.9c0.2,0,0.2,0,0.2,0v-1.2
		c0-0.2,0-0.2-0.2-0.2h-2.6v-0.9h2.3c0,0,0,0,0-0.2v-1.2h-2.3v-0.9h2.3c0.2,0,0.2,0,0.2-0.2l0.2-1.2
		C237.4,202.5,237.4,202.5,237.2,202.5z"/>
	<path class="st0" d="M244.1,202.5L244.1,202.5H239c-0.2,0-0.2,0.2-0.2,0.2v1.2c0,0.2,0,0.2,0.2,0.2h1.6v4.6c0,0,0,0,0.2,0h1.4h0.2
		v-4.6h1.6c0.2,0,0.2,0,0.2-0.2v-1.2C244.4,202.7,244.4,202.5,244.1,202.5z"/>
	<path class="st0" d="M135,202.5L135,202.5h-1.4c-0.2,0-0.2,0.2-0.2,0.2l-0.7,3.5l-0.9-3.5c0,0,0-0.2-0.2-0.2h-1.2l-0.2,0.2
		l-0.9,3.5l-0.7-3.5c0,0,0-0.2-0.2-0.2h-1.4c-0.2,0-0.2,0.2-0.2,0.2l1.4,6c0.2,0,0.2,0.2,0.2,0.2h1.6c0.2,0,0.2-0.2,0.2-0.2l0.7-3
		h0.2l0.7,3v0.2h1.9v-0.2l1.6-6L135,202.5z"/>
	<text transform="matrix(1 0 0 1 34.0775 113.176)" class="st0 st1 st2"> </text>
</g>
<g>
	<g>
		<rect x="600.8" y="61.3" class="st0" width="7.6" height="146.9"/>
		<rect x="617.4" y="61.3" class="st0" width="7.6" height="146.9"/>
	</g>
	<g>
		<path class="st0" d="M558.6,168.9c-12.3,21.3-35.1,34.1-59.3,34.1l0,0c-37.4,0-68.3-30.8-68.3-68.7S461.9,66,499.4,66
			c24.2,0,46.9,13.3,59.3,34.1l0,0l6.6-3.3l0,0c-13.7-23.2-38.9-37.9-65.9-37.9c-41.7,0-75.8,34.1-75.8,75.8s34.1,75.8,75.8,75.8
			c27,0,52.1-14.7,65.9-37.9l0,0L558.6,168.9L558.6,168.9z"/>
		<path class="st0" d="M499.4,82.6c18.5,0,36,10,45,26.1l0,0l6.6-3.3l0,0c-10.4-18.5-30.3-29.9-51.7-29.9l0,0l0,0
			c-32.7,0-59.3,26.5-59.3,59.3s26.5,59.7,59.7,59.7c21.3,0,40.8-11.4,51.7-29.9l0,0l-6.6-3.8l0,0c-9.5,16.1-26.5,26.1-45,26.1
			c-28.9,0-52.1-23.2-52.1-52.1C447.3,106.3,471,82.6,499.4,82.6z"/>
	</g>
	<g>
		<rect x="662.5" y="61.3" class="st0" width="7.6" height="146.9"/>
		<polygon class="st0" points="679.5,78.8 679,78.3 679,208.2 686.2,208.2 686.2,105.3 736.4,192.6 786.6,105.3 786.6,208.2 
			794.2,208.2 794.2,78.3 736.4,178.3 		"/>
		<rect x="803.2" y="61.3" class="st0" width="7.6" height="146.9"/>
		<polygon class="st0" points="736.4,147.1 687.1,61.3 679,61.3 736.4,161.3 794.2,61.3 786.2,61.3 		"/>
	</g>
</g>
<line class="st3" x1="807" y1="61.3" x2="807" y2="208.2"/>
<g>
	<g>
		<polygon class="st0" points="426.8,289.4 439.4,289.4 439.4,324.7 446.7,324.7 446.7,289.4 459.2,289.4 459.2,283.2 426.8,283.2 
					"/>
		<path class="st0" d="M480.5,296.2c-3.9,0-6.3,1-8.7,2.4v-16.9l-7.2,2.4v40.6h7.2v-20.3c1.9-1,4.3-1.9,6.3-1.9
			c3.9,0,5.8,2.4,5.8,5.3v16.9h7.2v-17.9C491.1,300.6,487.7,296.2,480.5,296.2z"/>
		<path class="st0" d="M510.4,296.2c-8.7,0-14,6.8-14,14.5c0,8.2,4.8,14.5,15,14.5c3.4,0,8.2-1,11.1-2.4v-6.3
			c-2.9,1.9-7.7,2.9-10.1,2.9c-4.8,0-8.2-2.9-8.2-7.2H524v-2.4C523.5,300.1,517.2,296.2,510.4,296.2z M503.7,307.8
			c0.5-3.9,3.4-5.8,6.8-5.8c2.9,0,5.8,1.9,5.8,5.8H503.7z"/>
		<path class="st0" d="M540.9,303.9c0,12.1,8.7,21.7,22.2,21.7c6.8,0,12.6-2.4,16.4-4.8v-8.2c-4.8,4.8-10.6,6.8-15.9,6.8
			c-9.2,0-15-6.3-15-15.5c0-8.7,5.8-15,15-15c5.3,0,11.1,1.9,15.9,7.2v-8.7c-3.4-2.4-9.7-4.8-16.4-4.8
			C549.6,282.2,540.9,291.9,540.9,303.9z"/>
		<path class="st0" d="M602.3,296.2c-3.9,0-6.3,1-8.2,2.4v-16.9l-7.2,2.4v40.6h7.2v-20.3c1.9-1,4.3-1.9,6.3-1.9
			c3.9,0,5.8,2.4,5.8,5.3v16.9h7.2v-17.9C613.4,300.6,610,296.2,602.3,296.2z"/>
		<path class="st0" d="M632.2,296.2c-3.4,0-8.2,1-11.6,2.4v6.3c3.4-1.4,7.2-2.9,10.6-2.9c3.9,0,5.8,1.9,5.8,4.8v1.4h-7.2
			c-8.2,0-11.1,3.9-11.1,8.7c0,6.8,5.3,8.7,10.1,8.7c3.4,0,6.8-1,8.7-2.4l6.3,2.4v-17.9C643.8,301,641.4,296.2,632.2,296.2z
			 M637,318c-1.9,1.4-4.3,2.4-6.8,2.4s-4.8-1-4.8-3.9c0-2.4,1.9-3.9,4.3-3.9h6.8v5.3H637z"/>
		<path class="st0" d="M657.3,300.1l-6.3-2.9v27.5h7.2v-18.8c0,0,2.4-2.9,6.3-2.9c2.4,0,5.3,1,5.8,1.4v-7.2c-1.4-0.5-3.4-1-5.3-1
			C661.7,296.2,658.8,298.1,657.3,300.1z"/>
		<path class="st0" d="M685.9,318.9c-2.4,0-3.4-1.4-3.4-3.4V303h9.2v-5.8h-9.2V287l-7.2,2.4V316c0,5.3,2.9,9.2,9.2,9.2
			c3.4,0,7.2-1,8.2-1.4v-6.3C691.7,318,688.3,318.9,685.9,318.9z"/>
		<path class="st0" d="M710,296.2c-8.7,0-14,6.8-14,14.5c0,8.2,4.8,14.5,15,14.5c3.4,0,8.2-1,11.1-2.4v-6.3
			c-2.9,1.9-7.7,2.9-10.1,2.9c-4.8,0-8.2-2.9-8.2-7.2h19.8v-2.4C723.1,300.1,716.8,296.2,710,296.2z M703.3,307.8
			c0.5-3.9,3.4-5.8,6.8-5.8c2.9,0,5.8,1.9,5.8,5.8H703.3z"/>
		<path class="st0" d="M735.1,300.1l-6.3-2.9v27.5h7.2v-18.8c0,0,2.4-2.9,6.3-2.9c2.4,0,5.3,1,5.8,1.4v-7.2c-1.4-0.5-3.4-1-5.3-1
			C739.5,296.2,736.6,298.1,735.1,300.1z"/>
		<path class="st0" d="M765.6,296.2c-8.7,0-14,6.8-14,14.5c0,8.2,4.8,14.5,15,14.5c3.4,0,8.7-1,11.1-2.4v-6.3
			c-2.9,1.9-7.7,2.9-10.1,2.9c-4.8,0-8.2-2.9-8.2-7.2h19.8v-2.4C778.6,300.1,772.4,296.2,765.6,296.2z M758.8,307.8
			c0.5-3.9,3.4-5.8,6.8-5.8c2.9,0,5.8,1.9,5.8,5.8H758.8z"/>
		<path class="st0" d="M804.2,284.6v13.5c-1.9-1-4.3-1.9-7.2-1.9c-8.7,0-14,6.3-14,15c0,8.2,4.8,14.5,14,14.5c3.9,0,6.8-1,8.2-2.4
			l6.3,1.9v-43.5L804.2,284.6z M804.2,318c-1.4,1-3.9,1.4-5.8,1.4c-5.3,0-8.2-3.9-8.2-8.7c0-5.3,2.9-8.7,7.7-8.7
			c2.4,0,4.8,1,6.3,1.9L804.2,318L804.2,318z"/>
	</g>
	<g>
		<path class="st0" d="M524.9,377.9c-2.4,0-3.4-1.4-3.4-3.4v-12.6h9.2v-5.8h-9.2V346l-7.2,2.4V375c0,5.3,2.9,9.2,9.2,9.2
			c3.4,0,7.2-1,8.2-1.4v-6.3C530.7,376.9,527.4,377.9,524.9,377.9z"/>
		<path class="st0" d="M561.7,377.9c-2.4,0-3.4-1.4-3.4-3.4v-12.6h9.2v-5.8h-9.2V346l-7.2,2.4V375c0,5.3,2.9,9.2,9.2,9.2
			c3.4,0,7.2-1,8.2-1.4v-6.3C567.5,376.9,564.1,377.9,561.7,377.9z"/>
		<path class="st0" d="M617.2,377.9c-2.4,0-3.4-1.4-3.4-3.4v-12.6h9.2v-5.8h-9.2V346l-7.2,2.4V375c0,5.3,2.9,9.2,9.2,9.2
			c3.4,0,7.2-1,8.2-1.4v-6.3C623,376.9,619.7,377.9,617.2,377.9z"/>
		<rect x="439.4" y="342.1" class="st0" width="7.2" height="41.6"/>
		<path class="st0" d="M470.8,355.2c-3.9,0-6.8,1-9.2,2.4l-5.8-1.9v27.5h7.2v-19.8c1.9-1,3.9-1.9,6.8-1.9c3.9,0,5.8,1.9,5.8,5.3
			v16.9h7.2v-17.9C481.9,359.5,478.1,355.2,470.8,355.2z"/>
		<path class="st0" d="M502.7,367.7l-5.8-1.9c-1.9-0.5-1.9-1.4-1.9-2.4c0-1.9,1.4-2.9,3.9-2.9s6.3,1,9.2,2.9v-6.3
			c-1-0.5-4.8-1.9-9.2-1.9c-7.2,0-11.1,3.9-11.1,8.2c0,3.9,2.4,6.3,5.8,7.7l5.8,1.9c1.9,0.5,2.4,1.4,2.4,2.9c0,1-0.5,2.9-4.8,2.9
			c-3.4,0-6.8-1.4-9.7-2.9v6.8c2.4,1,6.3,1.9,9.7,1.9c6.8,0,11.6-2.4,11.6-8.7C509.5,371.6,506.6,369.2,502.7,367.7z"/>
		<path class="st0" d="M592.6,376.4c-1.9,1.4-3.9,1.9-6.8,1.9c-3.9,0-5.3-1.9-5.3-5.3v-16.9h-7.2v18.4c0,5.8,3.4,10.1,11.1,10.1
			c3.9,0,7.2-1,9.2-2.4l5.8,1.9v-28h-7.2v20.3H592.6z"/>
		<path class="st0" d="M641.4,355.2c-8.7,0-14,6.8-14,14.5c0,8.2,4.8,14.5,15,14.5c3.4,0,8.7-1,11.1-2.4v-6.3
			c-2.9,1.9-7.7,2.9-10.1,2.9c-4.8,0-8.2-2.9-8.2-7.2h19.8v-2.4C654,359,648.2,355.2,641.4,355.2z M634.6,366.8
			c0.5-3.9,3.4-5.8,6.8-5.8c2.9,0,5.8,1.9,5.8,5.8H634.6z"/>
		<path class="st0" d="M685.9,355.2c-9.2,0-15,6.8-15,14.5c0,8.2,5.8,14.5,15,14.5c9.2,0,15-6.8,15-14.5
			C700.8,361.9,695,355.2,685.9,355.2z M685.9,378.8c-5.3,0-8.2-3.9-8.2-8.7s2.9-8.7,8.2-8.7c5.3,0,8.2,3.9,8.2,8.7
			S691.2,378.8,685.9,378.8z"/>
		<path class="st0" d="M708.6,349.8v6.3h-4.8v5.8h4.8v21.7h7.2v-21.7h6.3v-5.8h-6.3v-5.3c0-1.9,1-3.9,3.9-3.9c2.9,0,5.8,1.4,6.3,1.9
			v-6.8c-1-0.5-4.3-1.4-7.2-1.4C712.4,340.7,708.6,344.5,708.6,349.8z"/>
		<rect x="537" y="356.1" class="st0" width="7.2" height="27.5"/>
		<ellipse class="st0" cx="540.4" cy="346.5" rx="4.3" ry="4.3"/>
		<path class="st0" d="M921.7,377.9c-2.4,0-3.4-1.4-3.4-3.4v-12.6h9.2v-5.8h-9.2V346l-7.2,2.4V375c0,5.3,2.9,9.2,9.2,9.2
			c3.4,0,7.2-1,8.2-1.4v-6.3C927.5,376.9,924.1,377.9,921.7,377.9z"/>
		<path class="st0" d="M807.1,355.2c-3.4,0-8.2,1-11.6,2.4v6.3c3.4-1.4,7.2-2.9,10.6-2.9c3.9,0,5.8,1.9,5.8,4.8v1.4h-7.2
			c-8.2,0-11.1,3.9-11.1,8.7c0,6.8,5.3,8.7,10.1,8.7c3.4,0,6.8-1,8.7-2.4l6.3,2.4v-17.9C818.7,360,815.8,355.2,807.1,355.2z
			 M812,376.9c-1.9,1.4-4.3,2.4-6.8,2.4c-2.4,0-4.8-1-4.8-3.9c0-2.4,1.9-3.9,4.3-3.9h6.8v5.3H812z"/>
		<path class="st0" d="M832.3,358.5l-6.3-2.9v27.5h7.2v-18.8c0,0,2.4-2.9,6.3-2.9c2.4,0,5.3,1,5.8,1.4v-7.2c-1.4-0.5-3.4-1-5.3-1
			C836.6,355.2,833.7,357.1,832.3,358.5z"/>
		<polygon class="st0" points="876.7,356.1 868.5,356.1 857.4,368.7 869,383.7 878.2,383.7 866.1,368.7 		"/>
		<polygon class="st0" points="850.2,383.7 856.9,383.7 856.9,343.6 850.2,340.7 		"/>
		<path class="st0" d="M892.7,355.2c-8.7,0-14,6.8-14,14.5c0,8.2,4.8,14.5,15,14.5c3.4,0,8.2-1,11.1-2.4v-6.3
			c-2.9,1.9-7.7,2.9-10.1,2.9c-4.8,0-8.2-2.9-8.2-7.2h19.8v-2.4C905.7,359,899.4,355.2,892.7,355.2z M885.9,366.8
			c0.5-3.9,3.4-5.8,6.8-5.8c2.9,0,5.8,1.9,5.8,5.8H885.9z"/>
		<path class="st0" d="M963.7,355.2c-3.9,0-6.8,1-9.2,2.4l-5.8-1.9v27.5h7.2v-19.8c1.9-1,3.9-1.9,6.8-1.9c3.9,0,5.8,1.9,5.8,5.3
			v16.9h7.2v-17.9C974.8,359.5,971,355.2,963.7,355.2z"/>
		<path class="st0" d="M1002.9,357.6c-1.9-1.4-4.8-2.4-8.2-2.4c-8.7,0-14.5,6.3-14.5,15c0,7.7,4.8,14.5,14,14.5
			c2.4,0,5.8-0.5,7.2-1.4v3.4c0,3.4-1.9,6.3-7.7,6.3c-3.9,0-7.7-1.4-10.6-3.4v7.2c2.9,1.4,7.7,1.9,11.1,1.9c10.6,0,15-5.8,15-13
			v-29.5L1002.9,357.6z M1001.4,376.9c-1.4,1-3.9,1.4-6.3,1.4c-5.3,0-7.7-3.9-7.7-8.7c0-4.8,2.9-8.7,7.7-8.7c2.4,0,4.8,1,6.3,1.9
			V376.9z"/>
		<rect x="933.7" y="356.1" class="st0" width="7.2" height="27.5"/>
		<ellipse class="st0" cx="937.6" cy="346.5" rx="4.3" ry="4.3"/>
		<polygon class="st0" points="765.6,366.3 751.6,341.6 744.3,341.6 744.3,383.7 751.6,383.7 751.6,355.2 765.6,379.3 765.6,379.3 
			779.6,354.7 779.6,383.7 787.3,383.7 787.3,341.6 780.1,341.6 		"/>
	</g>
</g>
</svg>
