<?xml version="1.0" encoding="utf-8"?>
<!-- Generator: Adobe Illustrator 22.0.0, SVG Export Plug-In . SVG Version: 6.00 Build 0)  -->
<svg version="1.1" id="Layer_1" xmlns="http://www.w3.org/2000/svg" xmlns:xlink="http://www.w3.org/1999/xlink" x="0px" y="0px"
	 viewBox="0 0 1009.1 342.4" style="enable-background:new 0 0 1009.1 342.4;" xml:space="preserve">
<style type="text/css">
	.st0{fill:#5B5A5D;}
</style>
<g>
	<g>
		<path class="st0" d="M170.3,289C106.9,289,61,236,61,170.7c0-65.3,45.9-117.3,109.3-117.3c37.8,0,66.2,16.6,92.7,41.1l37.4-43
			C268.6,21.3,231.7,0,170.7,0C70.5,0,0,77.1,0,171.7c0,95.5,71.9,170.7,168.4,170.7c62,0,99.8-22.7,134.3-58.7l-37.4-37.8
			C237,272.4,210.9,289,170.3,289"/>
		<path class="st0" d="M833.2,5.7H715.4v331.1h117.8c104.1,0,175.9-72.4,175.9-166C1009.1,77.1,937.2,5.7,833.2,5.7 M833.2,283.8
			h-59.6V58.6h59.6c69.5,0,114.9,47.8,114.9,113C948.1,237,902.7,283.8,833.2,283.8"/>
		<path class="st0" d="M687.9,116.8c0-67.6-48.7-111.1-125.8-111.1H437.7v331.1h58.2V230.3h59.6
			C628.3,230.3,687.9,191.5,687.9,116.8 M628.8,117.1c0,32.2-27.4,60.3-71.4,60.3h-32.6l-28.9,28.5V95.6c0-22.7,12.4-37,37.3-37
			h24.2C596.9,58.6,628.8,81.5,628.8,117.1"/>
		<rect x="333.9" y="5.7" class="st0" width="57.9" height="331.1"/>
	</g>
</g>
</svg>
